<svg width="411" height="411" viewBox="0 0 411 411" fill="none" xmlns="http://www.w3.org/2000/svg">
<circle cx="204.798" cy="205.368" r="133.073" fill="#0077B6"/>
<circle cx="205.032" cy="205.602" r="108.048" fill="#0096C7"/>
<circle cx="204.798" cy="205.368" r="80.2178" fill="#00B4D8"/>
<circle cx="205.032" cy="205.602" r="53.3226" fill="#48CAE4"/>
<rect x="241.516" y="205.602" width="16.8387" height="132.839" fill="#48CAE4"/>
<rect x="258.355" y="205.602" width="26.6613" height="132.839" fill="#00B4D8"/>
<rect x="285.016" y="205.602" width="28.0645" height="132.839" fill="#0096C7"/>
<rect x="313.081" y="205.602" width="24.7903" height="132.839" fill="#0077B6"/>
<path d="M202.226 244.892C202.226 242.05 204.529 239.747 207.371 239.747V239.747C210.213 239.747 212.516 242.05 212.516 244.892V258.924H202.226V244.892Z" fill="#48CAE4"/>
<rect x="202.226" y="258.924" width="10.2903" height="26.6613" fill="#00B4D8"/>
<rect x="202.226" y="285.585" width="10.2903" height="28.0645" fill="#0096C7"/>
<path d="M202.226 313.65H212.516V328.15C212.516 333.833 207.909 338.44 202.226 338.44V338.44V313.65Z" fill="#0077B6"/>
</svg>
