<svg width="13" height="17" viewBox="0 0 13 17" fill="none" xmlns="http://www.w3.org/2000/svg">
<g clip-path="url(#clip0_47_946)">
<path d="M0 1.59375C0 0.713867 0.727865 0 1.625 0V1.59375V14.6559L6.02943 11.5713C6.31042 11.3721 6.69297 11.3721 6.97396 11.5713L11.375 14.6559V1.59375H1.625V0H11.375C12.2721 0 13 0.713867 13 1.59375V16.2031C13 16.502 12.8307 16.7742 12.5599 16.9103C12.2891 17.0465 11.9641 17.0232 11.7169 16.8506L6.5 13.1982L1.28307 16.8506C1.03594 17.0232 0.710938 17.0465 0.440104 16.9103C0.169271 16.7742 0 16.502 0 16.2031V1.59375Z" fill="white"/>
</g>
<defs>
<clipPath id="clip0_47_946">
<rect width="13" height="17" fill="white"/>
</clipPath>
</defs>
</svg>
