<svg width="24" height="24" viewBox="0 0 24 24" fill="none" xmlns="http://www.w3.org/2000/svg">
<rect x="0.5" y="0.5" width="23" height="23" rx="5.5" stroke="white"/>
<g clip-path="url(#clip0_19_558)">
<path d="M4 6.60938C4 6.27168 4.27865 6 4.625 6H5.8099C6.38281 6 6.89062 6.325 7.1276 6.8125H17.8307C18.5156 6.8125 19.0156 7.44727 18.8359 8.09219L17.7682 11.9592C17.5469 12.7564 16.8047 13.3125 15.9583 13.3125H8.44531L8.58594 14.0361C8.64323 14.323 8.90104 14.5312 9.20052 14.5312H16.7083C17.0547 14.5312 17.3333 14.8029 17.3333 15.1406C17.3333 15.4783 17.0547 15.75 16.7083 15.75H9.20052C8.29948 15.75 7.52604 15.1254 7.35938 14.2646L6.01562 7.38379C5.9974 7.2873 5.91146 7.21875 5.8099 7.21875H4.625C4.27865 7.21875 4 6.94707 4 6.60938ZM7.33333 17.7812C7.33333 17.6212 7.36567 17.4627 7.42848 17.3149C7.4913 17.167 7.58338 17.0326 7.69945 16.9195C7.81552 16.8063 7.95332 16.7165 8.10498 16.6553C8.25664 16.594 8.41918 16.5625 8.58333 16.5625C8.74749 16.5625 8.91003 16.594 9.06169 16.6553C9.21334 16.7165 9.35114 16.8063 9.46722 16.9195C9.58329 17.0326 9.67536 17.167 9.73818 17.3149C9.801 17.4627 9.83333 17.6212 9.83333 17.7812C9.83333 17.9413 9.801 18.0998 9.73818 18.2476C9.67536 18.3955 9.58329 18.5299 9.46722 18.643C9.35114 18.7562 9.21334 18.846 9.06169 18.9072C8.91003 18.9685 8.74749 19 8.58333 19C8.41918 19 8.25664 18.9685 8.10498 18.9072C7.95332 18.846 7.81552 18.7562 7.69945 18.643C7.58338 18.5299 7.4913 18.3955 7.42848 18.2476C7.36567 18.0998 7.33333 17.9413 7.33333 17.7812ZM16.0833 16.5625C16.4149 16.5625 16.7328 16.6909 16.9672 16.9195C17.2016 17.148 17.3333 17.458 17.3333 17.7812C17.3333 18.1045 17.2016 18.4145 16.9672 18.643C16.7328 18.8716 16.4149 19 16.0833 19C15.7518 19 15.4339 18.8716 15.1994 18.643C14.965 18.4145 14.8333 18.1045 14.8333 17.7812C14.8333 17.458 14.965 17.148 15.1994 16.9195C15.4339 16.6909 15.7518 16.5625 16.0833 16.5625Z" fill="white"/>
</g>
<defs>
<clipPath id="clip0_19_558">
<rect width="15" height="13" fill="white" transform="translate(4 6)"/>
</clipPath>
</defs>
</svg>
