<svg width="221" height="15" viewBox="0 0 221 15" fill="none" xmlns="http://www.w3.org/2000/svg">
<rect y="5" width="194" height="5" rx="2" fill="url(#paint0_linear_47_2290)"/>
<path d="M202.79 9.06C202.857 9.44 203.01 9.73333 203.25 9.94C203.497 10.1467 203.827 10.25 204.24 10.25C204.793 10.25 205.2 10.0333 205.46 9.6C205.727 9.16667 205.853 8.43667 205.84 7.41C205.7 7.71 205.467 7.94667 205.14 8.12C204.813 8.28667 204.45 8.37 204.05 8.37C203.603 8.37 203.203 8.28 202.85 8.1C202.503 7.91333 202.23 7.64333 202.03 7.29C201.83 6.93667 201.73 6.51 201.73 6.01C201.73 5.29667 201.937 4.72333 202.35 4.29C202.763 3.85 203.35 3.63 204.11 3.63C205.043 3.63 205.697 3.93333 206.07 4.54C206.45 5.14667 206.64 6.05 206.64 7.25C206.64 8.09 206.563 8.78333 206.41 9.33C206.263 9.87667 206.01 10.2933 205.65 10.58C205.297 10.8667 204.81 11.01 204.19 11.01C203.51 11.01 202.98 10.8267 202.6 10.46C202.22 10.0933 202.003 9.62667 201.95 9.06H202.79ZM204.2 7.6C204.647 7.6 205.013 7.46333 205.3 7.19C205.587 6.91 205.73 6.53333 205.73 6.06C205.73 5.56 205.59 5.15667 205.31 4.85C205.03 4.54333 204.637 4.39 204.13 4.39C203.663 4.39 203.29 4.53667 203.01 4.83C202.737 5.12333 202.6 5.51 202.6 5.99C202.6 6.47667 202.737 6.86667 203.01 7.16C203.283 7.45333 203.68 7.6 204.2 7.6ZM207.809 10.27C208.655 9.59 209.319 9.03333 209.799 8.6C210.279 8.16 210.682 7.70333 211.009 7.23C211.342 6.75 211.509 6.28 211.509 5.82C211.509 5.38667 211.402 5.04667 211.189 4.8C210.982 4.54667 210.645 4.42 210.179 4.42C209.725 4.42 209.372 4.56333 209.119 4.85C208.872 5.13 208.739 5.50667 208.719 5.98H207.839C207.865 5.23333 208.092 4.65667 208.519 4.25C208.945 3.84333 209.495 3.64 210.169 3.64C210.855 3.64 211.399 3.83 211.799 4.21C212.205 4.59 212.409 5.11333 212.409 5.78C212.409 6.33333 212.242 6.87333 211.909 7.4C211.582 7.92 211.209 8.38 210.789 8.78C210.369 9.17333 209.832 9.63333 209.179 10.16H212.619V10.92H207.809V10.27ZM213.471 5.4C213.471 4.94667 213.607 4.58667 213.881 4.32C214.154 4.04667 214.504 3.91 214.931 3.91C215.357 3.91 215.707 4.04667 215.981 4.32C216.254 4.58667 216.391 4.94667 216.391 5.4C216.391 5.86 216.254 6.22667 215.981 6.5C215.707 6.76667 215.357 6.9 214.931 6.9C214.504 6.9 214.154 6.76667 213.881 6.5C213.607 6.22667 213.471 5.86 213.471 5.4ZM219.311 4.02L215.261 11H214.361L218.411 4.02H219.311ZM214.931 4.47C214.704 4.47 214.524 4.55 214.391 4.71C214.264 4.86333 214.201 5.09333 214.201 5.4C214.201 5.70667 214.264 5.94 214.391 6.1C214.524 6.26 214.704 6.34 214.931 6.34C215.157 6.34 215.337 6.26 215.471 6.1C215.604 5.93333 215.671 5.7 215.671 5.4C215.671 5.09333 215.604 4.86333 215.471 4.71C215.337 4.55 215.157 4.47 214.931 4.47ZM217.301 9.62C217.301 9.16 217.437 8.79667 217.711 8.53C217.984 8.25667 218.334 8.12 218.761 8.12C219.187 8.12 219.534 8.25667 219.801 8.53C220.074 8.79667 220.211 9.16 220.211 9.62C220.211 10.0733 220.074 10.4367 219.801 10.71C219.534 10.9833 219.187 11.12 218.761 11.12C218.334 11.12 217.984 10.9867 217.711 10.72C217.437 10.4467 217.301 10.08 217.301 9.62ZM218.751 8.69C218.524 8.69 218.344 8.77 218.211 8.93C218.077 9.08333 218.011 9.31333 218.011 9.62C218.011 9.92 218.077 10.15 218.211 10.31C218.344 10.4633 218.524 10.54 218.751 10.54C218.977 10.54 219.157 10.4633 219.291 10.31C219.424 10.15 219.491 9.92 219.491 9.62C219.491 9.31333 219.424 9.08333 219.291 8.93C219.157 8.77 218.977 8.69 218.751 8.69Z" fill="#9EA9AD"/>
<defs>
<linearGradient id="paint0_linear_47_2290" x1="-1.10167e-06" y1="8.00007" x2="194" y2="8.00001" gradientUnits="userSpaceOnUse">
<stop stop-color="#00B4D8"/>
<stop offset="0.921775" stop-color="#00B4D8"/>
<stop offset="0.921875" stop-color="#D1D1D6"/>
</linearGradient>
</defs>
</svg>
