<svg width="21" height="17" viewBox="0 0 21 17" fill="none" xmlns="http://www.w3.org/2000/svg">
<path d="M2.3625 2.92188C2.3625 2.42874 2.55609 1.9558 2.90069 1.6071C3.24529 1.2584 3.71266 1.0625 4.2 1.0625C4.68734 1.0625 5.15471 1.2584 5.49931 1.6071C5.84391 1.9558 6.0375 2.42874 6.0375 2.92188C6.0375 3.41501 5.84391 3.88795 5.49931 4.23665C5.15471 4.58535 4.68734 4.78125 4.2 4.78125C3.71266 4.78125 3.24529 4.58535 2.90069 4.23665C2.55609 3.88795 2.3625 3.41501 2.3625 2.92188ZM2.1 8.15801C1.77187 8.52988 1.575 9.02461 1.575 9.5625C1.575 10.1004 1.77187 10.5951 2.1 10.967V8.15801ZM6.83812 6.52109C5.86359 7.39434 5.25 8.67266 5.25 10.0938C5.25 11.2326 5.64375 12.2785 6.3 13.0986V13.8125C6.3 14.4002 5.83078 14.875 5.25 14.875H3.15C2.56922 14.875 2.1 14.4002 2.1 13.8125V12.9227C0.859688 12.325 0 11.0467 0 9.5625C0 7.50723 1.64391 5.84375 3.675 5.84375H4.725C5.5125 5.84375 6.24094 6.09277 6.83812 6.51777V6.52109ZM14.7 13.8125V13.0986C15.3562 12.2785 15.75 11.2326 15.75 10.0938C15.75 8.67266 15.1364 7.39434 14.1619 6.51777C14.7591 6.09277 15.4875 5.84375 16.275 5.84375H17.325C19.3561 5.84375 21 7.50723 21 9.5625C21 11.0467 20.1403 12.325 18.9 12.9227V13.8125C18.9 14.4002 18.4308 14.875 17.85 14.875H15.75C15.1692 14.875 14.7 14.4002 14.7 13.8125ZM14.9625 2.92188C14.9625 2.42874 15.1561 1.9558 15.5007 1.6071C15.8453 1.2584 16.3127 1.0625 16.8 1.0625C17.2873 1.0625 17.7547 1.2584 18.0993 1.6071C18.4439 1.9558 18.6375 2.42874 18.6375 2.92188C18.6375 3.41501 18.4439 3.88795 18.0993 4.23665C17.7547 4.58535 17.2873 4.78125 16.8 4.78125C16.3127 4.78125 15.8453 4.58535 15.5007 4.23665C15.1561 3.88795 14.9625 3.41501 14.9625 2.92188ZM18.9 8.15801V10.9703C19.2281 10.5951 19.425 10.1037 19.425 9.56582C19.425 9.02793 19.2281 8.5332 18.9 8.16133V8.15801ZM10.5 1.0625C11.057 1.0625 11.5911 1.28638 11.9849 1.6849C12.3787 2.08341 12.6 2.62391 12.6 3.1875C12.6 3.75109 12.3787 4.29159 11.9849 4.6901C11.5911 5.08862 11.057 5.3125 10.5 5.3125C9.94304 5.3125 9.4089 5.08862 9.01508 4.6901C8.62125 4.29159 8.4 3.75109 8.4 3.1875C8.4 2.62391 8.62125 2.08341 9.01508 1.6849C9.4089 1.28638 9.94304 1.0625 10.5 1.0625ZM7.875 10.0938C7.875 10.6316 8.07187 11.123 8.4 11.4982V8.68926C8.07187 9.06445 7.875 9.55586 7.875 10.0938ZM12.6 8.68926V11.5016C12.9281 11.1264 13.125 10.635 13.125 10.0971C13.125 9.55918 12.9281 9.06445 12.6 8.69258V8.68926ZM14.7 10.0938C14.7 11.5779 13.8403 12.8563 12.6 13.4539V14.875C12.6 15.4627 12.1308 15.9375 11.55 15.9375H9.45C8.86922 15.9375 8.4 15.4627 8.4 14.875V13.4539C7.15969 12.8563 6.3 11.5779 6.3 10.0938C6.3 8.03848 7.94391 6.375 9.975 6.375H11.025C13.0561 6.375 14.7 8.03848 14.7 10.0938Z" fill="#CAF0F8"/>
</svg>
