<svg width="15" height="15" viewBox="0 0 15 15" fill="none" xmlns="http://www.w3.org/2000/svg">
<path d="M7.14844 2.46094L7.47363 2.8125L7.8252 2.46152C8.80664 1.50498 10.166 1.06963 11.502 1.29199C13.5205 1.62832 15 3.375 15 5.42285V5.59277C15 6.80859 14.4961 7.97168 13.6055 8.80078L8.31152 13.7432C8.0918 13.9482 7.80176 14.0625 7.5 14.0625C7.19824 14.0625 6.9082 13.9482 6.68848 13.7432L1.39424 8.80078C0.504785 7.97168 0 6.80859 0 5.59277V5.42285C0 3.375 1.48008 1.62832 3.49805 1.29199C4.80762 1.06963 6.19336 1.50498 7.14844 2.46094C7.14844 2.46123 7.12207 2.46094 7.14844 2.46094ZM7.47363 4.80176L6.15527 3.43066C5.51953 2.8207 4.61719 2.53125 3.72949 2.67891C2.38916 2.90244 1.40625 4.06348 1.40625 5.42285V5.59277C1.40625 6.41895 1.74932 7.20996 2.35371 7.77246L7.5 12.5771L12.6475 7.77246C13.251 7.20996 13.5938 6.41895 13.5938 5.59277V5.42285C13.5938 4.06348 12.6094 2.90244 11.2705 2.67891C10.3828 2.53125 9.48047 2.8207 8.84473 3.43066L7.47363 4.80176Z" fill="#9EA9AD"/>
</svg>
