<svg width="24" height="24" viewBox="0 0 24 24" fill="none" xmlns="http://www.w3.org/2000/svg">
<rect x="0.5" y="0.5" width="23" height="23" rx="5.5" stroke="white"/>
<path d="M18 7.83335C18 6.91408 17.2312 6.16669 16.2857 6.16669H7.71429C6.76875 6.16669 6 6.91408 6 7.83335V16.1667C6 17.086 6.76875 17.8334 7.71429 17.8334H16.2857C17.2312 17.8334 18 17.086 18 16.1667V7.83335ZM12.8571 9.50002C12.8571 9.96096 12.4741 10.3334 12 10.3334H9.42857C8.95446 10.3334 8.57143 9.96096 8.57143 9.50002C8.57143 9.03908 8.95446 8.66669 9.42857 8.66669H12C12.4741 8.66669 12.8571 9.03908 12.8571 9.50002ZM14.5714 11.1667C15.0455 11.1667 15.4286 11.5391 15.4286 12C15.4286 12.461 15.0455 12.8334 14.5714 12.8334H9.42857C8.95446 12.8334 8.57143 12.461 8.57143 12C8.57143 11.5391 8.95446 11.1667 9.42857 11.1667H14.5714ZM11.1429 14.5C11.1429 14.961 10.7598 15.3334 10.2857 15.3334H9.42857C8.95446 15.3334 8.57143 14.961 8.57143 14.5C8.57143 14.0391 8.95446 13.6667 9.42857 13.6667H10.2857C10.7598 13.6667 11.1429 14.0391 11.1429 14.5Z" fill="white"/>
</svg>
