<svg width="19" height="17" viewBox="0 0 19 17" fill="none" xmlns="http://www.w3.org/2000/svg">
<g clip-path="url(#clip0_19_546)">
<path d="M18.9934 8.4834C18.9934 9.08105 18.4986 9.54922 17.9378 9.54922H16.8823L16.9054 14.8684C16.9054 14.958 16.8988 15.0477 16.8889 15.1373V15.6719C16.8889 16.4057 16.2984 17 15.5694 17H15.0417C15.0054 17 14.9691 17 14.9328 16.9967C14.8866 17 14.8405 17 14.7943 17H13.7222H12.9306C12.2016 17 11.6111 16.4057 11.6111 15.6719V14.875V12.75C11.6111 12.1623 11.1394 11.6875 10.5556 11.6875H8.44444C7.86059 11.6875 7.38889 12.1623 7.38889 12.75V14.875V15.6719C7.38889 16.4057 6.79844 17 6.06944 17H5.27778H4.22552C4.17604 17 4.12656 16.9967 4.07708 16.9934C4.0375 16.9967 3.99792 17 3.95833 17H3.43056C2.70156 17 2.11111 16.4057 2.11111 15.6719V11.9531C2.11111 11.9232 2.11111 11.89 2.11441 11.8602V9.54922H1.05556C0.461806 9.54922 0 9.08438 0 8.4834C0 8.18457 0.0989583 7.91895 0.329861 7.68652L8.7875 0.265625C9.0184 0.0332031 9.28229 0 9.51319 0C9.7441 0 10.008 0.0664062 10.2059 0.232422L18.6306 7.68652C18.8944 7.91895 19.0264 8.18457 18.9934 8.4834Z" fill="#CAF0F8"/>
</g>
<defs>
<clipPath id="clip0_19_546">
<rect width="19" height="17" fill="white"/>
</clipPath>
</defs>
</svg>
