<svg width="26" height="21" viewBox="0 0 26 21" fill="none" xmlns="http://www.w3.org/2000/svg">
<path d="M7.79997 3.9375C8.31714 3.9375 8.81313 3.73008 9.17883 3.36087C9.54452 2.99165 9.74997 2.4909 9.74997 1.96875C9.74997 1.44661 9.54452 0.945846 9.17883 0.576634C8.81313 0.207421 8.31714 0 7.79997 0C7.2828 0 6.78681 0.207421 6.42111 0.576634C6.05542 0.945846 5.84997 1.44661 5.84997 1.96875C5.84997 2.4909 6.05542 2.99165 6.42111 3.36087C6.78681 3.73008 7.2828 3.9375 7.79997 3.9375ZM7.47497 19.6875V14.4375H8.12497V19.6875C8.12497 20.4135 8.70591 21 9.42497 21C10.144 21 10.725 20.4135 10.725 19.6875V7.875H13H15.6H16.25C16.969 7.875 17.55 7.28848 17.55 6.5625C17.55 5.83652 16.969 5.25 16.25 5.25H15.6V2.625H23.4V10.5H15.6V9.1875H13V11.1562C13 12.2432 13.8734 13.125 14.95 13.125H24.05C25.1265 13.125 26 12.2432 26 11.1562V1.96875C26 0.881836 25.1265 0 24.05 0H14.95C13.8734 0 13 0.881836 13 1.96875V5.25H9.87591H7.19466C5.82559 5.25 4.55809 5.97598 3.85122 7.16133L1.48278 11.1398C1.11309 11.7592 1.31216 12.5672 1.92559 12.9404C2.53903 13.3137 3.33934 13.1127 3.70903 12.4934L4.87497 10.5369V19.6875C4.87497 20.4135 5.45591 21 6.17497 21C6.89403 21 7.47497 20.4135 7.47497 19.6875Z" fill="#D1D1D6"/>
</svg>
