<svg width="26" height="21" viewBox="0 0 26 21" fill="none" xmlns="http://www.w3.org/2000/svg">
<g clip-path="url(#clip0_47_2596)">
<path d="M2.6 2.625V14.4375H23.4V2.625H2.6ZM0 2.625C0 1.17715 1.16594 0 2.6 0H23.4C24.8341 0 26 1.17715 26 2.625V14.4375C26 15.8854 24.8341 17.0625 23.4 17.0625H2.6C1.16594 17.0625 0 15.8854 0 14.4375V2.625ZM5.2 18.375H20.8C21.5191 18.375 22.1 18.9615 22.1 19.6875C22.1 20.4135 21.5191 21 20.8 21H5.2C4.48094 21 3.9 20.4135 3.9 19.6875C3.9 18.9615 4.48094 18.375 5.2 18.375Z" fill="#D1D1D6"/>
</g>
<defs>
<clipPath id="clip0_47_2596">
<rect width="26" height="21" fill="white"/>
</clipPath>
</defs>
</svg>
