<svg width="15" height="18" viewBox="0 0 15 18" fill="none" xmlns="http://www.w3.org/2000/svg">
<path d="M4.82143 5.0625V6.75H10.1786V5.0625C10.1786 3.50859 8.97991 2.25 7.5 2.25C6.02009 2.25 4.82143 3.50859 4.82143 5.0625ZM2.67857 6.75V5.0625C2.67857 2.26758 4.83817 0 7.5 0C10.1618 0 12.3214 2.26758 12.3214 5.0625V6.75H12.8571C14.0391 6.75 15 7.75898 15 9V15.75C15 16.991 14.0391 18 12.8571 18H2.14286C0.960938 18 0 16.991 0 15.75V9C0 7.75898 0.960938 6.75 2.14286 6.75H2.67857Z" fill="#455A64"/>
</svg>
