<svg width="30" height="30" viewBox="0 0 30 30" fill="none" xmlns="http://www.w3.org/2000/svg">
<circle cx="15" cy="15" r="14" stroke="url(#paint0_angular_29_467)" stroke-width="2"/>
<path d="M8.69 14.42C9.39 14.42 9.96667 14.64 10.42 15.08C10.8733 15.5133 11.1 16.0767 11.1 16.77C11.1 17.4633 10.8733 18.03 10.42 18.47C9.96667 18.91 9.39 19.13 8.69 19.13C7.98333 19.13 7.40333 18.91 6.95 18.47C6.50333 18.03 6.28 17.4633 6.28 16.77C6.28 16.23 6.42 15.7633 6.7 15.37L8.95 12H10.01L8.36 14.44C8.50667 14.4267 8.61667 14.42 8.69 14.42ZM7.61 17.84C7.89 18.1067 8.25 18.24 8.69 18.24C9.13 18.24 9.48667 18.1067 9.76 17.84C10.04 17.5667 10.18 17.21 10.18 16.77C10.18 16.33 10.04 15.9767 9.76 15.71C9.48667 15.4433 9.13 15.31 8.69 15.31C8.24333 15.31 7.88333 15.4433 7.61 15.71C7.33667 15.9767 7.2 16.33 7.2 16.77C7.2 17.21 7.33667 17.5667 7.61 17.84ZM15.4609 15.38C15.8009 15.5533 16.0675 15.7867 16.2609 16.08C16.4542 16.3733 16.5509 16.7067 16.5509 17.08C16.5509 17.72 16.3275 18.2233 15.8809 18.59C15.4342 18.95 14.8575 19.13 14.1509 19.13C13.4509 19.13 12.8775 18.95 12.4309 18.59C11.9842 18.2233 11.7609 17.72 11.7609 17.08C11.7609 16.7067 11.8575 16.3733 12.0509 16.08C12.2442 15.7867 12.5109 15.5533 12.8509 15.38C12.2775 15.02 11.9909 14.51 11.9909 13.85C11.9909 13.2167 12.2009 12.73 12.6209 12.39C13.0475 12.0433 13.5575 11.87 14.1509 11.87C14.7509 11.87 15.2609 12.0433 15.6809 12.39C16.1075 12.73 16.3209 13.2167 16.3209 13.85C16.3209 14.51 16.0342 15.02 15.4609 15.38ZM14.1509 12.76C13.7975 12.76 13.5009 12.8533 13.2609 13.04C13.0275 13.2267 12.9109 13.5033 12.9109 13.87C12.9109 14.2233 13.0309 14.5 13.2709 14.7C13.5109 14.8933 13.8042 14.99 14.1509 14.99C14.4975 14.99 14.7909 14.8933 15.0309 14.7C15.2709 14.5 15.3909 14.2233 15.3909 13.87C15.3909 13.5033 15.2742 13.2267 15.0409 13.04C14.8075 12.8533 14.5109 12.76 14.1509 12.76ZM14.1509 18.24C14.5975 18.24 14.9542 18.1367 15.2209 17.93C15.4942 17.7167 15.6309 17.4133 15.6309 17.02C15.6309 16.6333 15.4942 16.3367 15.2209 16.13C14.9542 15.9167 14.5975 15.81 14.1509 15.81C13.7109 15.81 13.3542 15.9167 13.0809 16.13C12.8142 16.3367 12.6809 16.6333 12.6809 17.02C12.6809 17.4133 12.8142 17.7167 13.0809 17.93C13.3542 18.1367 13.7109 18.24 14.1509 18.24ZM18.8624 14.97C18.4091 14.97 18.0324 14.82 17.7324 14.52C17.4324 14.22 17.2824 13.8533 17.2824 13.42C17.2824 12.9933 17.4324 12.63 17.7324 12.33C18.0391 12.0233 18.4158 11.87 18.8624 11.87C19.3158 11.87 19.6924 12.02 19.9924 12.32C20.2924 12.62 20.4424 12.9867 20.4424 13.42C20.4424 13.8533 20.2924 14.22 19.9924 14.52C19.6991 14.82 19.3224 14.97 18.8624 14.97ZM18.2824 14.01C18.4358 14.1633 18.6291 14.24 18.8624 14.24C19.0958 14.24 19.2858 14.16 19.4324 14C19.5858 13.84 19.6624 13.6467 19.6624 13.42C19.6624 13.1933 19.5858 13.0033 19.4324 12.85C19.2858 12.69 19.0958 12.61 18.8624 12.61C18.6291 12.61 18.4358 12.69 18.2824 12.85C18.1358 13.0033 18.0624 13.1933 18.0624 13.42C18.0624 13.6533 18.1358 13.85 18.2824 14.01ZM17.7524 18.01L22.4024 12.81L22.8924 13.08L18.2324 18.29L17.7524 18.01ZM23.0124 18.67C22.7124 18.97 22.3358 19.12 21.8824 19.12C21.4291 19.12 21.0524 18.97 20.7524 18.67C20.4524 18.37 20.3024 18.0033 20.3024 17.57C20.3024 17.1367 20.4524 16.77 20.7524 16.47C21.0524 16.17 21.4291 16.02 21.8824 16.02C22.3358 16.02 22.7124 16.17 23.0124 16.47C23.3124 16.77 23.4624 17.1367 23.4624 17.57C23.4624 18.0033 23.3124 18.37 23.0124 18.67ZM21.3024 18.15C21.4558 18.3033 21.6491 18.38 21.8824 18.38C22.1158 18.38 22.3058 18.3033 22.4524 18.15C22.6058 17.99 22.6824 17.7967 22.6824 17.57C22.6824 17.3433 22.6058 17.1533 22.4524 17C22.3058 16.84 22.1158 16.76 21.8824 16.76C21.6491 16.76 21.4558 16.84 21.3024 17C21.1558 17.1533 21.0824 17.3433 21.0824 17.57C21.0824 17.7967 21.1558 17.99 21.3024 18.15Z" fill="#455A64"/>
<defs>
<radialGradient id="paint0_angular_29_467" cx="0" cy="0" r="1" gradientUnits="userSpaceOnUse" gradientTransform="translate(15 15) rotate(-90) scale(10.7143)">
<stop stop-color="#CAF0F8"/>
<stop offset="0.0001" stop-color="#00B4D8"/>
<stop offset="0.619692" stop-color="#00B4D8"/>
<stop offset="0.619792" stop-color="#CAF0F8"/>
</radialGradient>
</defs>
</svg>
