<svg width="500" height="500" viewBox="0 0 500 500" fill="none" xmlns="http://www.w3.org/2000/svg">
<path d="M245.42 476.86C375.82 476.86 481.53 421.804 481.53 353.89C481.53 285.976 375.82 230.92 245.42 230.92C115.02 230.92 9.31006 285.976 9.31006 353.89C9.31006 421.804 115.02 476.86 245.42 476.86Z" fill="#F5F5F5"/>
<path d="M329.13 427.26C379.929 427.26 421.11 403.482 421.11 374.15C421.11 344.818 379.929 321.04 329.13 321.04C278.331 321.04 237.15 344.818 237.15 374.15C237.15 403.482 278.331 427.26 329.13 427.26Z" fill="#E6E6E6"/>
<path d="M144.84 399.62C189.172 399.62 225.11 378.873 225.11 353.28C225.11 327.687 189.172 306.94 144.84 306.94C100.508 306.94 64.5698 327.687 64.5698 353.28C64.5698 378.873 100.508 399.62 144.84 399.62Z" fill="#E6E6E6"/>
<path d="M130.31 412.38C137.86 416.56 137.86 423.38 130.31 427.52C122.76 431.66 110.51 431.7 102.95 427.52C95.3899 423.34 95.3999 416.52 102.95 412.38C110.5 408.24 122.75 408.19 130.31 412.38Z" fill="#E6E6E6"/>
<path d="M92.1499 376.42C103.15 382.6 103.23 392.81 92.3899 399.22C81.5499 405.63 63.8899 405.82 52.9099 399.64C41.9299 393.46 41.8299 383.26 52.6699 376.85C63.5099 370.44 81.1799 370.24 92.1499 376.42Z" fill="#E6E6E6"/>
<path d="M399 362.34C397.72 347.93 397 334.6 402.74 313.53C407.58 295.85 422.04 277.29 432.74 277.22C442.74 277.15 445.84 289.22 437.74 300.71C429.64 312.2 411.74 334.5 411.67 349.55L409.16 366.85L399 362.34Z" fill="#00B4D8"/>
<path opacity="0.2" d="M399 362.34C397.72 347.93 397 334.6 402.74 313.53C407.58 295.85 422.04 277.29 432.74 277.22C442.74 277.15 445.84 289.22 437.74 300.71C429.64 312.2 411.74 334.5 411.67 349.55L409.16 366.85L399 362.34Z" fill="black"/>
<path d="M403.09 358.35C403.222 358.309 403.337 358.227 403.418 358.115C403.499 358.003 403.542 357.868 403.54 357.73C402.54 324.04 419.16 294.64 434.15 284.86C434.225 284.816 434.289 284.757 434.341 284.688C434.392 284.618 434.428 284.538 434.448 284.454C434.468 284.37 434.47 284.283 434.455 284.197C434.44 284.112 434.408 284.031 434.36 283.958C434.313 283.886 434.251 283.824 434.179 283.776C434.107 283.728 434.026 283.695 433.941 283.679C433.856 283.664 433.769 283.665 433.684 283.684C433.6 283.703 433.52 283.739 433.45 283.79C418.22 293.73 401.25 323.61 402.26 357.79C402.261 357.875 402.279 357.958 402.314 358.035C402.348 358.112 402.397 358.182 402.459 358.24C402.52 358.298 402.593 358.343 402.672 358.372C402.751 358.401 402.836 358.414 402.92 358.41C402.98 358.4 403.037 358.38 403.09 358.35Z" fill="white"/>
<path d="M413 368.64C413.22 363.53 417.18 354.25 425.07 345.47C433.8 335.76 446.24 329.28 447.95 322.94C450.01 315.32 443.14 311.86 432.47 315C419.65 318.78 406.32 334.8 406.21 365.46L413 368.64Z" fill="#00B4D8"/>
<path d="M409.68 364.12C409.797 364.081 409.901 364.01 409.979 363.914C410.056 363.818 410.105 363.702 410.12 363.58C413.12 336.58 429.99 323.3 438.51 320.06C438.667 320 438.794 319.88 438.863 319.726C438.933 319.573 438.939 319.398 438.88 319.24C438.851 319.16 438.807 319.087 438.749 319.025C438.691 318.963 438.621 318.913 438.544 318.878C438.466 318.844 438.383 318.825 438.298 318.824C438.213 318.822 438.129 318.838 438.05 318.87C428.63 322.45 411.88 335.87 408.85 363.44C408.83 363.608 408.878 363.778 408.983 363.911C409.088 364.044 409.242 364.13 409.41 364.15C409.501 364.161 409.594 364.151 409.68 364.12Z" fill="white"/>
<path d="M91.1201 328.29C91.1201 328.29 95.0001 307 91.6601 287.93C88.3201 268.86 78.9301 253.86 66.9401 247.71C54.9501 241.56 40.2001 248.79 50.1901 262.15C60.18 275.51 80.4101 293.33 79.0401 327.15L91.1201 328.29Z" fill="#00B4D8"/>
<path opacity="0.15" d="M91.1201 328.29C91.1201 328.29 95.0001 307 91.6601 287.93C88.3201 268.86 78.9301 253.86 66.9401 247.71C54.9501 241.56 40.2001 248.79 50.1901 262.15C60.18 275.51 80.4101 293.33 79.0401 327.15L91.1201 328.29Z" fill="black"/>
<path d="M86.6201 325.83H86.7601C86.9503 325.83 87.133 325.756 87.2693 325.623C87.4056 325.491 87.4848 325.31 87.4901 325.12C87.8801 283.66 74.8501 262.42 59.3001 251.29C59.2239 251.236 59.1377 251.197 59.0465 251.175C58.9553 251.154 58.8608 251.151 58.7684 251.166C58.676 251.182 58.5875 251.215 58.508 251.265C58.4285 251.314 58.3596 251.379 58.3051 251.455C58.195 251.609 58.1505 251.8 58.1815 251.987C58.2124 252.173 58.3162 252.34 58.4701 252.45C73.8001 263.45 86.4701 284.24 86.0501 325.11C86.0464 325.278 86.1013 325.441 86.2054 325.573C86.3094 325.704 86.4561 325.795 86.6201 325.83Z" fill="white"/>
<path d="M30.52 294.61C30.52 297.3 32.47 299.54 34.35 301.47C36.23 303.4 38.28 305.47 38.58 308.12C39.18 313.5 32.46 317.75 33.29 323.12C33.5479 324.229 34.0283 325.274 34.7021 326.192C35.3759 327.11 36.2291 327.882 37.21 328.46C38.8114 329.452 40.4637 330.36 42.16 331.18C42.9882 331.527 43.8364 331.824 44.7 332.07C47.22 332.76 49.83 333.78 51.47 335.94C54.04 339.35 53.2 344.12 53.82 348.35C54.56 353.41 57.21 356.6 63.71 359.62L88.42 349.73C94.96 342.54 94.94 327.24 86.14 321.78C84.27 320.62 82.08 319.84 80.67 318.15C78.96 316.1 78.77 313.2 78.92 310.54C79.07 307.88 79.46 305.13 78.62 302.6C77.45 299.08 74.06 296.66 70.48 295.67C66.3 294.51 61.86 295.82 57.97 293.95C54.08 292.08 50.57 289.32 46.49 287.86C42.41 286.4 37.88 286.35 34.23 288.7C33.1738 289.305 32.2829 290.16 31.6358 291.191C30.9887 292.222 30.6055 293.396 30.52 294.61Z" fill="#00B4D8"/>
<path d="M71.41 319.65C71.3803 319.548 71.3253 319.455 71.25 319.38C61.94 303 45.69 294 40.08 292.15C39.9275 292.101 39.7618 292.114 39.6193 292.188C39.4767 292.261 39.3691 292.388 39.32 292.54C39.271 292.693 39.2845 292.858 39.3576 293.001C39.4308 293.143 39.5575 293.251 39.71 293.3C45.02 295.05 60.12 303.3 69.33 318.47C65.15 316.589 60.627 315.589 56.0434 315.534C51.4598 315.479 46.9141 316.37 42.69 318.15C42.5775 318.21 42.4868 318.304 42.4304 318.419C42.3741 318.533 42.3551 318.662 42.3761 318.788C42.397 318.914 42.457 319.03 42.5474 319.12C42.6378 319.21 42.7541 319.27 42.88 319.29C43.0034 319.31 43.1299 319.289 43.24 319.23C43.36 319.17 55.66 313.04 70.39 320.23C75.8123 329.911 77.8996 341.106 76.33 352.09C76.3121 352.24 76.3515 352.392 76.4406 352.514C76.5296 352.637 76.6615 352.721 76.81 352.75C76.8889 352.761 76.9693 352.757 77.0464 352.736C77.1235 352.716 77.1958 352.681 77.2591 352.633C77.3224 352.584 77.3754 352.524 77.4151 352.455C77.4547 352.385 77.4802 352.309 77.49 352.23C79.0958 340.997 76.9592 329.548 71.41 319.65Z" fill="white"/>
<path d="M253.72 312.06L253.56 313.45C253.532 313.806 253.587 314.164 253.72 314.496C253.854 314.827 254.063 315.123 254.33 315.36L264 322.6C264.291 322.799 264.629 322.917 264.98 322.944C265.331 322.97 265.683 322.903 266 322.75L362 273.83C362.316 273.639 362.587 273.382 362.794 273.077C363.002 272.771 363.14 272.424 363.2 272.06L363.36 270.68C363.389 270.322 363.334 269.963 363.201 269.629C363.067 269.296 362.858 268.999 362.59 268.76L352.95 261.52C352.659 261.321 352.321 261.202 351.97 261.176C351.619 261.15 351.267 261.217 350.95 261.37L254.95 310.29C254.628 310.477 254.351 310.733 254.139 311.039C253.926 311.344 253.783 311.693 253.72 312.06Z" fill="#37474F"/>
<path d="M254.78 311.52L264.42 318.76C264.713 318.953 265.051 319.069 265.401 319.095C265.751 319.121 266.102 319.057 266.42 318.91L362.42 269.99C362.548 269.955 362.663 269.882 362.749 269.782C362.836 269.681 362.891 269.557 362.907 269.425C362.923 269.293 362.9 269.16 362.84 269.041C362.78 268.923 362.686 268.825 362.57 268.76L352.93 261.52C352.639 261.321 352.301 261.202 351.95 261.176C351.599 261.15 351.247 261.217 350.93 261.37L254.93 310.29C254.802 310.325 254.687 310.398 254.601 310.498C254.514 310.599 254.459 310.723 254.443 310.855C254.427 310.987 254.451 311.12 254.511 311.239C254.57 311.357 254.664 311.455 254.78 311.52Z" fill="#455A64"/>
<path d="M265.37 319.09L264.93 322.93C264.572 322.918 264.225 322.803 263.93 322.6L254.3 315.37C254.03 315.132 253.819 314.835 253.684 314.502C253.548 314.169 253.492 313.809 253.52 313.45L253.68 312.06C253.792 311.409 254.15 310.825 254.68 310.43C254.59 310.493 254.518 310.578 254.471 310.677C254.424 310.776 254.402 310.885 254.409 310.995C254.416 311.104 254.451 311.21 254.511 311.302C254.571 311.394 254.653 311.469 254.75 311.52L264.39 318.76C264.682 318.954 265.02 319.068 265.37 319.09Z" fill="#263238"/>
<path d="M405.65 20.16L269.65 89.46L235 290.38L241.93 295.57L377.93 226.27L412.58 25.36L405.65 20.16Z" fill="#F5F5F5"/>
<path d="M400.11 42.45L391.42 46.88L362.92 214.47L369.85 219.66L400.11 42.45Z" fill="#00B4D8"/>
<path opacity="0.5" d="M400.11 42.45L391.42 46.88L362.92 214.47L369.85 219.66L400.11 42.45Z" fill="black"/>
<path d="M256.05 268.91L362.92 214.47L369.85 219.66L254.42 278.48L256.05 268.91Z" fill="#00B4D8"/>
<path opacity="0.15" d="M256.05 268.91L362.92 214.47L369.85 219.66L254.42 278.48L256.05 268.91Z" fill="black"/>
<path d="M272 175.53L378.87 121.08L385.8 126.28L270.37 185.09L272 175.53Z" fill="#00B4D8"/>
<path opacity="0.15" d="M272 175.53L378.87 121.08L385.8 126.28L270.37 185.09L272 175.53Z" fill="black"/>
<path d="M276.55 94.66L242 295.57L378 226.27L412.58 25.36L276.55 94.66ZM400.11 42.46L385.8 126.28L270.37 185.09L284.68 101.27L400.11 42.46ZM254.42 278.46L268.74 194.63L384.16 135.82L369.85 219.64L254.42 278.46Z" fill="#00B4D8"/>
<path opacity="0.3" d="M276.55 94.66L242 295.57L378 226.27L412.58 25.36L276.55 94.66ZM400.11 42.46L385.8 126.28L270.37 185.09L284.68 101.27L400.11 42.46ZM254.42 278.46L268.74 194.63L384.16 135.82L369.85 219.64L254.42 278.46Z" fill="black"/>
<path d="M269.63 89.46L276.55 94.66L241.96 295.57L235.03 290.38L269.63 89.46Z" fill="#E0E0E0"/>
<path d="M276 97.9C278.1 94.74 280.86 93.81 281.88 96.34L282.19 97.11C283.4 100.11 287.07 98.25 289.19 93.55L289.73 92.35C291.84 87.65 295.5 85.78 296.73 88.79L297.04 89.55C298.25 92.55 301.92 90.69 304.04 85.99L304.57 84.8C306.68 80.1 310.34 78.23 311.57 81.24L311.88 82C313.09 85 316.76 83.14 318.88 78.44L319.41 77.25C321.52 72.55 325.19 70.68 326.41 73.69L326.72 74.45C327.93 77.45 331.6 75.59 333.72 70.89L334.25 69.69C336.36 64.99 340.03 63.13 341.25 66.13L341.56 66.9C342.77 69.9 346.44 68.04 348.56 63.34L349.09 62.14C351.2 57.44 354.87 55.58 356.09 58.58L356.4 59.35C357.62 62.35 361.28 60.49 363.4 55.79L363.93 54.59C366.04 49.89 369.71 48.02 370.93 51.03L371.24 51.8C372.46 54.8 376.12 52.94 378.24 48.24L378.78 47.04C380.88 42.34 384.55 40.47 385.78 43.48L386.09 44.24C387.31 47.24 390.97 45.39 393.09 40.68L393.63 39.49C395.74 34.79 399.4 32.92 400.63 35.93L400.94 36.69C402.16 39.69 405.82 37.83 407.94 33.13L408.48 31.94C409.235 29.948 410.646 28.2726 412.48 27.19L412.8 25.36L276.8 94.66L276 97.9Z" fill="#EBEBEB"/>
<path d="M378 226.27L387.89 168.85L412.58 25.36L410.5 26.42C410.128 27.0974 409.697 27.7399 409.21 28.34L408.45 29.28C405.45 32.94 404.45 38.57 406.6 40.01L407.14 40.38C409.25 41.82 408.28 47.45 405.29 51.12L404.52 52.05C401.52 55.72 400.52 61.35 402.67 62.79L403.21 63.15C405.32 64.6 404.35 70.23 401.36 73.89L400.6 74.83C397.6 78.49 396.6 84.12 398.75 85.56L399.29 85.93C401.4 87.37 400.43 93 397.44 96.67L396.68 97.6C393.68 101.27 392.68 106.9 394.83 108.34L395.36 108.7C397.48 110.15 396.51 115.77 393.51 119.44L392.75 120.37C389.75 124.04 388.75 129.67 390.9 131.11L391.44 131.48C393.55 132.92 392.58 138.55 389.59 142.22L388.83 143.15C385.83 146.82 384.83 152.44 386.98 153.89L387.52 154.25C389.63 155.69 388.66 161.32 385.67 164.99L384.91 165.92C381.91 169.59 380.91 175.22 383.06 176.66L383.59 177.03C385.7 178.47 384.74 184.1 381.74 187.77L380.98 188.7C377.98 192.36 376.98 197.99 379.13 199.44L379.67 199.8C381.78 201.24 380.81 206.87 377.82 210.54L377.06 211.47C374.06 215.14 373.06 220.77 375.21 222.21L375.75 222.58C376.75 223.27 377.06 224.94 376.75 226.88L378 226.27Z" fill="#EBEBEB"/>
<path d="M243.15 295C243.571 292.739 244.543 290.616 245.98 288.82L246.74 287.89C249.74 284.22 250.74 278.6 248.59 277.15L248.05 276.79C245.94 275.35 246.91 269.72 249.9 266.05L250.66 265.12C253.66 261.45 254.66 255.82 252.51 254.38L252 254C249.89 252.56 250.86 246.93 253.85 243.27L254.62 242.33C257.62 238.67 258.62 233.04 256.46 231.59L255.93 231.23C253.82 229.79 254.79 224.16 257.78 220.49L258.54 219.56C261.54 215.89 262.54 210.26 260.39 208.82L259.85 208.45C257.74 207.01 258.71 201.38 261.7 197.72L262.46 196.78C265.46 193.12 266.46 187.49 264.31 186.05L263.77 185.68C261.66 184.24 262.63 178.61 265.62 174.94L266.38 174.01C269.38 170.34 270.38 164.71 268.23 163.27L267.7 162.9C265.58 161.46 266.55 155.83 269.54 152.17L270.31 151.23C273.31 147.57 274.31 141.94 272.16 140.5L271.62 140.13C269.51 138.69 270.48 133.06 273.47 129.39L274.23 128.46C277.23 124.79 278.23 119.16 276.08 117.72L275.54 117.35C273.43 115.91 274.4 110.28 277.39 106.62L278.15 105.68C281.15 102.02 282.15 96.39 280 94.95L279.46 94.58C279.12 94.3225 278.857 93.9766 278.7 93.58L276.59 94.66L242 295.57L243.15 295Z" fill="#EBEBEB"/>
<path d="M378.28 224.44C376.89 225.22 375.6 224.98 374.97 223.44L374.66 222.68C373.44 219.68 369.78 221.54 367.66 226.24L367.12 227.44C365.02 232.14 361.35 234 360.12 231L359.81 230.23C358.59 227.23 354.93 229.09 352.81 233.79L352.27 234.99C350.16 239.69 346.5 241.55 345.27 238.55L344.96 237.78C343.74 234.78 340.08 236.64 337.96 241.34L337.42 242.54C335.31 247.24 331.65 249.11 330.42 246.1L330.12 245.33C328.9 242.33 325.24 244.19 323.12 248.89L322.58 250.09C320.47 254.79 316.81 256.66 315.58 253.65L315.28 252.89C314.06 249.89 310.4 251.74 308.28 256.45L307.74 257.64C305.63 262.34 301.97 264.21 300.74 261.2L300.43 260.44C299.22 257.44 295.56 259.3 293.43 264L292.89 265.19C290.78 269.89 287.12 271.76 285.89 268.75L285.58 267.99C284.37 264.99 280.71 266.85 278.58 271.55L278.04 272.74C275.93 277.45 272.27 279.31 271.04 276.3L270.73 275.54C269.52 272.54 265.85 274.4 263.73 279.1L263.19 280.3C261.08 285 257.42 286.86 256.19 283.86L255.88 283.09C254.67 280.09 251 281.95 248.88 286.65L248.35 287.85C246.63 291.68 243.87 293.63 242.26 292.58L241.74 295.58L377.74 226.28L378.02 224.64L378.28 224.44Z" fill="#EBEBEB"/>
<path d="M372.47 224.76C372.438 225.155 372.32 225.539 372.125 225.884C371.93 226.229 371.662 226.528 371.34 226.76C370.82 227.03 370.47 226.59 370.56 225.76C370.598 225.374 370.718 225.001 370.911 224.665C371.104 224.329 371.366 224.037 371.68 223.81C372.21 223.51 372.56 224 372.47 224.76Z" fill="#455A64"/>
<path d="M357.62 232.32C357.591 232.715 357.476 233.099 357.283 233.445C357.089 233.79 356.822 234.089 356.5 234.32C355.97 234.59 355.62 234.15 355.72 233.32C355.75 232.925 355.866 232.542 356.06 232.197C356.253 231.851 356.519 231.552 356.84 231.32C357.37 231.07 357.72 231.51 357.62 232.32Z" fill="#455A64"/>
<path d="M342.78 239.89C342.749 240.284 342.633 240.667 342.439 241.013C342.246 241.358 341.98 241.657 341.66 241.89C341.13 242.16 340.78 241.72 340.87 240.89C340.902 240.495 341.02 240.111 341.215 239.766C341.41 239.421 341.678 239.122 342 238.89C342.52 238.63 342.87 239.07 342.78 239.89Z" fill="#455A64"/>
<path d="M327.94 247.45C327.906 247.845 327.788 248.228 327.593 248.573C327.398 248.918 327.131 249.217 326.81 249.45C326.29 249.71 325.94 249.27 326.03 248.45C326.064 248.056 326.182 247.674 326.375 247.33C326.568 246.985 326.832 246.685 327.15 246.45C327.68 246.19 328 246.64 327.94 247.45Z" fill="#455A64"/>
<path d="M313.09 255C313.06 255.395 312.944 255.778 312.751 256.124C312.557 256.469 312.291 256.768 311.97 257C311.44 257.27 311.09 256.82 311.19 256C311.22 255.605 311.335 255.222 311.529 254.876C311.722 254.531 311.989 254.232 312.31 254C312.84 253.76 313.19 254.2 313.09 255Z" fill="#455A64"/>
<path d="M298.25 262.57C298.218 262.964 298.101 263.347 297.907 263.692C297.714 264.037 297.449 264.336 297.13 264.57C296.6 264.84 296.25 264.4 296.34 263.57C296.371 263.174 296.488 262.79 296.684 262.445C296.879 262.099 297.147 261.801 297.47 261.57C298 261.32 298.34 261.76 298.25 262.57Z" fill="#455A64"/>
<path d="M283.41 270.14C283.371 270.527 283.25 270.9 283.055 271.237C282.86 271.573 282.596 271.864 282.28 272.09C281.76 272.36 281.41 271.92 281.5 271.09C281.532 270.696 281.649 270.313 281.843 269.968C282.036 269.623 282.301 269.324 282.62 269.09C283.15 268.88 283.5 269.32 283.41 270.14Z" fill="#455A64"/>
<path d="M268.56 277.7C268.524 278.086 268.405 278.46 268.212 278.797C268.019 279.133 267.756 279.424 267.44 279.65C266.91 279.92 266.56 279.48 266.66 278.65C266.689 278.255 266.804 277.871 266.997 277.525C267.191 277.18 267.458 276.881 267.78 276.65C268.31 276.44 268.66 276.88 268.56 277.7Z" fill="#455A64"/>
<path d="M253.72 285.26C253.686 285.654 253.568 286.036 253.375 286.38C253.182 286.725 252.918 287.025 252.6 287.26C252.07 287.52 251.72 287.08 251.81 286.26C251.844 285.865 251.962 285.482 252.157 285.137C252.352 284.792 252.619 284.493 252.94 284.26C253.46 284 253.81 284.45 253.72 285.26Z" fill="#455A64"/>
<path d="M405 33.59C404.968 33.9843 404.852 34.3671 404.658 34.7122C404.465 35.0574 404.2 35.3568 403.88 35.59C403.35 35.85 403 35.41 403.1 34.59C403.13 34.1952 403.246 33.8117 403.439 33.4662C403.633 33.1208 403.899 32.8217 404.22 32.59C404.73 32.33 405.08 32.78 405 33.59Z" fill="#455A64"/>
<path d="M390.14 41.15C390.106 41.5449 389.988 41.928 389.793 42.2731C389.598 42.6182 389.331 42.9173 389.01 43.15C388.49 43.42 388.14 42.97 388.23 42.15C388.264 41.755 388.382 41.372 388.577 41.0268C388.772 40.6817 389.039 40.3827 389.36 40.15C389.88 39.9 390.23 40.34 390.14 41.15Z" fill="#455A64"/>
<path d="M375.29 48.71C375.262 49.1051 375.146 49.4891 374.953 49.8347C374.759 50.1804 374.492 50.4792 374.17 50.71C373.64 50.98 373.29 50.54 373.39 49.71C373.419 49.315 373.535 48.9313 373.728 48.5857C373.922 48.2402 374.189 47.9413 374.51 47.71C375 47.46 375.39 47.9 375.29 48.71Z" fill="#455A64"/>
<path d="M360.45 56.27C360.42 56.6646 360.303 57.0479 360.11 57.3932C359.917 57.7386 359.651 58.0378 359.33 58.27C358.8 58.54 358.45 58.1 358.55 57.27C358.579 56.8749 358.694 56.4909 358.887 56.1452C359.081 55.7996 359.348 55.5008 359.67 55.27C360.19 55 360.54 55.46 360.45 56.27Z" fill="#455A64"/>
<path d="M345.61 63.84C345.579 64.2356 345.462 64.6196 345.267 64.9651C345.071 65.3106 344.803 65.6092 344.48 65.84C343.96 66.11 343.61 65.67 343.7 64.84C343.733 64.4447 343.85 64.0611 344.045 63.7158C344.241 63.3705 344.508 63.0717 344.83 62.84C345.35 62.58 345.7 63 345.61 63.84Z" fill="#455A64"/>
<path d="M330.76 71.3999C330.73 71.7947 330.614 72.1782 330.421 72.5237C330.228 72.8691 329.961 73.1682 329.64 73.4C329.11 73.66 328.76 73.2199 328.86 72.4C328.892 72.0056 329.008 71.6228 329.202 71.2777C329.395 70.9325 329.661 70.6331 329.98 70.3999C330.51 70.1399 330.86 70.5899 330.76 71.3999Z" fill="#455A64"/>
<path d="M315.92 79C315.888 79.3943 315.772 79.7771 315.578 80.1222C315.385 80.4674 315.12 80.7668 314.8 81C314.27 81.27 313.92 80.82 314.02 80C314.05 79.6052 314.166 79.2217 314.359 78.8762C314.552 78.5308 314.819 78.2317 315.14 78C315.66 77.71 316 78.15 315.92 79Z" fill="#455A64"/>
<path d="M301.08 86.52C301.048 86.9152 300.93 87.2988 300.735 87.6441C300.54 87.9894 300.272 88.2882 299.95 88.52C299.43 88.79 299.08 88.35 299.17 87.52C299.208 87.1331 299.329 86.7588 299.524 86.4224C299.719 86.086 299.983 85.7954 300.3 85.57C300.82 85.27 301.17 85.71 301.08 86.52Z" fill="#455A64"/>
<path d="M286.23 94.09C286.202 94.4851 286.086 94.8691 285.893 95.2148C285.699 95.5604 285.432 95.8592 285.11 96.09C284.58 96.36 284.23 95.92 284.33 95.09C284.361 94.6954 284.477 94.3121 284.67 93.9668C284.863 93.6214 285.13 93.3222 285.45 93.09C286 92.83 286.33 93.27 286.23 94.09Z" fill="#455A64"/>
<path d="M279.25 99.74C279.216 100.135 279.098 100.518 278.903 100.863C278.708 101.208 278.441 101.507 278.12 101.74C277.6 102 277.25 101.56 277.34 100.74C277.374 100.345 277.492 99.9619 277.687 99.6168C277.882 99.2717 278.149 98.9726 278.47 98.74C279 98.48 279.34 98.92 279.25 99.74Z" fill="#455A64"/>
<path d="M275.34 122.49C275.31 122.885 275.194 123.268 275.001 123.614C274.807 123.959 274.541 124.258 274.22 124.49C273.69 124.76 273.34 124.31 273.44 123.49C273.472 123.096 273.588 122.713 273.782 122.368C273.975 122.023 274.24 121.723 274.56 121.49C275.09 121.23 275.44 121.68 275.34 122.49Z" fill="#455A64"/>
<path d="M271.44 145.24C271.408 145.634 271.292 146.017 271.098 146.362C270.905 146.707 270.64 147.007 270.32 147.24C269.79 147.51 269.44 147.07 269.53 146.24C269.564 145.845 269.682 145.462 269.877 145.117C270.072 144.772 270.339 144.473 270.66 144.24C271.18 144 271.53 144.43 271.44 145.24Z" fill="#455A64"/>
<path d="M267.54 168C267.508 168.395 267.39 168.779 267.195 169.124C267 169.469 266.732 169.768 266.41 170C265.89 170.27 265.54 169.83 265.63 169C265.661 168.606 265.778 168.222 265.971 167.877C266.164 167.532 266.43 167.233 266.75 167C267.28 166.74 267.63 167.18 267.54 168Z" fill="#455A64"/>
<path d="M263.63 190.75C263.594 191.136 263.475 191.51 263.282 191.847C263.089 192.183 262.825 192.474 262.51 192.7C261.98 192.97 261.63 192.53 261.73 191.7C261.758 191.305 261.874 190.921 262.067 190.575C262.261 190.23 262.528 189.931 262.85 189.7C263.38 189.49 263.73 189.93 263.63 190.75Z" fill="#455A64"/>
<path d="M259.73 213.5C259.696 213.895 259.578 214.278 259.383 214.623C259.188 214.968 258.921 215.267 258.6 215.5C258.08 215.76 257.73 215.32 257.82 214.5C257.854 214.105 257.972 213.722 258.167 213.377C258.362 213.032 258.629 212.733 258.95 212.5C259.47 212.24 259.82 212.68 259.73 213.5Z" fill="#455A64"/>
<path d="M255.82 236.25C255.79 236.645 255.674 237.028 255.481 237.374C255.287 237.719 255.021 238.018 254.7 238.25C254.17 238.52 253.82 238.07 253.92 237.25C253.952 236.856 254.068 236.473 254.262 236.128C254.455 235.783 254.72 235.483 255.04 235.25C255.57 235 255.92 235.44 255.82 236.25Z" fill="#455A64"/>
<path d="M251.92 259C251.886 259.394 251.768 259.776 251.575 260.12C251.382 260.465 251.118 260.765 250.8 261C250.27 261.27 249.92 260.83 250.01 260C250.044 259.605 250.162 259.222 250.357 258.877C250.552 258.532 250.819 258.233 251.14 258C251.66 257.75 252 258.19 251.92 259Z" fill="#455A64"/>
<path d="M248 281.75C247.972 282.145 247.856 282.529 247.663 282.875C247.469 283.22 247.202 283.519 246.88 283.75C246.36 284.02 246.01 283.58 246.1 282.75C246.129 282.355 246.245 281.971 246.438 281.626C246.632 281.28 246.899 280.981 247.22 280.75C247.76 280.5 248.11 280.94 248 281.75Z" fill="#455A64"/>
<path d="M409.29 34.11C409.258 34.5043 409.142 34.8871 408.948 35.2322C408.755 35.5774 408.49 35.8768 408.17 36.11C407.64 36.37 407.29 35.93 407.39 35.11C407.42 34.7152 407.536 34.3317 407.729 33.9862C407.923 33.6408 408.189 33.3417 408.51 33.11C409 32.85 409.39 33.3 409.29 34.11Z" fill="#455A64"/>
<path d="M405.39 56.8599C405.356 57.2549 405.238 57.638 405.043 57.9831C404.848 58.3282 404.581 58.6273 404.26 58.8599C403.74 59.1299 403.39 58.6799 403.48 57.8599C403.514 57.465 403.632 57.0819 403.827 56.7368C404.022 56.3917 404.289 56.0926 404.61 55.8599C405.13 55.6099 405.48 56.0499 405.39 56.8599Z" fill="#455A64"/>
<path d="M401.48 79.6099C401.452 80.0051 401.336 80.3891 401.143 80.7347C400.949 81.0803 400.682 81.3792 400.36 81.6099C399.83 81.8799 399.48 81.4399 399.58 80.6099C399.609 80.215 399.725 79.8312 399.918 79.4857C400.112 79.1402 400.379 78.8412 400.7 78.6099C401.23 78.3599 401.58 78.7999 401.48 79.6099Z" fill="#455A64"/>
<path d="M397.58 102.36C397.55 102.755 397.434 103.138 397.24 103.483C397.047 103.829 396.781 104.128 396.46 104.36C395.93 104.63 395.58 104.19 395.67 103.36C395.702 102.965 395.82 102.581 396.015 102.236C396.21 101.891 396.478 101.592 396.8 101.36C397.32 101.11 397.67 101.55 397.58 102.36Z" fill="#455A64"/>
<path d="M393.68 125.12C393.642 125.507 393.521 125.881 393.326 126.218C393.132 126.554 392.867 126.845 392.55 127.07C392.03 127.34 391.68 126.9 391.77 126.07C391.802 125.676 391.919 125.293 392.113 124.948C392.306 124.603 392.571 124.304 392.89 124.07C393.42 123.86 393.77 124.3 393.68 125.12Z" fill="#455A64"/>
<path d="M389.77 147.87C389.738 148.264 389.622 148.647 389.428 148.992C389.235 149.337 388.97 149.637 388.65 149.87C388.12 150.13 387.77 149.69 387.87 148.87C387.9 148.475 388.016 148.092 388.209 147.746C388.403 147.401 388.669 147.102 388.99 146.87C389.52 146.61 389.87 147.06 389.77 147.87Z" fill="#455A64"/>
<path d="M385.87 170.62C385.836 171.015 385.718 171.398 385.523 171.743C385.328 172.088 385.061 172.387 384.74 172.62C384.22 172.89 383.87 172.44 383.96 171.62C383.994 171.225 384.112 170.842 384.307 170.497C384.502 170.152 384.769 169.853 385.09 169.62C385.61 169.37 386 169.81 385.87 170.62Z" fill="#455A64"/>
<path d="M382 193.37C381.972 193.765 381.856 194.149 381.663 194.495C381.469 194.84 381.202 195.139 380.88 195.37C380.35 195.64 380 195.2 380.1 194.37C380.129 193.975 380.245 193.591 380.438 193.246C380.632 192.9 380.899 192.601 381.22 192.37C381.71 192.12 382.06 192.56 382 193.37Z" fill="#455A64"/>
<path d="M378.06 216.12C378.028 216.514 377.911 216.897 377.718 217.242C377.524 217.587 377.259 217.886 376.94 218.12C376.41 218.39 376.06 217.95 376.15 217.12C376.182 216.725 376.3 216.341 376.495 215.996C376.69 215.651 376.958 215.352 377.28 215.12C377.8 214.87 378.15 215.31 378.06 216.12Z" fill="#455A64"/>
<path d="M375.55 140.23L268.74 194.65L267.1 204.21L373.92 149.78L375.55 140.23Z" fill="#E0E0E0"/>
<path d="M391.42 46.88L284.61 101.31L282.98 110.86L389.8 56.44L391.42 46.88Z" fill="#E0E0E0"/>
<path d="M313.3 105.1L252.79 386.06L256.55 388.5L316.76 107.7L313.3 105.1Z" fill="#00B4D8"/>
<path opacity="0.25" d="M313.3 105.1L252.79 386.06L256.55 388.5L316.76 107.7L313.3 105.1Z" fill="black"/>
<path opacity="0.2" d="M315.61 113.05L312.07 110.78L312.24 110L316.76 107.7L315.61 113.05Z" fill="black"/>
<path d="M256.55 388.5L260.55 386.46L320.75 105.66L316.76 107.7L256.55 388.5Z" fill="#00B4D8"/>
<path opacity="0.05" d="M256.55 388.5L260.55 386.46L299.41 205.21L295.42 207.24L256.55 388.5Z" fill="black"/>
<path d="M347.92 87.4L352.8 335.1L356.56 337.55L351.39 90L347.92 87.4Z" fill="#00B4D8"/>
<path opacity="0.25" d="M347.92 87.4L352.8 335.1L356.56 337.55L351.39 90L347.92 87.4Z" fill="black"/>
<path opacity="0.2" d="M351.48 94.72L348.02 92.5L348.01 91.72L351.39 90L351.48 94.72Z" fill="black"/>
<path d="M356.56 337.55L360.56 335.51L355.38 87.96L351.39 90L356.56 337.55Z" fill="#00B4D8"/>
<path opacity="0.05" d="M356.56 337.55L360.56 335.51L357.21 175.75L353.25 177.77L356.56 337.55Z" fill="black"/>
<path d="M291.87 204.58L301.74 417.85L305.5 420.29L295.42 207.24L291.87 204.58Z" fill="#00B4D8"/>
<path opacity="0.25" d="M291.87 204.58L301.74 417.85L305.5 420.29L295.42 207.24L291.87 204.58Z" fill="black"/>
<path d="M305.5 420.29L309.5 418.25L299.41 205.21L295.42 207.24L305.5 420.29Z" fill="#00B4D8"/>
<path opacity="0.4" d="M305.5 420.29L309.5 418.25L299.41 205.21L295.42 207.24L305.5 420.29Z" fill="white"/>
<path d="M349.65 175.43L401.75 366.89L405.51 369.33L353.25 177.77L349.65 175.43Z" fill="#00B4D8"/>
<path opacity="0.25" d="M349.65 175.43L401.75 366.89L405.51 369.33L353.25 177.77L349.65 175.43Z" fill="black"/>
<path d="M405.51 369.33L409.51 367.3L357.21 175.75L353.25 177.77L405.51 369.33Z" fill="#00B4D8"/>
<path opacity="0.4" d="M405.51 369.33L409.51 367.3L357.21 175.75L353.25 177.77L405.51 369.33Z" fill="white"/>
<path d="M296.63 116.55L295.35 115.55C295.009 115.261 294.741 114.896 294.567 114.484C294.394 114.073 294.319 113.626 294.35 113.18L298.13 91C298.201 90.55 298.37 90.1212 298.626 89.7443C298.882 89.3674 299.218 89.0518 299.61 88.82L372.07 51.82C372.459 51.643 372.887 51.5668 373.313 51.5982C373.739 51.6297 374.151 51.7678 374.51 52L375.78 53C376.121 53.289 376.389 53.654 376.563 54.0657C376.736 54.4774 376.811 54.9242 376.78 55.37L373 77.53C372.924 77.9793 372.751 78.4068 372.494 78.7831C372.236 79.1593 371.901 79.4755 371.51 79.71L299.05 116.71C298.666 116.888 298.242 116.967 297.82 116.939C297.397 116.911 296.988 116.777 296.63 116.55Z" fill="#00B4D8"/>
<path d="M297.93 115.89L301.71 93.7099C301.782 93.2591 301.953 92.8297 302.21 92.4528C302.468 92.0758 302.806 91.7607 303.2 91.5299L375.66 54.5299C376.38 54.1599 376.88 54.5299 376.79 55.3799L373 77.5299C372.923 77.9793 372.751 78.4067 372.494 78.783C372.236 79.1593 371.901 79.4755 371.51 79.7099L299.05 116.71C298.34 117.1 297.84 116.72 297.93 115.89Z" fill="#00B4D8"/>
<path opacity="0.1" d="M297.93 115.89L301.71 93.7099C301.782 93.2591 301.953 92.8297 302.21 92.4528C302.468 92.0758 302.806 91.7607 303.2 91.5299L375.66 54.5299C376.38 54.1599 376.88 54.5299 376.79 55.3799L373 77.5299C372.923 77.9793 372.751 78.4067 372.494 78.783C372.236 79.1593 371.901 79.4755 371.51 79.7099L299.05 116.71C298.34 117.1 297.84 116.72 297.93 115.89Z" fill="black"/>
<path opacity="0.2" d="M355.38 87.96L351.39 90L351.48 94.72L355.48 92.68L355.38 87.96Z" fill="black"/>
<path opacity="0.2" d="M315.61 113.05L319.6 111.02L320.75 105.66L316.76 107.7L315.61 113.05Z" fill="black"/>
<path opacity="0.2" d="M302.22 92.44L298.68 89.79C298.417 90.1651 298.246 90.5967 298.18 91.05L294.4 113.23C294.368 113.674 294.441 114.12 294.615 114.531C294.789 114.941 295.058 115.304 295.4 115.59L296.68 116.59C296.993 116.797 297.349 116.931 297.721 116.983C298.093 117.035 298.472 117.003 298.83 116.89C298.26 117.03 297.9 116.65 297.98 115.89L301.76 93.71C301.815 93.2572 301.972 92.8228 302.22 92.44Z" fill="black"/>
<path d="M128.67 246.58V369.72C128.661 370.104 128.762 370.483 128.963 370.811C129.163 371.139 129.454 371.403 129.8 371.57C130.46 371.918 131.194 372.099 131.94 372.099C132.686 372.099 133.42 371.918 134.08 371.57C134.423 371.398 134.711 371.133 134.912 370.807C135.114 370.48 135.22 370.104 135.22 369.72V246.58H128.67Z" fill="#37474F"/>
<path d="M103.26 236.2L86.6801 350.52C86.6393 350.928 86.7248 351.339 86.9252 351.696C87.1255 352.054 87.4309 352.342 87.8001 352.52C88.4598 352.868 89.1944 353.049 89.9401 353.049C90.6859 353.049 91.4204 352.868 92.0801 352.52C92.3973 352.351 92.6669 352.104 92.8643 351.804C93.0617 351.504 93.1806 351.158 93.2101 350.8L109.84 236.2H103.26Z" fill="#37474F"/>
<path d="M177.38 350.53L160.91 236.93L160.8 236.2H154.22L170.85 350.82C170.89 351.172 171.013 351.509 171.209 351.803C171.406 352.097 171.67 352.339 171.98 352.51C172.64 352.858 173.374 353.039 174.12 353.039C174.866 353.039 175.6 352.858 176.26 352.51C176.626 352.333 176.929 352.048 177.129 351.695C177.329 351.341 177.417 350.935 177.38 350.53Z" fill="#37474F"/>
<path d="M100.18 204.15C117.46 194.15 145.48 194.15 162.76 204.15C171.4 209.15 175.76 215.67 175.76 222.21V230.21C175.76 236.75 171.45 243.29 162.76 248.27C145.48 258.27 117.46 258.27 100.18 248.27C91.5402 243.27 87.1802 236.75 87.1802 230.21V222.21C87.2302 215.67 91.5402 209.13 100.18 204.15Z" fill="#455A64"/>
<path d="M100.18 200.25C117.46 190.25 145.48 190.25 162.76 200.25C171.4 205.25 175.76 211.77 175.76 218.31V226.31C175.76 232.85 171.45 239.39 162.76 244.37C145.48 254.37 117.46 254.37 100.18 244.37C91.5402 239.37 87.1802 232.85 87.1802 226.31V218.31C87.2302 211.77 91.5402 205.23 100.18 200.25Z" fill="#00B4D8"/>
<g opacity="0.4">
<path d="M100.18 200.25C117.46 190.25 145.48 190.25 162.76 200.25C171.4 205.25 175.76 211.77 175.76 218.31V226.31C175.76 232.85 171.45 239.39 162.76 244.37C145.48 254.37 117.46 254.37 100.18 244.37C91.5402 239.37 87.1802 232.85 87.1802 226.31V218.31C87.2302 211.77 91.5402 205.23 100.18 200.25Z" fill="black"/>
</g>
<path d="M131.47 243.86C155.909 243.86 175.72 232.421 175.72 218.31C175.72 204.199 155.909 192.76 131.47 192.76C107.032 192.76 87.2202 204.199 87.2202 218.31C87.2202 232.421 107.032 243.86 131.47 243.86Z" fill="#00B4D8"/>
<g opacity="0.2">
<path d="M131.47 243.86C155.909 243.86 175.72 232.421 175.72 218.31C175.72 204.199 155.909 192.76 131.47 192.76C107.032 192.76 87.2202 204.199 87.2202 218.31C87.2202 232.421 107.032 243.86 131.47 243.86Z" fill="black"/>
</g>
<path d="M161.66 277.28C156.66 276.06 151.91 279.64 151.36 280.89C150.61 282.58 150.42 286.14 152.01 290.73C153.344 295.275 153.601 300.068 152.76 304.73C151.96 308.68 148.98 318.45 152.47 323.9C155.96 329.35 164.47 334.67 168.38 328.15C169.66 326.02 168.38 318.02 168.08 312.24C167.44 300.73 167.21 289.34 167.21 289.34L161.66 277.28Z" fill="#263238"/>
<path opacity="0.15" d="M153.25 279.07C152.62 282.78 153.91 291.93 158.07 300.78C162.15 309.46 168.07 320.78 168.79 326.78C169.21 324.12 168.62 319.11 168.25 314.66C168.25 314.57 168.25 314.47 168.25 314.37L168.19 313.6C168.19 313.49 168.19 313.37 168.19 313.25C168.19 312.92 168.14 312.6 168.12 312.25V312.19C167.92 308.59 167.76 305.01 167.63 301.78C167.53 299.19 167.45 296.84 167.39 294.89C167.39 293.89 167.39 293.03 167.32 292.28C167.32 291.91 167.32 291.56 167.32 291.28C167.32 290.03 167.32 289.28 167.32 289.28L161.77 277.23C161.43 277.15 161.12 277.1 160.77 277.05C158.102 276.803 155.435 277.52 153.25 279.07Z" fill="black"/>
<path d="M159.1 286.14C159.356 291.721 159.189 297.314 158.6 302.87C157.85 308.93 158.7 313.05 160.5 315.99C162.5 319.22 168.09 321.51 168.08 315.19C168.08 310.79 167.21 289.33 167.21 289.33L159.1 286.14Z" fill="#B16668"/>
<path d="M166.44 319C167.44 318.56 168.08 317.42 168.08 315.22C168.08 314.22 168.03 312.36 167.96 310.07C167.82 307.22 167.69 304.42 167.59 301.85C167.49 299.28 167.41 296.91 167.35 294.96C167.35 293.96 167.35 293.1 167.28 292.35C167.28 291.98 167.28 291.63 167.28 291.35C167.28 290.13 167.28 289.42 167.28 289.35L159.17 286.16C159.411 291.476 159.274 296.803 158.76 302.1C161.25 307.48 164.33 313.69 166.44 319Z" fill="#9A4A4D"/>
<path d="M190.98 270.83L176.6 292.14L163.84 276.25L175.23 250.63L190.98 270.83Z" fill="#B16668"/>
<path d="M174.42 252.45L180.34 286.59L182.45 283.47C182.45 275.63 182.33 265.83 182.11 259.47L175.23 250.64L174.42 252.45Z" fill="#9A4A4D"/>
<path d="M189.09 209.24C179.186 201.785 168.913 194.833 158.31 188.41L139.36 208.25L155.6 224.81L180.6 241.6C177.685 244.486 175.314 247.873 173.6 251.6C172.768 253.389 172.034 255.222 171.4 257.09C175.746 264.127 181.983 269.8 189.4 273.46C189.4 273.46 195.4 266.39 205.25 249.54C213.09 236.17 211.31 230.1 210.06 228.16C206.65 223 204.24 220.92 189.09 209.24Z" fill="#37474F"/>
<path d="M181.89 254.77C181.535 250.915 180.399 247.172 178.55 243.77L178.07 244.35V244.42L177.6 245.02L177.52 245.14C177.36 245.34 177.21 245.55 177.05 245.77L176.96 245.9L176.48 246.59L176.39 246.72L175.89 247.48L175.82 247.6C175.65 247.87 175.47 248.15 175.3 248.44C175.281 248.465 175.264 248.492 175.25 248.52L174.71 249.46C174.52 249.8 174.33 250.15 174.15 250.52L176.42 263.59C178.241 265.615 180.25 267.464 182.42 269.11C182.24 263.05 182.1 257.54 181.89 254.77Z" fill="#263238"/>
<path d="M174.81 237.72C173.51 235.9 172.14 234.15 170.81 232.48C165.64 226.15 154.27 213.08 154.27 213.08L150.92 213.28L160.59 228.14L174.81 237.72Z" fill="#263238"/>
<path d="M169.14 334.69C167.92 334.48 167.61 336.57 166.59 339.16C165.393 341.623 164.964 344.39 165.36 347.1C166.01 350.58 171.26 351.83 173.36 356.59C175.46 361.35 178.41 369.77 187.55 373.45C196.69 377.13 204.47 375.26 206.73 372.74C208.99 370.22 207.88 367.27 202.42 362.74C196.62 357.93 194.99 356.52 194.99 356.52L169.14 334.69Z" fill="#263238"/>
<path d="M181.66 287.36C181.66 287.36 183.87 328.92 186.6 337.3C188.816 343.882 191.903 350.137 195.78 355.9C196.65 357.2 198.69 359.69 199.4 360.74C199.574 360.952 199.699 361.199 199.766 361.465C199.833 361.731 199.84 362.009 199.786 362.278C199.733 362.547 199.62 362.8 199.456 363.02C199.293 363.24 199.082 363.421 198.84 363.55C196.51 365.28 187.64 364.62 183.17 360.29C178.7 355.96 175.17 347.49 172.65 344.14C171.65 342.88 170.79 341.6 169.96 340.26C169.15 339.044 168.796 337.581 168.96 336.13C169.39 333.6 169.66 332.66 169.31 330.39C168.09 322.46 158.92 297.76 158.31 294.62L181.66 287.36Z" fill="#B16668"/>
<path d="M103 186.58C99.89 195.91 97.82 199.07 99.78 209.24C101.74 219.41 111.78 228.86 124.21 238.41C134.49 246.31 148.31 257.22 151.21 259.48C153.74 261.48 155.21 263.72 154.77 269.89C154.34 276.29 155.35 285.36 159.54 300.8C165.47 302.09 174.86 302.67 183 297.5C183 297.5 179.87 258.86 178.11 250.22C176.35 241.58 148.64 210.8 148.64 210.8C148.64 210.8 154.64 197.64 158.36 188.41L103 186.58Z" fill="#37474F"/>
<path d="M159.84 204.91C157.995 208.73 154.783 211.717 150.84 213.28L152.35 215.11C152.35 215.11 158.28 212.76 159.84 204.91Z" fill="#263238"/>
<path d="M168.49 120.9C171.33 120.03 172.64 118.41 173.19 115.06C173.434 113.374 173.25 111.654 172.654 110.058C172.058 108.463 171.069 107.043 169.78 105.93C168.509 104.923 166.99 104.278 165.383 104.063C163.776 103.849 162.141 104.072 160.65 104.71C162.52 99.95 158.65 93.06 153.15 93.48C148.15 93.87 144.95 93.89 141.89 94.03C144.73 88.86 148.04 84.53 153.81 83.63C155.961 83.3112 157.997 82.4524 159.726 81.1339C161.456 79.8153 162.823 78.08 163.7 76.09C165.06 72.6 164.61 68.94 161.59 66.7C162.567 65.3623 163.112 63.7576 163.151 62.1015C163.19 60.4453 162.721 58.8168 161.808 57.4346C160.895 56.0524 159.581 54.9825 158.042 54.3686C156.503 53.7546 154.814 53.626 153.2 54C154.53 51 152.92 47.26 150.14 45.53C147.36 43.8 143.77 43.8 140.64 44.76C137.606 45.8461 134.736 47.3434 132.11 49.21L131.96 49.3C125.09 53.72 117.25 55.08 111.09 60.84C108.269 63.394 106.065 66.5556 104.644 70.0861C103.223 73.6166 102.624 77.4237 102.89 81.22C103.27 89.94 107.73 95.49 112.19 99.97C110.497 101.667 109.276 103.776 108.65 106.09C107.65 110.89 110.91 118.09 117.04 119C115.39 126.38 115.2 133.94 121.82 137.61C125.18 139.391 129.014 140.071 132.782 139.556C136.55 139.042 140.061 137.357 142.82 134.74C145.592 137.854 149.139 140.18 153.1 141.48C157.1 142.69 162.02 143.48 165.72 141.61C169.42 139.74 172.87 135.72 173.56 131.61C174.48 126 172.14 121.61 168.49 120.9Z" fill="#263238"/>
<path d="M118.84 96.17C118.84 96.62 114.62 104.08 108.84 105.17C103.06 106.26 103.84 102.35 106.73 99.5C108.322 97.9963 110.259 96.9064 112.37 96.3258C114.481 95.7452 116.703 95.6917 118.84 96.17Z" fill="#00B4D8"/>
<path opacity="0.3" d="M118.84 96.17C118.84 96.62 114.62 104.08 108.84 105.17C103.06 106.26 103.84 102.35 106.73 99.5C108.322 97.9963 110.259 96.9064 112.37 96.3258C114.481 95.7452 116.703 95.6917 118.84 96.17Z" fill="black"/>
<path d="M119.06 96.1C119.36 96.43 121.85 104.62 118.57 109.55C115.29 114.48 113.07 111.21 113.02 107.15C113.044 104.954 113.608 102.798 114.661 100.871C115.714 98.9444 117.225 97.3059 119.06 96.1Z" fill="#00B4D8"/>
<path opacity="0.4" d="M119.06 96.1C119.36 96.43 121.85 104.62 118.57 109.55C115.29 114.48 113.07 111.21 113.02 107.15C113.044 104.954 113.608 102.798 114.661 100.871C115.714 98.9444 117.225 97.3059 119.06 96.1Z" fill="black"/>
<path opacity="0.2" d="M119.1 97.65V96.51L118.95 96.17L118.81 96.27C118.812 96.2367 118.812 96.2033 118.81 96.17C116.524 95.606 114.127 95.6961 111.89 96.43C114 98.85 117.34 99.54 119.1 97.65Z" fill="black"/>
<path d="M131 49.88C122.6 55.12 116.53 70.41 119.26 86.01C121.99 101.61 110.62 85.01 110.62 85.01C107.009 81.9171 104.564 77.6831 103.69 73.01C103.69 73.01 105.3 65.75 109.88 61.56C116.43 55.57 123.53 53.54 131 49.88Z" fill="#00B4D8"/>
<path opacity="0.3" d="M131 49.88C122.6 55.12 116.53 70.41 119.26 86.01C121.99 101.61 110.62 85.01 110.62 85.01C107.009 81.9171 104.564 77.6831 103.69 73.01C103.69 73.01 105.3 65.75 109.88 61.56C116.43 55.57 123.53 53.54 131 49.88Z" fill="black"/>
<path d="M216.4 105.65C214.398 105.515 212.393 105.857 210.55 106.65C206.23 109.65 204.3 114.16 201.64 118.71L181.24 148C181.24 148 161.38 124.47 157.11 120C152.84 115.53 150.99 115.43 144.48 115V115.87L148.76 141.87C148.76 141.87 163.49 157.32 174.3 166.62C183 174.14 187 170 192 163.38C194.91 159.57 204.94 141.28 209.77 131.97C211.119 129.103 213.22 126.657 215.85 124.89C219.55 122.89 222.98 122.72 227.04 119.43C233.91 113.88 222.55 106.45 216.4 105.65Z" fill="#B16668"/>
<path d="M215.65 113.9L225.91 120.28C225.548 120.436 225.211 120.645 224.91 120.9L219.09 118C217.19 117.07 214.87 115.79 214.87 115.79C214.87 115.79 210.32 115.94 208.23 114.79C206.14 113.64 215.65 113.9 215.65 113.9Z" fill="#9A4A4D"/>
<path d="M151.67 145.16L144.48 114.73C146.31 114.43 149.84 113.41 152.81 113.45C154.42 113.45 156.19 113.86 158.14 116.52C160.31 119.52 178.9 144.43 181.14 147.36L186.39 140.26C187.238 143.997 189.458 147.281 192.61 149.46C198.03 153.39 199.31 152.78 199.31 152.78C199.31 152.78 193.61 162.2 189.97 166.73C186.33 171.26 182.72 173.04 176.45 168.59C169.85 163.94 151.67 145.16 151.67 145.16Z" fill="#455A64"/>
<path d="M181.1 147.36C178.839 150.706 177.431 154.555 177 158.57C177 158.57 174.75 153.14 179.7 145.48L181.1 147.36Z" fill="#37474F"/>
<path d="M243.39 125.75C237.466 121.173 231.3 116.917 224.92 113C217.684 108.772 210.103 105.163 202.26 102.21C202.137 102.174 202.006 102.168 201.88 102.19C201.753 102.213 201.634 102.264 201.53 102.34C201.442 102.403 201.368 102.484 201.311 102.576C201.255 102.669 201.218 102.772 201.202 102.879C201.186 102.986 201.192 103.096 201.219 103.201C201.246 103.305 201.294 103.404 201.36 103.49C201.393 103.546 201.437 103.593 201.49 103.63C201.49 103.63 212.23 113.29 221.49 118.9C227.918 122.691 234.544 126.136 241.34 129.22C241.492 129.276 241.655 129.294 241.815 129.273C241.975 129.252 242.128 129.193 242.26 129.1C242.68 128.838 243.032 128.48 243.288 128.056C243.543 127.632 243.695 127.154 243.73 126.66C243.75 126.492 243.73 126.322 243.67 126.164C243.611 126.005 243.515 125.864 243.39 125.75Z" fill="#00B4D8"/>
<path opacity="0.1" d="M201.31 103.46C201.343 103.516 201.387 103.563 201.44 103.6C201.44 103.6 212.18 113.26 221.44 118.87C227.7 122.65 234.52 126.01 238.31 127.81L239.24 125.41C239.24 125.41 201.11 102.94 201.44 102.31C201.355 102.376 201.284 102.459 201.231 102.553C201.179 102.647 201.145 102.751 201.133 102.858C201.121 102.965 201.131 103.073 201.161 103.177C201.191 103.28 201.242 103.376 201.31 103.46Z" fill="black"/>
<path d="M243.28 128C243.66 128.64 245.73 132.12 248.53 133.09C248.735 132.763 248.999 132.478 249.31 132.25C250.51 131.36 251.48 132.13 252.45 131.56C253.42 130.99 252.61 129.12 252.6 129.1C251.554 127.631 250.08 126.521 248.38 125.92C246.766 125.38 245.031 125.314 243.38 125.73L241.32 129.17L243.28 128Z" fill="#455A64"/>
<path d="M246.52 135.2C247.84 135 247.93 134.04 248.52 133.11C245.72 132.11 243.65 128.66 243.27 128.02L241.32 129.19C241.51 129.6 241.71 130.04 241.94 130.5L242.12 130.85C242.24 131.09 242.38 131.32 242.52 131.56C242.75 131.939 243.003 132.303 243.28 132.65C243.477 132.901 243.691 133.138 243.92 133.36C244.425 133.873 244.985 134.329 245.59 134.72C245.886 134.906 246.197 135.066 246.52 135.2Z" fill="#37474F"/>
<path d="M246.53 135.21C246.697 135.279 246.867 135.339 247.04 135.39H247.09L247.47 135.49H247.62H247.74H247.95H248.21C248.403 135.5 248.597 135.5 248.79 135.49H249.36C249.548 135.481 249.735 135.46 249.92 135.43C251.065 135.252 252.165 134.855 253.16 134.26L253.37 134.12H253.43L253.66 133.95C254.128 133.611 254.563 133.229 254.96 132.81C255.127 132.63 255.287 132.45 255.44 132.27C255.58 132.1 255.7 131.93 255.81 131.78L255.97 131.56C255.97 131.48 256.06 131.42 256.1 131.35C256.14 131.28 256.24 131.12 256.29 131.02C256.344 130.927 256.39 130.83 256.43 130.73C255.912 130.818 255.381 130.79 254.876 130.646C254.371 130.502 253.904 130.247 253.51 129.9C253.178 129.631 252.873 129.33 252.6 129C252.6 129 253.42 130.89 252.45 131.46C251.48 132.03 250.51 131.26 249.31 132.15C248.999 132.378 248.735 132.663 248.53 132.99C247.93 133.92 247.84 134.88 246.53 135.08V135.21Z" fill="#00B4D8"/>
<path opacity="0.1" d="M256.43 130.85C254.708 132.461 252.438 133.358 250.08 133.36C249.553 133.368 249.028 133.283 248.53 133.11C247.93 134.04 247.84 135 246.53 135.2C246.697 135.269 246.867 135.329 247.04 135.38H247.09L247.47 135.48H247.62H247.74H247.95H248.21C248.403 135.49 248.597 135.49 248.79 135.48H249.36C249.548 135.471 249.735 135.45 249.92 135.42C251.065 135.242 252.165 134.845 253.16 134.25L253.37 134.11H253.43L253.66 133.94C254.128 133.601 254.563 133.219 254.96 132.8C255.127 132.62 255.287 132.44 255.44 132.26C255.58 132.09 255.7 131.92 255.81 131.77L255.97 131.55C255.97 131.47 256.06 131.41 256.1 131.34C256.14 131.27 256.24 131.11 256.29 131.01C256.344 130.917 256.39 130.82 256.43 130.72V130.85Z" fill="black"/>
<path d="M241.33 129.19C241.482 129.246 241.644 129.264 241.805 129.243C241.965 129.222 242.118 129.163 242.25 129.07C242.67 128.808 243.022 128.45 243.278 128.026C243.533 127.602 243.685 127.124 243.72 126.63C243.736 126.468 243.715 126.304 243.658 126.151C243.601 125.999 243.509 125.861 243.39 125.75C242.14 124.75 240.77 123.75 239.31 122.68C239.472 122.817 239.597 122.992 239.674 123.189C239.75 123.386 239.777 123.6 239.75 123.81C239.703 124.432 239.511 125.035 239.19 125.569C238.869 126.104 238.427 126.556 237.9 126.89C237.721 127.01 237.515 127.085 237.3 127.105C237.085 127.126 236.869 127.094 236.67 127.01C238.47 127.87 240.16 128.67 241.33 129.19Z" fill="#EBEBEB"/>
<path d="M239.28 125.41C238.962 126.019 238.485 126.53 237.9 126.89C237.721 127.01 237.515 127.085 237.3 127.105C237.085 127.126 236.869 127.094 236.67 127.01C238.47 127.87 240.16 128.67 241.33 129.19C241.482 129.246 241.644 129.264 241.805 129.243C241.965 129.222 242.118 129.163 242.25 129.07C242.661 128.825 243.005 128.481 243.25 128.07V128L239.25 125.44L239.28 125.41Z" fill="#E0E0E0"/>
<path d="M211.94 106.12C213.076 105.459 214.271 104.907 215.51 104.47C216.758 103.859 218.121 103.518 219.51 103.47C220.046 103.434 220.583 103.534 221.07 103.76C221.526 104.056 221.929 104.428 222.26 104.86C224.17 106.98 227.01 107.86 228.91 109.97C230.58 111.82 233.15 117.53 231.76 119.22C230.9 120.28 228.55 118.28 227.52 116.67C227.39 118.06 225.36 117.81 223.58 115.23C222.11 113.09 220.37 110.23 220.37 110.23L211.94 106.12Z" fill="#B16668"/>
<path d="M220.47 107.86C220.73 108.001 220.948 108.208 221.101 108.462C221.254 108.715 221.336 109.004 221.34 109.3C221.375 109.953 221.262 110.606 221.01 111.21L220.4 110.21L220.47 107.86Z" fill="#9A4A4D"/>
<path d="M202.68 117.12C204.88 113.46 205.82 110.43 208.44 109.29C211.95 107.76 212.98 108.54 217.16 107.55C223.09 106.15 221.16 111.71 216.23 113.68C211.3 115.65 208.23 114.77 208.23 114.77C208.23 114.77 205.71 122.35 202.68 117.12Z" fill="#B16668"/>
<path d="M106.5 178.72C107.5 177.11 109.68 173.64 109.24 171.57C108.59 168.57 105.95 160.08 105.95 160.08L103.78 150.84C103.78 150.84 109.78 141.46 110.64 136.43C111.5 131.4 111.38 127.88 109.12 118.94L119.49 117.07C125.15 115.591 130.98 114.865 136.83 114.91L144.48 114.73C144.48 114.73 158.66 129.64 160.79 136.19C162.18 140.48 163.86 148.26 157.43 157.54C156.66 164.54 155.19 172.54 155.36 176.54C155.53 180.54 157.8 184.75 158.31 188.45C155.93 193.63 147.46 202.19 129.02 201.6C109.92 200.99 100.71 191.45 100.71 191.45C102.018 186.95 103.968 182.663 106.5 178.72Z" fill="#00B4D8"/>
<path opacity="0.1" d="M143.61 157C143.61 157 138.72 162.63 128.75 160.56C118.78 158.49 117.11 150.85 117.11 150.85C117.11 150.85 116.11 160.56 128.04 162.99C139.78 165.34 143.61 157 143.61 157Z" fill="black"/>
<path d="M148.38 63C151.54 64.86 155.44 72.8 155.05 89.45C154.73 103.56 150.15 107.05 147.86 108.05C145.57 109.05 141.13 108.44 136.86 107.73V116.19C136.86 116.19 142.81 123.11 142.43 126.99C142.05 130.87 133.84 131.79 128.27 127.99C124.66 125.39 121.561 122.146 119.13 118.42V96.51C119.13 96.51 116.78 99.01 112.61 96.15C111.709 95.5786 110.936 94.8261 110.342 93.9403C109.747 93.0546 109.343 92.0549 109.154 91.0046C108.966 89.9544 108.999 88.8765 109.249 87.8394C109.5 86.8023 109.963 85.8286 110.61 84.98C112.42 82.85 117.03 82.69 119.25 85.98C119.25 85.98 125.03 85.47 134.17 80.45C141.029 76.7429 146.139 70.4679 148.38 63Z" fill="#B16668"/>
<path d="M119.25 91.05V83.63H124V86.31C124 86.9333 123.877 87.5505 123.638 88.1262C123.399 88.702 123.049 89.225 122.608 89.6652C122.167 90.1055 121.643 90.4545 121.067 90.6921C120.491 90.9297 119.873 91.0513 119.25 91.05Z" fill="#263238"/>
<path d="M137.72 85.39C137.721 85.7365 137.621 86.0759 137.432 86.366C137.242 86.6561 136.971 86.8842 136.653 87.0219C136.335 87.1597 135.984 87.201 135.643 87.1408C135.301 87.0806 134.985 86.9216 134.733 86.6834C134.482 86.4452 134.305 86.1383 134.226 85.8008C134.148 85.4634 134.169 85.1102 134.289 84.785C134.409 84.4599 134.622 84.1771 134.901 83.9718C135.18 83.7665 135.514 83.6476 135.86 83.63C136.098 83.622 136.335 83.6613 136.558 83.7457C136.781 83.8301 136.984 83.9578 137.157 84.1215C137.331 84.2852 137.469 84.4816 137.566 84.6994C137.662 84.9171 137.715 85.1519 137.72 85.39Z" fill="#263238"/>
<path d="M138.18 96.62L145 98.8C144.876 99.2563 144.662 99.6831 144.369 100.055C144.077 100.426 143.712 100.735 143.298 100.963C142.884 101.191 142.428 101.333 141.957 101.38C141.487 101.428 141.011 101.38 140.56 101.24C139.643 100.926 138.883 100.27 138.44 99.4091C137.996 98.5479 137.903 97.5484 138.18 96.62Z" fill="#9A4A4D"/>
<path d="M142.21 101.34C142.194 100.5 141.849 99.6999 141.248 99.1124C140.648 98.5249 139.84 98.1972 139 98.2C138.691 98.2028 138.384 98.2534 138.09 98.35C138.198 99.0113 138.486 99.6303 138.921 100.14C139.357 100.649 139.924 101.03 140.56 101.24C141.092 101.413 141.66 101.448 142.21 101.34Z" fill="#F28F8F"/>
<path d="M153.45 80.48L149.86 78C150.011 77.756 150.21 77.5454 150.445 77.3813C150.68 77.2173 150.947 77.1031 151.228 77.046C151.509 76.9888 151.799 76.9898 152.079 77.049C152.36 77.1082 152.626 77.2242 152.86 77.39C153.334 77.7322 153.66 78.243 153.769 78.8176C153.879 79.3922 153.765 79.987 153.45 80.48Z" fill="#263238"/>
<path d="M152.62 84.24C152.637 84.4768 152.608 84.7147 152.533 84.9399C152.457 85.1651 152.338 85.3731 152.182 85.5518C152.026 85.7305 151.835 85.8763 151.622 85.9807C151.409 86.0851 151.177 86.1461 150.94 86.16C150.574 86.1915 150.208 86.113 149.887 85.9345C149.566 85.756 149.306 85.4858 149.141 85.1584C148.975 84.8311 148.911 84.4616 148.956 84.0975C149.002 83.7334 149.156 83.3913 149.397 83.1152C149.639 82.839 149.957 82.6414 150.312 82.5478C150.667 82.4541 151.042 82.4687 151.388 82.5896C151.735 82.7105 152.037 82.9323 152.257 83.2264C152.476 83.5205 152.603 83.8735 152.62 84.24Z" fill="#263238"/>
<path d="M143.18 83.47L143.46 94.15L149.08 92.41L143.18 83.47Z" fill="#9A4A4D"/>
<path d="M136.83 107.75C132.29 107.15 122.95 104.47 121.5 100.75C122.085 102.616 123.226 104.26 124.77 105.46C127.56 107.85 136.83 110.54 136.83 110.54V107.75Z" fill="#9A4A4D"/>
<path d="M106.7 119.43C102.37 119.9 98.34 120.15 95.37 124.85C92.4 129.55 78.82 159.85 75.69 166.85C72.56 173.85 72 178.37 77.47 182.4C83.39 186.74 113.03 201.4 113.03 201.4L122.64 190.82L94.36 171.64L107.63 145.39C107.63 145.39 115 129.4 106.7 119.43Z" fill="#B16668"/>
<path d="M109 142.87C112.83 130.44 111.1 121.76 109.11 118.94C99.7999 115.94 95.9199 119.01 92.3099 126.62C90.0699 131.32 74.3599 168.62 74.3599 168.62C72.5899 172.62 70.9699 177.16 73.3099 179.98C75.6499 182.8 85.5599 187.25 85.5599 187.25C85.5599 187.25 89.3299 176.25 97.4999 173.81L94.9599 171.81L109 142.87Z" fill="#455A64"/>
<path d="M94.9999 171.79C92.0063 170.663 88.7935 170.238 85.6099 170.55C85.6099 170.55 89.0999 167.84 95.9599 169.81L94.9999 171.79Z" fill="#37474F"/>
<path d="M113 201.44C119.43 205.29 129.62 211.7 139.22 210.6C151.41 209.21 157.54 201.6 152.94 198.45C148.34 195.3 132.59 195.54 122.61 190.86L113 201.44Z" fill="#FFA8A7"/>
<path d="M99.38 182.46C108.15 177.38 118.16 176.12 123.26 178.13C128.36 180.14 128.26 183.2 128.26 186.13C128.26 188.49 132.03 190.77 140.63 188.38C149.71 185.86 159.63 185.54 163.86 190.25C169.25 196.25 159.42 205.99 143.56 212.06C121.79 220.38 96.91 218.53 86.75 207.58C77.14 197.21 93 186.17 99.38 182.46Z" fill="#263238"/>
<path d="M144.15 199.69C146.7 200.8 150.35 200.54 152.29 199.1C154.23 197.66 153.73 195.59 151.17 194.48C148.61 193.37 144.97 193.64 143.03 195.08C141.09 196.52 141.59 198.58 144.15 199.69Z" fill="#00B4D8"/>
<path d="M127.79 208.85C130.35 209.96 134 209.69 135.94 208.25C137.88 206.81 137.38 204.75 134.82 203.64C132.26 202.53 128.61 202.79 126.67 204.23C124.73 205.67 125.23 207.73 127.79 208.85Z" fill="#00B4D8"/>
<path d="M107.12 210.8C109.68 211.91 113.33 211.65 115.27 210.21C117.21 208.77 116.71 206.7 114.15 205.59C111.59 204.48 107.94 204.75 106 206.19C104.06 207.63 104.56 209.69 107.12 210.8Z" fill="#00B4D8"/>
<path d="M93.08 202.59C95.64 203.7 99.28 203.43 101.22 202C103.16 200.57 102.66 198.49 100.11 197.38C97.56 196.27 93.9 196.54 91.96 197.97C90.02 199.4 90.52 201.48 93.08 202.59Z" fill="#00B4D8"/>
<path d="M102.2 191.1C104.76 192.21 108.41 191.94 110.35 190.51C112.29 189.08 111.79 187 109.23 185.89C106.67 184.78 103.03 185.05 101.09 186.48C99.1498 187.91 99.6498 190 102.2 191.1Z" fill="#00B4D8"/>
<path opacity="0.7" d="M144.15 199.69C146.7 200.8 150.35 200.54 152.29 199.1C154.23 197.66 153.73 195.59 151.17 194.48C148.61 193.37 144.97 193.64 143.03 195.08C141.09 196.52 141.59 198.58 144.15 199.69Z" fill="#FAFAFA"/>
<path opacity="0.4" d="M127.79 208.85C130.35 209.96 134 209.69 135.94 208.25C137.88 206.81 137.38 204.75 134.82 203.64C132.26 202.53 128.61 202.79 126.67 204.23C124.73 205.67 125.23 207.73 127.79 208.85Z" fill="#FAFAFA"/>
<path opacity="0.3" d="M93.08 202.59C95.64 203.7 99.28 203.43 101.22 202C103.16 200.57 102.66 198.49 100.11 197.38C97.56 196.27 93.9 196.54 91.96 197.97C90.02 199.4 90.52 201.48 93.08 202.59Z" fill="black"/>
<path opacity="0.5" d="M102.2 191.1C104.76 192.21 108.41 191.94 110.35 190.51C112.29 189.08 111.79 187 109.23 185.89C106.67 184.78 103.03 185.05 101.09 186.48C99.1498 187.91 99.6498 190 102.2 191.1Z" fill="black"/>
<path d="M119.55 189C122.4 187.87 123.49 187.49 126.28 186.39C127.748 185.75 129.338 185.438 130.939 185.476C132.54 185.514 134.114 185.901 135.55 186.61C138.36 187.92 142.43 189.51 141.96 190.61C141.13 192.5 137.57 192.73 133.96 192.14C131.81 191.78 128.96 193.72 124.96 194.14C120.96 194.56 114.69 191.44 119.55 189Z" fill="#B16668"/>
<path d="M257.76 127.12C257.76 127.12 251.56 126.42 251.48 117.38C251.4 108.34 257.79 108.21 258.66 112.03C259.53 115.85 254.24 121.88 257.76 127.12Z" fill="#00B4D8"/>
<path d="M255.12 136.52C252.98 138.86 250.3 143.68 252.36 148.19C252.596 148.847 253.068 149.392 253.685 149.719C254.301 150.045 255.018 150.13 255.693 149.956C256.369 149.782 256.956 149.362 257.338 148.778C257.72 148.194 257.871 147.489 257.76 146.8C257.35 143.53 253.57 142.69 255.12 136.52Z" fill="#00B4D8"/>
<path opacity="0.3" d="M255.12 136.52C252.98 138.86 250.3 143.68 252.36 148.19C252.596 148.847 253.068 149.392 253.685 149.719C254.301 150.045 255.018 150.13 255.693 149.956C256.369 149.782 256.956 149.362 257.338 148.778C257.72 148.194 257.871 147.489 257.76 146.8C257.35 143.53 253.57 142.69 255.12 136.52Z" fill="black"/>
<path d="M251 161.57C250.298 159.187 249.339 156.886 248.14 154.71C247.322 153.212 246.652 151.638 246.14 150.01C245.467 147.832 245.591 145.485 246.49 143.39C247.102 142.145 247.92 141.012 248.91 140.04C249.26 139.68 249.64 139.35 249.99 139.04C250.341 138.725 250.675 138.391 250.99 138.04C251.023 138.003 251.047 137.958 251.06 137.91C251.074 137.888 251.082 137.862 251.082 137.835C251.082 137.808 251.074 137.782 251.06 137.76C250.99 137.71 250.89 137.76 250.81 137.76C250.4 138.04 249.97 138.29 249.58 138.59C249.1 138.952 248.643 139.343 248.21 139.76C247.372 140.532 246.643 141.413 246.04 142.38C244.702 144.637 244.286 147.324 244.88 149.88C245.599 152.397 246.605 154.823 247.88 157.11C248.769 158.893 249.441 160.777 249.88 162.72C250.33 164.465 250.26 166.304 249.68 168.01C249.221 168.975 248.519 169.804 247.642 170.414C246.765 171.024 245.744 171.395 244.68 171.49C243.458 171.689 242.206 171.583 241.034 171.184C239.862 170.785 238.806 170.103 237.96 169.2C236.57 167.61 236.17 165.27 237.83 163.72C239.3 162.34 242.47 162.52 243.14 164.72C243.26 165.075 243.255 165.462 243.123 165.813C242.992 166.165 242.744 166.46 242.42 166.65C242.263 166.746 242.087 166.808 241.904 166.829C241.721 166.851 241.536 166.833 241.361 166.775C241.186 166.718 241.026 166.624 240.891 166.499C240.756 166.373 240.65 166.22 240.58 166.05C240.4 165.74 239.66 165.55 239.73 166.05C240.03 168.46 243.03 168.26 244.12 166.56C245.45 164.48 243.43 162.21 241.41 161.73C240.238 161.441 239.002 161.586 237.928 162.137C236.855 162.689 236.017 163.609 235.57 164.73C234.7 167.08 236.01 169.6 237.86 171.05C239.046 171.958 240.436 172.561 241.909 172.806C243.382 173.052 244.893 172.933 246.31 172.46C247.447 172.15 248.49 171.564 249.345 170.752C250.201 169.941 250.841 168.93 251.21 167.81C251.71 165.75 251.638 163.592 251 161.57Z" fill="#00B4D8"/>
<path d="M260.91 121.32C260.732 121.414 260.57 121.535 260.43 121.68C259.848 122.26 259.44 122.991 259.25 123.79C259.053 124.584 258.996 125.406 259.08 126.22C259.08 126.336 259.118 126.449 259.19 126.54C259.46 126.77 259.53 126.18 259.54 126.03C259.568 125.68 259.666 125.34 259.83 125.03C260.155 124.308 260.579 123.635 261.09 123.03C261.35 122.72 261.96 122.3 261.98 121.86C262 121.42 261.49 121.24 261.16 121.31C261.076 121.303 260.992 121.307 260.91 121.32Z" fill="#00B4D8"/>
<path d="M258.13 90.9C257.171 89.6003 255.885 88.5785 254.402 87.939C252.919 87.2995 251.293 87.0651 249.69 87.26C248.042 87.3291 246.425 87.7264 244.932 88.4287C243.44 89.131 242.103 90.1242 241 91.35C239.818 92.7897 238.832 94.3803 238.07 96.08C237.281 97.9198 236.903 99.9092 236.96 101.91C236.899 105.674 238.305 109.314 240.88 112.06C242.25 113.54 243.75 114.91 245.23 116.3C246.08 117.11 246.89 117.95 247.67 118.83C248.541 119.733 249.185 120.829 249.55 122.03C249.809 122.882 249.97 123.761 250.03 124.65C250.03 124.79 250.18 124.8 250.18 124.65C250.243 123.166 250.039 121.683 249.58 120.27C248.76 118.656 247.648 117.208 246.3 116C243.94 113.46 241.72 111.73 239.94 108.69C239.015 107.016 238.437 105.172 238.24 103.27C238.095 101.549 238.254 99.8159 238.71 98.15C239.631 95.1505 241.454 92.5075 243.93 90.58C245.124 89.7181 246.48 89.1049 247.916 88.7768C249.352 88.4487 250.839 88.4124 252.29 88.67C253.716 88.9161 255.031 89.5983 256.054 90.6227C257.076 91.647 257.756 92.9632 258 94.39C258.42 97 257.89 100.2 255.38 101.6C254.316 102.206 253.106 102.505 251.882 102.465C250.659 102.424 249.471 102.045 248.45 101.37C246.88 100.21 245.52 97.69 247.29 96.1C247.728 95.7199 248.245 95.4399 248.802 95.2793C249.36 95.1187 249.946 95.0814 250.52 95.17C250.807 95.2103 251.079 95.3234 251.31 95.4984C251.541 95.6734 251.723 95.9046 251.84 96.17C251.894 96.2596 251.928 96.3594 251.942 96.4631C251.955 96.5668 251.947 96.6722 251.918 96.7726C251.889 96.873 251.839 96.9664 251.773 97.0468C251.706 97.1272 251.623 97.193 251.53 97.24C250.99 97.5266 250.376 97.6417 249.77 97.57C249.22 97.57 249.4 98.18 249.77 98.31C251.08 98.76 253.16 98.39 253.26 96.68C253.23 95.9508 252.924 95.2602 252.404 94.7479C251.884 94.2355 251.189 93.9396 250.46 93.92C247.82 93.65 244.72 95.55 245.06 98.48C245.295 99.7924 245.935 100.999 246.888 101.931C247.842 102.863 249.062 103.474 250.38 103.68C253.38 104.17 256.81 103.15 258.43 100.45C259.237 98.9763 259.635 97.3135 259.582 95.6341C259.529 93.9547 259.028 92.3201 258.13 90.9Z" fill="#00B4D8"/>
<path opacity="0.3" d="M258.13 90.9C257.171 89.6003 255.885 88.5785 254.402 87.939C252.919 87.2995 251.293 87.0651 249.69 87.26C248.042 87.3291 246.425 87.7264 244.932 88.4287C243.44 89.131 242.103 90.1242 241 91.35C239.818 92.7897 238.832 94.3803 238.07 96.08C237.281 97.9198 236.903 99.9092 236.96 101.91C236.899 105.674 238.305 109.314 240.88 112.06C242.25 113.54 243.75 114.91 245.23 116.3C246.08 117.11 246.89 117.95 247.67 118.83C248.541 119.733 249.185 120.829 249.55 122.03C249.809 122.882 249.97 123.761 250.03 124.65C250.03 124.79 250.18 124.8 250.18 124.65C250.243 123.166 250.039 121.683 249.58 120.27C248.76 118.656 247.648 117.208 246.3 116C243.94 113.46 241.72 111.73 239.94 108.69C239.015 107.016 238.437 105.172 238.24 103.27C238.095 101.549 238.254 99.8159 238.71 98.15C239.631 95.1505 241.454 92.5075 243.93 90.58C245.124 89.7181 246.48 89.1049 247.916 88.7768C249.352 88.4487 250.839 88.4124 252.29 88.67C253.716 88.9161 255.031 89.5983 256.054 90.6227C257.076 91.647 257.756 92.9632 258 94.39C258.42 97 257.89 100.2 255.38 101.6C254.316 102.206 253.106 102.505 251.882 102.465C250.659 102.424 249.471 102.045 248.45 101.37C246.88 100.21 245.52 97.69 247.29 96.1C247.728 95.7199 248.245 95.4399 248.802 95.2793C249.36 95.1187 249.946 95.0814 250.52 95.17C250.807 95.2103 251.079 95.3234 251.31 95.4984C251.541 95.6734 251.723 95.9046 251.84 96.17C251.894 96.2596 251.928 96.3594 251.942 96.4631C251.955 96.5668 251.947 96.6722 251.918 96.7726C251.889 96.873 251.839 96.9664 251.773 97.0468C251.706 97.1272 251.623 97.193 251.53 97.24C250.99 97.5266 250.376 97.6417 249.77 97.57C249.22 97.57 249.4 98.18 249.77 98.31C251.08 98.76 253.16 98.39 253.26 96.68C253.23 95.9508 252.924 95.2602 252.404 94.7479C251.884 94.2355 251.189 93.9396 250.46 93.92C247.82 93.65 244.72 95.55 245.06 98.48C245.295 99.7924 245.935 100.999 246.888 101.931C247.842 102.863 249.062 103.474 250.38 103.68C253.38 104.17 256.81 103.15 258.43 100.45C259.237 98.9763 259.635 97.3135 259.582 95.6341C259.529 93.9547 259.028 92.3201 258.13 90.9Z" fill="black"/>
<path d="M134.48 385H98.5598L102.56 418.07C102.74 419.99 104.08 421.87 106.62 423.33C112.08 426.49 120.93 426.49 126.39 423.33C128.92 421.87 130.27 419.99 130.45 418.07L134.48 385Z" fill="#37474F"/>
<path d="M103.82 377.68C110.82 373.63 122.23 373.63 129.25 377.68C136.27 381.73 136.25 388.31 129.25 392.36C122.25 396.41 110.84 396.42 103.82 392.36C96.7999 388.3 96.7999 381.74 103.82 377.68Z" fill="#455A64"/>
<path d="M116.53 393.32C112.468 393.413 108.45 392.462 104.86 390.56C102.14 388.98 100.64 387.02 100.64 385.02C100.64 383.02 102.14 381.02 104.86 379.49C108.482 377.675 112.478 376.73 116.53 376.73C120.582 376.73 124.577 377.675 128.2 379.49C130.93 381.06 132.43 383.03 132.43 385.02C132.43 387.01 130.93 389.02 128.2 390.56C124.61 392.464 120.592 393.415 116.53 393.32Z" fill="#263238"/>
<mask id="mask0_47_970" style="mask-type:luminance" maskUnits="userSpaceOnUse" x="92" y="315" width="56" height="79">
<path d="M116 393.32C112.12 393.37 107.21 392.07 104.83 390.56C102.22 389.08 100.61 387.11 100.61 385.02C100.61 383.37 92.4199 341.5 92.4199 341.5L115.58 315.29L147.58 339.79C147.58 339.79 143.13 369.57 142.03 380.19C141.83 382.19 132.45 384.77 132.45 385.02C132.45 388.38 129.07 390.18 126.68 391.33C123.311 392.774 119.663 393.454 116 393.32Z" fill="white"/>
</mask>
<g mask="url(#mask0_47_970)">
<path d="M106.68 360.6C108.741 368.48 110.377 376.465 111.58 384.52C112.729 393.561 113.111 402.684 112.72 411.79C112.703 411.979 112.626 412.157 112.5 412.299C112.375 412.441 112.207 412.54 112.022 412.58C111.837 412.62 111.644 412.6 111.471 412.523C111.297 412.445 111.154 412.315 111.06 412.15C111.034 412.103 111.013 412.052 111 412C111 412 105.91 397.15 104.26 385.44C103.209 377.392 102.585 369.294 102.39 361.18C102.404 361.005 102.459 360.835 102.549 360.685C102.639 360.534 102.763 360.406 102.91 360.31C103.35 360.002 103.856 359.802 104.388 359.727C104.92 359.653 105.462 359.705 105.97 359.88C106.136 359.937 106.286 360.032 106.409 360.157C106.532 360.282 106.625 360.433 106.68 360.6Z" fill="#00B4D8"/>
<path opacity="0.3" d="M106.68 360.6C108.741 368.48 110.377 376.465 111.58 384.52C112.729 393.561 113.111 402.684 112.72 411.79C112.703 411.979 112.626 412.157 112.5 412.299C112.375 412.441 112.207 412.54 112.022 412.58C111.837 412.62 111.644 412.6 111.471 412.523C111.297 412.445 111.154 412.315 111.06 412.15C111.034 412.103 111.013 412.052 111 412C111 412 105.91 397.15 104.26 385.44C103.209 377.392 102.585 369.294 102.39 361.18C102.404 361.005 102.459 360.835 102.549 360.685C102.639 360.534 102.763 360.406 102.91 360.31C103.35 360.002 103.856 359.802 104.388 359.727C104.92 359.653 105.462 359.705 105.97 359.88C106.136 359.937 106.286 360.032 106.409 360.157C106.532 360.282 106.625 360.433 106.68 360.6Z" fill="black"/>
<path opacity="0.15" d="M111.05 412.2C111.023 412.136 111.006 412.069 111 412C111 412 105.91 397.15 104.26 385.44C103.15 377.57 102.69 369.31 102.5 364.74L105.3 364.84C105.3 364.84 111.53 412.57 112.3 412.51C112.198 412.573 112.084 412.615 111.966 412.634C111.847 412.652 111.726 412.647 111.61 412.618C111.493 412.589 111.384 412.537 111.288 412.466C111.191 412.394 111.111 412.304 111.05 412.2Z" fill="black"/>
<path d="M104.36 359.74C103.89 359.08 101.28 355.53 101.51 352.32C101.926 352.248 102.325 352.103 102.69 351.89C104.08 351.07 103.69 349.77 104.69 349.04C105.69 348.31 107.2 349.93 107.21 349.94C108.239 351.611 108.722 353.562 108.59 355.52C108.448 357.364 107.778 359.127 106.66 360.6L102.34 361.19L104.36 359.74Z" fill="#455A64"/>
<path d="M98.5598 353.43C99.3198 352.2 100.33 352.53 101.56 352.32C101.33 355.53 103.94 359.08 104.41 359.74L102.41 361.19L101.41 360.01L101.14 359.68C100.96 359.46 100.78 359.22 100.6 358.97C100.318 358.582 100.064 358.174 99.8398 357.75C99.6714 357.447 99.5244 357.133 99.3998 356.81C99.0983 356.087 98.8802 355.332 98.7498 354.56C98.6469 354.191 98.5832 353.812 98.5598 353.43Z" fill="#37474F"/>
<path d="M98.5599 353.42C98.5497 353.227 98.5497 353.033 98.5599 352.84V352.78C98.5599 352.63 98.5599 352.49 98.6299 352.35V352.19V352.06C98.6299 351.99 98.6299 351.91 98.6299 351.84C98.6299 351.77 98.6299 351.66 98.7099 351.57C98.7727 351.366 98.8462 351.166 98.9299 350.97C99.0099 350.78 99.0999 350.59 99.1899 350.41C99.2799 350.23 99.3899 350.04 99.4899 349.87C100.155 348.8 101.021 347.87 102.04 347.13L102.27 346.98H102.33L102.59 346.81C103.129 346.493 103.695 346.222 104.28 346C104.54 345.9 104.79 345.82 105.03 345.75C105.27 345.68 105.48 345.63 105.69 345.58L105.97 345.53L106.23 345.48L106.64 345.43H107C106.691 345.911 106.492 346.455 106.42 347.023C106.347 347.59 106.402 348.166 106.58 348.71C106.708 349.155 106.879 349.587 107.09 350C107.09 350 105.56 348.37 104.57 349.1C103.58 349.83 103.94 351.1 102.57 351.95C102.205 352.163 101.806 352.308 101.39 352.38C100.21 352.59 99.1999 352.26 98.3899 353.49L98.5599 353.42Z" fill="#00B4D8"/>
<path opacity="0.1" d="M107.14 345.37C104.793 346.408 102.927 348.299 101.92 350.66C101.685 351.184 101.547 351.747 101.51 352.32C100.33 352.53 99.3199 352.2 98.5099 353.43C98.4996 353.237 98.4996 353.043 98.5099 352.85V352.79C98.5099 352.64 98.5099 352.5 98.5799 352.36V352.2V352.07C98.5799 352 98.5799 351.92 98.5799 351.85C98.5799 351.78 98.5799 351.67 98.6599 351.58C98.7227 351.376 98.7961 351.176 98.8799 350.98C98.9599 350.79 99.0499 350.6 99.1399 350.42C99.2299 350.24 99.3399 350.05 99.4399 349.88C100.105 348.81 100.971 347.88 101.99 347.14L102.22 346.99H102.28L102.54 346.82C103.079 346.503 103.645 346.232 104.23 346.01C104.49 345.91 104.74 345.83 104.98 345.76C105.22 345.69 105.43 345.64 105.64 345.59L105.92 345.54L106.18 345.49L106.59 345.44H106.95L107.14 345.37Z" fill="black"/>
<path d="M102.36 361.19C102.374 361.015 102.429 360.845 102.519 360.695C102.609 360.544 102.732 360.416 102.88 360.32C103.32 360.012 103.826 359.812 104.358 359.737C104.89 359.663 105.432 359.715 105.94 359.89C106.11 359.942 106.266 360.034 106.394 360.157C106.523 360.28 106.621 360.432 106.68 360.6C107.12 362.25 107.57 364.07 108.02 365.98C107.947 365.763 107.824 365.567 107.66 365.407C107.497 365.247 107.298 365.128 107.08 365.06C106.438 364.84 105.753 364.775 105.08 364.869C104.408 364.962 103.767 365.213 103.21 365.6C103.01 365.725 102.846 365.9 102.732 366.106C102.619 366.312 102.559 366.544 102.56 366.78C102.46 364.61 102.38 362.58 102.36 361.19Z" fill="#EBEBEB"/>
<path d="M105.27 364.85C104.527 364.903 103.813 365.163 103.21 365.6C103.01 365.725 102.846 365.9 102.732 366.106C102.619 366.312 102.559 366.544 102.56 366.78C102.46 364.61 102.38 362.58 102.36 361.19C102.374 361.015 102.429 360.845 102.519 360.695C102.609 360.544 102.732 360.416 102.88 360.32C103.312 359.997 103.823 359.797 104.36 359.74L105.22 364.83L105.27 364.85Z" fill="#E0E0E0"/>
<path d="M118.12 336.2C118.12 336.2 119.96 375.51 120.12 387.63C120.098 396.744 119.305 405.84 117.75 414.82V414.88C117.728 415.089 117.634 415.283 117.483 415.429C117.332 415.575 117.135 415.663 116.925 415.677C116.716 415.691 116.508 415.631 116.339 415.507C116.17 415.384 116.049 415.204 116 415C115.971 414.94 115.951 414.876 115.94 414.81C115.94 414.81 112.8 399.42 112.67 387.6C112.54 375.78 113.74 336.22 113.74 336.22C113.778 336.051 113.853 335.892 113.961 335.755C114.068 335.618 114.204 335.507 114.36 335.43C114.84 335.186 115.371 335.059 115.91 335.059C116.448 335.059 116.98 335.186 117.46 335.43C117.622 335.498 117.766 335.603 117.881 335.737C117.996 335.87 118.077 336.029 118.12 336.2Z" fill="#00B4D8"/>
<path opacity="0.1" d="M113.65 339.83C113.52 344.27 113.3 352.28 113.1 360.67L112.69 387.61C112.82 399.43 115.96 414.82 115.96 414.82C115.971 414.886 115.991 414.95 116.02 415.01C116.065 415.119 116.131 415.217 116.214 415.301C116.297 415.384 116.396 415.449 116.505 415.494C116.614 415.539 116.73 415.561 116.848 415.561C116.965 415.56 117.082 415.536 117.19 415.49C116.42 415.49 116.19 340.24 116.19 340.24L113.65 339.83Z" fill="black"/>
<path d="M115.93 335.05C115.54 334.34 113.42 330.49 114.06 327.33C114.479 327.311 114.892 327.219 115.28 327.06C116.77 326.42 116.58 325.06 117.65 324.49C118.72 323.92 120.03 325.69 120.04 325.71C120.842 327.5 121.069 329.495 120.69 331.42C120.309 333.227 119.417 334.886 118.12 336.2H113.76L115.93 335.05Z" fill="#455A64"/>
<path d="M111 328.06C111.92 326.93 112.88 327.38 114.08 327.33C113.44 330.49 115.56 334.33 115.95 335.05L113.78 336.23C113.5 335.83 113.2 335.4 112.89 334.93L112.67 334.57C112.506 334.322 112.356 334.065 112.22 333.8C111.99 333.377 111.79 332.94 111.62 332.49C111.5 332.18 111.4 331.85 111.3 331.49C111.103 330.734 110.986 329.96 110.95 329.18C110.931 328.806 110.948 328.431 111 328.06Z" fill="#37474F"/>
<path d="M111 328C111.023 327.808 111.056 327.618 111.1 327.43C111.1 327.43 111.1 327.43 111.1 327.37C111.1 327.31 111.17 327.09 111.21 326.96C111.214 326.907 111.214 326.853 111.21 326.8C111.214 326.76 111.214 326.72 111.21 326.68C111.241 326.608 111.267 326.535 111.29 326.46L111.41 326.2C111.496 326.008 111.593 325.821 111.7 325.64C111.8 325.458 111.91 325.281 112.03 325.11C112.15 324.94 112.27 324.78 112.4 324.62C113.196 323.647 114.174 322.839 115.28 322.24L115.52 322.11H115.59L116 322C116.576 321.754 117.171 321.557 117.78 321.41C118.05 321.34 118.31 321.3 118.55 321.26C118.775 321.221 119.002 321.194 119.23 321.18H119.52H120.2C120.316 321.172 120.433 321.172 120.55 321.18C120.183 321.619 119.918 322.133 119.775 322.687C119.631 323.24 119.612 323.818 119.72 324.38C119.783 324.841 119.897 325.294 120.06 325.73C120.06 325.73 118.74 323.92 117.67 324.51C116.6 325.1 116.79 326.44 115.3 327.08C114.912 327.239 114.499 327.331 114.08 327.35C112.88 327.4 111.92 326.95 111 328.08V328Z" fill="#00B4D8"/>
<path opacity="0.1" d="M120.53 321.16C118.071 321.892 115.98 323.528 114.68 325.74C114.376 326.227 114.166 326.766 114.06 327.33C112.86 327.38 111.9 326.93 110.98 328.06C111.002 327.868 111.036 327.678 111.08 327.49C111.08 327.49 111.08 327.49 111.08 327.43C111.08 327.37 111.15 327.15 111.19 327.02C111.194 326.967 111.194 326.913 111.19 326.86C111.194 326.82 111.194 326.78 111.19 326.74C111.221 326.668 111.247 326.595 111.27 326.52L111.39 326.26C111.476 326.068 111.573 325.881 111.68 325.7C111.78 325.518 111.89 325.341 112.01 325.17C112.13 325 112.25 324.84 112.38 324.68C113.176 323.707 114.154 322.899 115.26 322.3L115.5 322.17H115.57L116 322C116.576 321.754 117.171 321.557 117.78 321.41C118.05 321.34 118.31 321.3 118.55 321.26C118.775 321.221 119.002 321.194 119.23 321.18H119.52H120.2C120.316 321.172 120.433 321.172 120.55 321.18L120.53 321.16Z" fill="black"/>
<path d="M113.76 336.23C113.76 336.23 113.7 338.07 113.62 341.05C113.739 340.92 113.877 340.809 114.03 340.72C114.636 340.414 115.306 340.255 115.985 340.255C116.664 340.255 117.334 340.414 117.94 340.72C118.086 340.801 118.221 340.902 118.34 341.02C118.21 338.02 118.12 336.24 118.12 336.24C118.082 336.067 118.005 335.906 117.894 335.769C117.783 335.632 117.641 335.523 117.48 335.45C117 335.206 116.469 335.079 115.93 335.079C115.391 335.079 114.86 335.206 114.38 335.45C114.225 335.526 114.09 335.636 113.983 335.771C113.876 335.906 113.799 336.062 113.76 336.23Z" fill="#EBEBEB"/>
<path d="M113.76 336.23C113.76 336.23 113.7 338.07 113.62 341.05C113.739 340.92 113.877 340.809 114.03 340.72C114.69 340.367 115.433 340.201 116.18 340.24L115.98 335.09C115.774 335.096 115.57 335.123 115.37 335.17H115.16C114.904 335.232 114.658 335.329 114.43 335.46C114.267 335.529 114.123 335.635 114.006 335.768C113.89 335.901 113.806 336.059 113.76 336.23Z" fill="#E0E0E0"/>
<path d="M124.41 371.34L121.54 394.64C121.529 394.912 121.592 395.183 121.722 395.422C121.852 395.662 122.045 395.861 122.28 396C122.909 396.423 123.629 396.691 124.381 396.783C125.134 396.875 125.897 396.788 126.61 396.53C126.862 396.444 127.087 396.294 127.262 396.094C127.438 395.894 127.557 395.651 127.61 395.39L130.49 372.1L124.41 371.34Z" fill="#00B4D8"/>
<path opacity="0.3" d="M124.41 371.34L121.54 394.64C121.529 394.912 121.592 395.183 121.722 395.422C121.852 395.662 122.045 395.861 122.28 396C122.909 396.423 123.629 396.691 124.381 396.783C125.134 396.875 125.897 396.788 126.61 396.53C126.862 396.444 127.087 396.294 127.262 396.094C127.438 395.894 127.557 395.651 127.61 395.39L130.49 372.1L124.41 371.34Z" fill="black"/>
<path opacity="0.15" d="M129.8 378.09L123.23 380.88L124.41 371.34L130.53 372.1L129.8 378.09Z" fill="black"/>
<path d="M135.92 353.8L135.34 358.54L139.73 356.68L138.55 366.43C138.269 368.017 137.618 369.516 136.648 370.804C135.678 372.092 134.418 373.132 132.97 373.84L125.25 377.11C124.762 377.369 124.217 377.505 123.665 377.505C123.112 377.505 122.568 377.369 122.08 377.11C122 377.06 118.71 374.62 118.02 374.04C117.631 373.645 117.347 373.159 117.193 372.627C117.039 372.094 117.021 371.532 117.14 370.99L118.33 361.24L135.92 353.8Z" fill="#00B4D8"/>
<path opacity="0.4" d="M135.92 353.8L135.34 358.54L139.73 356.68L138.55 366.43C138.269 368.017 137.618 369.516 136.648 370.804C135.678 372.092 134.418 373.132 132.97 373.84L125.25 377.11C124.762 377.369 124.217 377.505 123.665 377.505C123.112 377.505 122.568 377.369 122.08 377.11C122 377.06 118.71 374.62 118.02 374.04C117.631 373.645 117.347 373.159 117.193 372.627C117.039 372.094 117.021 371.532 117.14 370.99L118.33 361.24L135.92 353.8Z" fill="black"/>
<path d="M125.25 377.11L132.97 373.84C134.418 373.132 135.678 372.092 136.648 370.804C137.618 369.516 138.269 368.017 138.55 366.43L139.73 356.68L122.15 364.13L121 373.88C120.6 376.82 122.52 378.26 125.25 377.11Z" fill="#00B4D8"/>
<path opacity="0.3" d="M125.25 377.11L132.97 373.84C134.418 373.132 135.678 372.092 136.648 370.804C137.618 369.516 138.269 368.017 138.55 366.43L139.73 356.68L122.15 364.13L121 373.88C120.6 376.82 122.52 378.26 125.25 377.11Z" fill="black"/>
<path d="M122.15 364.13L139.73 356.68L141.49 342.46L123.9 349.91L122.15 364.13Z" fill="#F0F0F0"/>
<path d="M122.15 364.13L123.9 349.91L120.09 347.04L118.33 361.25L122.15 364.13Z" fill="#EBEBEB"/>
<path d="M121.63 368.36L139.22 360.91L138.99 362.85L121.39 370.4L121.63 368.36Z" fill="#FAFAFA"/>
<path d="M121.63 368.36L117.82 365.48L117.57 367.52L121.39 370.4L121.63 368.36Z" fill="#E6E6E6"/>
<path d="M119.55 351.38C119.55 351.38 120.55 354.94 123.22 355.45L123.9 349.91L120.09 347L119.55 351.38Z" fill="#00B4D8"/>
<path opacity="0.1" d="M119.55 351.38C119.55 351.38 120.55 354.94 123.22 355.45L123.9 349.91L120.09 347L119.55 351.38Z" fill="black"/>
<path d="M123.22 355.45C124.089 355.925 125.064 356.174 126.055 356.174C127.046 356.174 128.02 355.925 128.89 355.45C131.02 354.24 132.31 349.22 136.09 349.58C138.75 349.84 140.2 352.84 140.2 352.84L141.49 342.43L123.9 349.88L123.22 355.45Z" fill="#00B4D8"/>
<path d="M141.49 342.46L137.67 339.58L120.09 347.04L123.9 349.91L141.49 342.46Z" fill="#00B4D8"/>
<path opacity="0.7" d="M141.49 342.46L137.67 339.58L120.09 347.04L123.9 349.91L141.49 342.46Z" fill="white"/>
</g>
<path d="M97.26 350.34H49.26L51.43 384.48C51.43 387.65 53.43 390.84 57.61 393.31C65.93 398.23 79.51 398.38 87.94 393.63C92.19 391.24 94.31 388.06 94.31 384.86L97.26 350.34Z" fill="#37474F"/>
<path d="M56.3402 339.71C46.9002 345.02 46.8102 353.81 56.1302 359.33C65.4502 364.85 80.6702 365.01 90.1302 359.7C99.5902 354.39 99.6702 345.59 90.3502 340.07C81.0302 334.55 65.7802 334.39 56.3402 339.71Z" fill="#455A64"/>
<path d="M95.18 349.93C95.1691 350.571 95.0542 351.206 94.84 351.81C94.11 354.06 92.15 356.15 89.09 357.88C84.1479 360.417 78.6429 361.659 73.09 361.49C67.5408 361.543 62.0693 360.184 57.19 357.54C54.24 355.79 52.3 353.67 51.62 351.47C51.394 350.827 51.279 350.151 51.28 349.47C51.34 346.54 53.48 343.72 57.38 341.55C61.61 339.14 67.31 337.86 73.38 337.94C78.9383 337.864 84.422 339.224 89.3 341.89C93.12 344.15 95.21 347 95.18 349.93Z" fill="#263238"/>
<path d="M73.3501 353.73C67.3501 353.68 61.6101 354.96 57.3501 357.37L57.1201 357.51C61.9994 360.154 67.4709 361.513 73.0201 361.46C78.5729 361.629 84.078 360.387 89.0201 357.85L89.2501 357.71C84.3736 355.056 78.9019 353.686 73.3501 353.73Z" fill="#00B4D8"/>
<path opacity="0.15" d="M74.9001 361.45C73.3651 361.141 71.8897 360.587 70.5301 359.81C69.1641 359.138 68.0954 357.984 67.5301 356.57C67.4056 356.227 67.3446 355.865 67.3501 355.5C67.3606 355.014 67.4766 354.536 67.6901 354.1C64.0685 354.53 60.5605 355.639 57.3501 357.37L57.1201 357.51C61.9994 360.154 67.4709 361.513 73.0201 361.46C73.7001 361.49 74.3001 361.47 74.9001 361.45Z" fill="#263238"/>
<path d="M82.36 363.17C83.3 362.64 84.05 363.08 84.04 364.17C84.0027 364.756 83.8275 365.325 83.5286 365.831C83.2297 366.337 82.8156 366.765 82.32 367.08C81.38 367.61 80.62 367.17 80.64 366.08C80.6758 365.493 80.8503 364.924 81.1494 364.418C81.4484 363.912 81.8633 363.484 82.36 363.17Z" fill="#263238"/>
<path d="M49.8001 359.87C47.7301 365.18 46.1201 372.4 50.8001 375.82C51.0601 376.01 51.2901 376.17 51.5501 376.34V378.58C50.9401 378.2 50.3101 377.78 49.7001 377.34C42.8101 372.23 47.0301 361.06 49.7001 355.63L49.8001 359.87Z" fill="#E0E0E0"/>
<path d="M83.1602 365.56C82.9002 366.1 76.2802 378.76 65.3802 381.31C64.152 381.604 62.8932 381.752 61.6302 381.75C58.0136 381.684 54.4914 380.584 51.4802 378.58V376.34C55.9802 379.46 60.4802 380.54 64.9402 379.51C75.0002 377.15 81.4402 364.81 81.4802 364.7C81.5953 364.481 81.7921 364.316 82.028 364.241C82.2639 364.166 82.5198 364.187 82.7402 364.3C82.8543 364.351 82.9566 364.425 83.0406 364.517C83.1245 364.61 83.1882 364.719 83.2278 364.837C83.2673 364.956 83.2817 365.081 83.27 365.206C83.2584 365.33 83.221 365.451 83.1602 365.56Z" fill="#E0E0E0"/>
</svg>
