<svg width="343" height="343" viewBox="0 0 343 343" fill="none" xmlns="http://www.w3.org/2000/svg">
<path d="M62.3437 297.216C122.629 328.711 220.371 328.711 280.663 297.216C340.956 265.722 340.942 214.663 280.663 183.162C220.384 151.661 122.629 151.675 62.3368 183.162C2.04428 214.649 2.058 265.722 62.3437 297.216Z" fill="#F5F5F5"/>
<path d="M287.537 249.855C302.839 249.855 315.244 243.943 315.244 236.649C315.244 229.356 302.839 223.444 287.537 223.444C272.234 223.444 259.829 229.356 259.829 236.649C259.829 243.943 272.234 249.855 287.537 249.855Z" fill="#E0E0E0"/>
<path d="M64.6486 264.391C79.9511 264.391 92.3562 258.479 92.3562 251.186C92.3562 243.893 79.9511 237.98 64.6486 237.98C49.3462 237.98 36.9411 243.893 36.9411 251.186C36.9411 258.479 49.3462 264.391 64.6486 264.391Z" fill="#E0E0E0"/>
<path d="M167.706 303.212L97.5561 262.738C97.3171 262.582 97.1181 262.373 96.9751 262.126C96.8321 261.88 96.7491 261.603 96.7329 261.318V260.255C96.7491 259.97 96.8321 259.693 96.9751 259.446C97.1181 259.2 97.3171 258.99 97.5561 258.835L183.087 209.443C183.341 209.314 183.622 209.247 183.906 209.247C184.191 209.247 184.472 209.314 184.726 209.443L254.876 249.917C255.115 250.073 255.312 250.282 255.454 250.529C255.596 250.776 255.678 251.052 255.693 251.337V252.407C255.678 252.691 255.596 252.968 255.454 253.214C255.312 253.461 255.115 253.671 254.876 253.827L169.346 303.212C169.092 303.34 168.811 303.407 168.526 303.407C168.241 303.407 167.961 303.34 167.706 303.212Z" fill="#EBEBEB"/>
<path d="M254.876 250.85L169.339 300.242C169.086 300.373 168.805 300.442 168.519 300.442C168.234 300.442 167.953 300.373 167.7 300.242L97.5561 259.768C97.4576 259.734 97.3722 259.67 97.3117 259.585C97.2513 259.5 97.2188 259.398 97.2188 259.294C97.2188 259.19 97.2513 259.089 97.3117 259.004C97.3722 258.919 97.4576 258.855 97.5561 258.821L183.087 209.429C183.341 209.301 183.622 209.234 183.906 209.234C184.191 209.234 184.472 209.301 184.726 209.429L254.876 249.903C254.975 249.937 255.06 250.001 255.121 250.086C255.181 250.171 255.214 250.272 255.214 250.376C255.214 250.48 255.181 250.582 255.121 250.667C255.06 250.752 254.975 250.816 254.876 250.85Z" fill="#FAFAFA"/>
<path d="M254.876 250.85L169.339 300.242C169.086 300.373 168.805 300.442 168.519 300.442C168.234 300.442 167.953 300.373 167.7 300.242L97.5561 259.768C97.4576 259.734 97.3722 259.67 97.3117 259.585C97.2513 259.5 97.2188 259.398 97.2188 259.294C97.2188 259.19 97.2513 259.089 97.3117 259.004C97.3722 258.919 97.4576 258.855 97.5561 258.821L183.087 209.429C183.341 209.301 183.622 209.234 183.906 209.234C184.191 209.234 184.472 209.301 184.726 209.429L254.876 249.903C254.975 249.937 255.06 250.001 255.121 250.086C255.181 250.171 255.214 250.272 255.214 250.376C255.214 250.48 255.181 250.582 255.121 250.667C255.06 250.752 254.975 250.816 254.876 250.85Z" fill="#FAFAFA"/>
<path d="M168.523 300.708V303.39C168.238 303.395 167.957 303.326 167.706 303.191L97.5561 262.717C97.3163 262.563 97.1167 262.353 96.9736 262.106C96.8305 261.86 96.748 261.582 96.7329 261.297V260.234C96.7493 259.979 96.8188 259.73 96.937 259.503C97.0551 259.276 97.2192 259.077 97.4189 258.917C97.1239 259.178 97.1719 259.534 97.5698 259.761L167.72 300.235C167.787 300.273 167.859 300.303 167.933 300.324L168.523 300.708Z" fill="#E0E0E0"/>
<path d="M126.224 255.638C126.229 255.672 126.229 255.707 126.224 255.741L126.149 255.844L125.758 256.001L116.634 256.468C116.492 256.491 116.358 256.545 116.239 256.626C116.121 256.706 116.021 256.812 115.948 256.934C115.804 257.181 115.879 257.38 116.119 257.394L124.722 257.833L124.921 257.991C124.913 258.027 124.899 258.062 124.879 258.094C124.838 258.161 124.78 258.218 124.712 258.258C124.644 258.299 124.568 258.322 124.488 258.327L115.811 257.881C115.323 257.881 115.166 257.442 115.454 256.934C115.61 256.677 115.821 256.458 116.073 256.293C116.325 256.128 116.61 256.021 116.908 255.981L126.107 255.508C126.183 255.508 126.224 255.556 126.224 255.638Z" fill="#455A64"/>
<path d="M206.609 250.109C206.606 250.163 206.587 250.216 206.555 250.26C206.509 250.323 206.45 250.376 206.381 250.413C206.312 250.449 206.235 250.47 206.157 250.472C206.157 250.472 203.879 250.205 199.715 249.848C199.592 249.848 199.557 249.718 199.647 249.581C199.69 249.516 199.748 249.462 199.816 249.424C199.884 249.386 199.96 249.364 200.038 249.361C204.208 249.718 206.472 249.985 206.493 249.985C206.524 249.987 206.554 250.001 206.576 250.024C206.597 250.047 206.61 250.077 206.609 250.109Z" fill="#455A64"/>
<path d="M199.036 263.259C199.045 263.288 199.045 263.319 199.036 263.349C199 263.42 198.948 263.483 198.884 263.53C198.819 263.578 198.745 263.61 198.666 263.623C198.666 263.623 196.066 263.897 191.483 264.268C191.339 264.268 191.277 264.179 191.346 264.048C191.383 263.977 191.437 263.916 191.502 263.869C191.568 263.822 191.644 263.792 191.723 263.781C196.299 263.41 198.865 263.136 198.892 263.136C198.919 263.136 199.036 263.177 199.036 263.259Z" fill="#455A64"/>
<path d="M189.336 248.696C189.334 248.744 189.32 248.791 189.295 248.833C189.25 248.898 189.191 248.952 189.122 248.991C189.053 249.03 188.976 249.054 188.897 249.059C185.09 248.826 181.104 248.627 177.05 248.455C158.562 247.708 152.409 248.387 146.797 249.286C140.705 250.26 125.209 255.899 123.885 256.921C124.036 257.936 133.057 263.547 138.03 264.501C142.619 265.386 147.998 266.051 167.384 265.242C171.623 265.064 175.849 264.851 179.952 264.604C180.089 264.604 180.144 264.7 180.075 264.83C180.037 264.9 179.983 264.96 179.917 265.006C179.852 265.051 179.777 265.08 179.698 265.091C175.582 265.338 171.363 265.551 167.123 265.729C147.682 266.545 142.283 265.873 137.666 264.988C133.207 264.124 122.65 258.176 123.37 256.921C124.091 255.665 141.529 249.677 146.989 248.798C152.635 247.9 158.816 247.214 177.352 247.968C181.406 248.133 185.398 248.339 189.213 248.572C189.229 248.57 189.246 248.571 189.262 248.577C189.278 248.582 189.293 248.591 189.305 248.603C189.317 248.615 189.326 248.63 189.331 248.646C189.337 248.662 189.338 248.679 189.336 248.696Z" fill="#455A64"/>
<path d="M154.659 252.798C154.199 251.735 153.101 251.145 151.585 251.145C149.784 251.237 148.043 251.821 146.55 252.832C145.711 253.364 144.933 253.988 144.232 254.691C143.575 255.349 143.004 256.087 142.53 256.886C141.893 257.876 141.595 259.046 141.68 260.22C141.892 261.73 143.127 262.628 144.972 262.621C146.774 262.532 148.516 261.948 150.008 260.934C151.646 259.915 153.023 258.526 154.028 256.88C154.541 256.051 154.843 255.108 154.906 254.136C154.92 253.677 154.835 253.221 154.659 252.798ZM153.534 256.88C152.617 258.389 151.357 259.66 149.857 260.591C148.494 261.514 146.904 262.048 145.261 262.134C143.559 262.134 142.434 261.311 142.249 259.939C142.22 259.765 142.209 259.588 142.215 259.411C142.274 258.516 142.552 257.649 143.024 256.886C143.942 255.381 145.199 254.11 146.694 253.175C148.059 252.252 149.651 251.72 151.297 251.639C152.669 251.639 153.691 252.174 154.117 253.148C154.542 254.122 154.35 255.46 153.534 256.88Z" fill="#455A64"/>
<path d="M154.117 253.134C153.691 252.16 152.697 251.625 151.297 251.625C149.651 251.707 148.059 252.238 146.694 253.161C145.199 254.096 143.942 255.367 143.024 256.873C142.552 257.635 142.274 258.502 142.215 259.397C142.209 259.574 142.22 259.751 142.249 259.925C142.434 261.297 143.559 262.121 145.26 262.121C146.904 262.034 148.494 261.5 149.857 260.577C151.357 259.646 152.617 258.375 153.534 256.866C154.35 255.46 154.549 254.136 154.117 253.134ZM152.292 256.88C151.009 259.095 148.176 260.906 145.946 260.906C143.744 260.906 142.983 259.095 144.252 256.886C145.521 254.677 148.368 252.866 150.591 252.86C152.114 252.86 152.951 253.71 152.916 254.918C152.872 255.613 152.657 256.286 152.292 256.88Z" fill="#0096C7"/>
<path d="M138.202 251.186C138.172 251.173 138.141 251.167 138.109 251.167C138.077 251.167 138.046 251.173 138.016 251.186C133.667 252.558 123.933 255.919 123.35 256.928C122.767 257.936 128.639 261.27 131.41 262.635C131.474 262.659 131.545 262.659 131.609 262.635C131.689 262.603 131.762 262.553 131.822 262.491C135.211 258.773 137.378 255.021 138.25 251.344V251.302C138.256 251.28 138.254 251.257 138.246 251.236C138.237 251.215 138.221 251.197 138.202 251.186Z" fill="#455A64"/>
<path d="M137.632 251.762C136.768 255.192 134.765 258.622 131.664 262.107C127.459 260.015 123.953 257.586 123.864 256.948C124.687 256.283 131.026 253.82 137.632 251.762Z" fill="#0096C7"/>
<path d="M206.692 250.767C206.613 251.774 206.355 252.759 205.93 253.676C205.895 253.749 205.844 253.813 205.779 253.861C205.715 253.91 205.64 253.943 205.56 253.957C205.416 253.957 205.34 253.889 205.395 253.758C206.301 251.577 206.136 250.678 206.081 250.465C205.725 250.424 204.222 250.253 201.698 250.026C201.454 251.58 200.949 253.081 200.202 254.465C200.164 254.535 200.11 254.596 200.045 254.643C199.979 254.689 199.904 254.72 199.825 254.732C199.681 254.732 199.626 254.643 199.688 254.513C200.881 252.05 201.135 250.61 201.156 249.862C201.164 249.811 201.182 249.762 201.209 249.719C201.236 249.675 201.272 249.638 201.314 249.608C201.393 249.538 201.496 249.499 201.602 249.498C204.771 249.779 206.479 249.985 206.5 249.985C206.52 249.987 206.54 249.994 206.558 250.004C206.576 250.015 206.591 250.03 206.603 250.047C206.687 250.277 206.718 250.524 206.692 250.767Z" fill="#455A64"/>
<path d="M202.37 259.795C202.361 259.853 202.337 259.907 202.301 259.953C200.298 262.697 198.871 263.527 198.803 263.561C198.751 263.594 198.692 263.615 198.631 263.623C198.631 263.623 196.669 263.836 193.143 264.131C193.047 264.131 192.986 264.131 192.979 264.014C192.982 263.965 192.996 263.918 193.02 263.875C193.044 263.833 193.076 263.796 193.116 263.767C194.601 262.394 195.904 260.835 196.992 259.13C197.034 259.062 197.093 259.006 197.162 258.967C197.232 258.927 197.31 258.906 197.39 258.903C197.513 258.903 197.547 259.034 197.458 259.171C196.42 260.775 195.21 262.261 193.85 263.602C196.635 263.362 198.336 263.184 198.741 263.143C199.944 262.226 200.991 261.121 201.842 259.871C201.888 259.808 201.947 259.758 202.017 259.723C202.086 259.688 202.162 259.671 202.24 259.672C202.257 259.668 202.275 259.669 202.292 259.674C202.309 259.679 202.324 259.687 202.337 259.699C202.35 259.712 202.359 259.727 202.365 259.743C202.371 259.76 202.373 259.778 202.37 259.795Z" fill="#455A64"/>
<path d="M211.096 269.337L193.596 270.517L191.854 263.863C191.848 263.843 191.837 263.825 191.821 263.811C191.805 263.798 191.785 263.79 191.764 263.788C188.43 262.882 184.417 263.163 179.842 264.618C179.744 264.653 179.657 264.712 179.588 264.789C179.561 264.819 179.541 264.856 179.53 264.895C179.519 264.934 179.518 264.976 179.526 265.016L183.519 275.525C183.528 275.55 183.545 275.571 183.567 275.584C183.59 275.598 183.616 275.604 183.642 275.6L190.502 275.717H190.591L210.931 269.831C211.002 269.81 211.067 269.774 211.123 269.726C211.179 269.677 211.223 269.617 211.254 269.55C211.256 269.527 211.256 269.504 211.254 269.481C211.288 269.385 211.199 269.33 211.096 269.337ZM190.708 275.223L184.013 275.113L180.15 264.94C184.404 263.65 188.149 263.417 191.284 264.254L193.034 270.936C193.034 270.991 193.109 271.025 193.191 271.018L208.908 269.962L190.708 275.223Z" fill="#455A64"/>
<path d="M208.935 269.955L190.708 275.223L184.013 275.113L180.15 264.94C184.404 263.65 188.149 263.417 191.284 264.254L193.034 270.936C193.034 270.991 193.109 271.025 193.191 271.018L208.935 269.955Z" fill="#0096C7"/>
<path d="M225.934 243.743L212.344 237.905H212.269L205.279 238.042C205.202 238.046 205.128 238.072 205.066 238.117L188.952 248.654C188.866 248.708 188.799 248.787 188.76 248.881C188.745 248.912 188.742 248.948 188.752 248.981C188.762 249.014 188.785 249.042 188.815 249.059C191.723 250.5 195.414 250.767 199.791 249.855C199.854 249.838 199.915 249.81 199.969 249.773L209.381 243.105L225.564 244.216C225.636 244.212 225.707 244.192 225.771 244.158C225.835 244.124 225.891 244.075 225.934 244.017C225.975 243.971 225.999 243.913 226.003 243.852C226.004 243.829 225.999 243.806 225.986 243.786C225.974 243.767 225.956 243.751 225.934 243.743ZM209.58 242.597C209.487 242.596 209.398 242.628 209.326 242.686L199.866 249.382C195.75 250.218 192.32 249.999 189.521 248.696L205.114 238.515L211.974 238.385L224.13 243.605L209.58 242.597Z" fill="#455A64"/>
<path d="M224.109 243.605L209.58 242.597C209.487 242.596 209.398 242.628 209.326 242.686L199.866 249.382C195.75 250.218 192.32 249.999 189.521 248.696L205.114 238.515L211.974 238.385L224.109 243.605Z" fill="#0096C7"/>
<path d="M225.276 256.468L208.222 253.134H208.146L182.73 256.564C182.658 256.579 182.591 256.608 182.531 256.649C182.471 256.69 182.419 256.743 182.38 256.804C182.304 256.928 182.339 257.03 182.449 257.051L203.927 260.481H204.01L225.001 256.955C225.072 256.94 225.14 256.91 225.199 256.868C225.258 256.825 225.307 256.771 225.344 256.708C225.364 256.672 225.376 256.632 225.378 256.591C225.38 256.562 225.371 256.532 225.352 256.509C225.333 256.486 225.305 256.471 225.276 256.468ZM204.243 259.994L184.349 256.818L207.92 253.655L223.739 256.729L204.243 259.994Z" fill="#455A64"/>
<path d="M223.711 256.722L204.243 259.987L184.321 256.811L207.892 253.648L223.711 256.722Z" fill="#0096C7"/>
<path d="M203.207 271.608L201.238 272.184L199.249 272.767L197.026 273.412C196.22 273.653 195.48 274.074 194.861 274.644C194.241 275.213 193.76 275.915 193.452 276.698C193.068 278.07 194.001 278.873 195.585 278.537L197.685 278.091H197.746L199.688 277.679L201.595 277.274C202.631 277.014 203.433 275.395 203.804 274.091C203.939 273.631 204.02 273.157 204.044 272.678C204.078 271.944 203.859 271.443 203.207 271.608ZM203.262 274.215C202.898 275.518 202.212 276.671 201.753 276.787L200.381 277.075L199.729 277.213L198.357 277.501L197.733 277.638L195.709 278.063C194.598 278.296 193.877 277.837 193.898 276.993C193.905 276.844 193.93 276.697 193.973 276.554C194.224 275.916 194.617 275.343 195.122 274.879C195.627 274.416 196.231 274.073 196.889 273.879L198.947 273.268L199.585 273.083L200.957 272.678L201.643 272.479L203.015 272.074C203.543 271.965 203.632 272.925 203.262 274.215Z" fill="#455A64"/>
<path d="M201.684 272.479C201.655 272.411 201.613 272.349 201.56 272.297C201.507 272.245 201.444 272.205 201.375 272.177C201.326 272.164 201.274 272.164 201.224 272.177L199.235 272.76C199.117 272.796 199.016 272.871 198.947 272.973C198.878 273.069 198.878 273.165 198.947 273.206C198.966 273.221 198.983 273.24 198.995 273.261C199.228 273.543 199.201 274.338 198.926 275.319C198.716 276.172 198.318 276.967 197.76 277.645L197.671 277.734C197.63 277.766 197.596 277.806 197.572 277.852C197.548 277.899 197.535 277.95 197.534 278.002C197.542 278.032 197.561 278.059 197.587 278.077C197.614 278.095 197.646 278.102 197.678 278.098H197.74L199.681 277.686C199.736 277.671 199.787 277.645 199.832 277.61C200.035 277.466 200.215 277.293 200.367 277.096C200.912 276.37 201.31 275.545 201.54 274.668C201.68 274.211 201.76 273.738 201.78 273.261C201.807 272.997 201.774 272.729 201.684 272.479ZM200.998 274.784C200.783 275.688 200.344 276.523 199.722 277.213L198.35 277.501C198.847 276.796 199.217 276.008 199.441 275.175C199.676 274.504 199.73 273.782 199.599 273.083L200.971 272.678C201.307 272.87 201.307 273.714 200.998 274.784Z" fill="#455A64"/>
<path d="M200.998 274.784C200.783 275.688 200.344 276.523 199.722 277.213L198.35 277.501C198.847 276.796 199.217 276.008 199.441 275.175C199.676 274.504 199.73 273.782 199.599 273.083L200.971 272.678C201.307 272.87 201.307 273.714 200.998 274.784Z" fill="#0096C7"/>
<path d="M225.179 236.306L223.725 235.909L222.264 235.504L220.624 235.051C219.431 234.722 217.558 235.538 216.371 236.903C215.184 238.268 215.088 239.709 216.165 240.182L217.64 240.82L218.964 241.397L220.275 241.966C220.515 242.048 220.995 241.966 221.914 241.28C222.573 240.74 223.184 240.143 223.739 239.496C224.271 238.9 224.742 238.252 225.145 237.562C225.303 237.303 225.404 237.013 225.44 236.711C225.454 236.624 225.434 236.534 225.386 236.459C225.338 236.385 225.265 236.331 225.179 236.306ZM224.638 237.576C224.267 238.212 223.832 238.81 223.341 239.359C222.83 239.954 222.268 240.503 221.66 240.999C221.194 241.369 220.837 241.547 220.686 241.499L219.767 241.102L219.314 240.903L218.395 240.505L217.976 240.32L216.604 239.716C215.726 239.332 215.795 238.159 216.769 237.04C217.743 235.922 219.266 235.257 220.247 235.531L221.791 235.957L222.25 236.08L223.286 236.361L223.78 236.499L224.802 236.78C224.933 236.835 224.878 237.123 224.638 237.576Z" fill="#455A64"/>
<path d="M223.808 235.984C223.803 235.965 223.792 235.948 223.777 235.934C223.763 235.921 223.745 235.912 223.725 235.909L222.264 235.504C222.155 235.496 222.048 235.528 221.961 235.594C221.874 235.659 221.814 235.754 221.791 235.861C221.791 235.861 221.791 235.915 221.791 235.95C221.438 236.81 220.923 237.595 220.275 238.262C219.626 239.063 218.855 239.758 217.99 240.32L217.874 240.374C217.76 240.419 217.666 240.501 217.606 240.608C217.558 240.704 217.572 240.786 217.647 240.82L218.971 241.397C219.02 241.414 219.073 241.414 219.122 241.397C219.365 241.331 219.596 241.229 219.808 241.095C220.688 240.476 221.484 239.745 222.175 238.92C222.847 238.205 223.396 237.385 223.801 236.492C223.841 236.379 223.864 236.261 223.869 236.142C223.86 236.086 223.839 236.032 223.808 235.984ZM221.75 238.79C221.081 239.642 220.257 240.359 219.321 240.903L218.402 240.505C219.232 239.896 219.987 239.191 220.652 238.406C221.291 237.712 221.825 236.929 222.237 236.08L223.272 236.361C223.293 236.725 222.655 237.733 221.743 238.79H221.75Z" fill="#455A64"/>
<path d="M223.266 236.361C223.266 236.725 222.655 237.733 221.743 238.79C221.075 239.642 220.25 240.359 219.314 240.903L218.395 240.505C219.225 239.896 219.98 239.191 220.645 238.406C221.285 237.712 221.819 236.929 222.23 236.08L223.266 236.361Z" fill="#0096C7"/>
<path d="M150.591 252.86C148.375 252.86 145.528 254.671 144.252 256.886C142.976 259.102 143.744 260.906 145.947 260.906C148.169 260.906 151.009 259.095 152.292 256.88C152.647 256.295 152.857 255.634 152.903 254.952C152.978 253.71 152.114 252.86 150.591 252.86ZM151.812 256.88C150.687 258.828 148.197 260.412 146.241 260.412C144.286 260.412 143.621 258.835 144.746 256.886C145.871 254.938 148.361 253.36 150.309 253.354C152.258 253.347 152.93 254.931 151.812 256.88Z" fill="#455A64"/>
<path d="M273.632 124.166C270.771 127.973 264.995 134.799 262.127 138.4C260.609 140.282 259.787 142.63 259.802 145.048C259.802 146.838 260.316 148.334 262.066 147.572C263.335 147.017 264.124 146.365 265.99 144.54C267.65 142.901 277.254 130.758 277.254 130.758C277.254 130.758 278.043 123.953 280.526 123.212C283.009 122.472 279.634 120.414 279.634 120.414C278.585 120.53 276.52 120.324 273.632 124.166Z" fill="#9A4A4D"/>
<path d="M238.495 215.205L220.563 235.675C220.448 235.804 220.296 235.894 220.128 235.932C219.959 235.97 219.783 235.955 219.624 235.888C219.465 235.822 219.331 235.708 219.239 235.561C219.148 235.415 219.105 235.244 219.115 235.072L220.899 207.762L238.495 215.205Z" fill="#FFA8A7"/>
<path d="M219.115 235.072C219.105 235.244 219.148 235.415 219.239 235.561C219.331 235.708 219.465 235.822 219.624 235.888C219.783 235.955 219.959 235.97 220.128 235.932C220.296 235.894 220.448 235.804 220.563 235.675L224.061 231.676C223.223 231.763 222.378 231.617 221.618 231.253C220.857 230.89 220.212 230.324 219.753 229.618L219.493 229.227L219.115 235.072Z" fill="#263238"/>
<path d="M264.796 101.672L263.836 104.004L262.663 106.81L220.892 207.755C221.995 210.621 224.142 212.964 226.901 214.313C231.017 216.508 235.95 216.906 238.474 215.198L279.888 114.994L282.111 109.623C280.505 113.018 263.184 105.102 264.796 101.672Z" fill="#0096C7"/>
<path d="M261.085 110.521L258.944 115.728C258.258 117.217 261.085 119.508 264.659 121.367C269.392 123.857 275.456 125.586 276.321 123.617L277.905 119.782L278.447 118.41C277.556 120.379 271.491 118.657 266.751 116.167C263.321 114.377 260.577 112.182 261.002 110.679C261.016 110.62 261.044 110.566 261.085 110.521Z" fill="#EBEBEB"/>
<path d="M260.563 111.818C258.999 115.248 276.389 123.158 277.953 119.707L280.114 114.5C278.55 117.93 261.16 110.069 262.724 106.618L260.563 111.818Z" fill="#0096C7"/>
<path d="M264.796 101.672L262.663 106.81C261.085 110.185 277.83 117.992 279.888 114.994C279.932 114.937 279.968 114.875 279.998 114.809L282.111 109.623C280.505 113.018 263.184 105.102 264.796 101.672Z" fill="#EBEBEB"/>
<path opacity="0.1" d="M279.888 114.994L282.111 109.623C281.37 111.159 277.432 110.377 273.481 108.752L230.228 215.658L220.563 235.675L238.495 215.205L279.888 114.994Z" fill="black"/>
<path d="M273.81 79.8847L264.796 101.672C264.11 103.14 266.854 105.424 270.421 107.29C275.148 109.794 281.226 111.571 282.159 109.623L290.864 88.6449C293.292 83.9252 284.916 77.9845 278.9 77.6689C276.623 77.518 274.716 78.1217 273.81 79.8847Z" fill="#FFA8A7"/>
<path d="M282.138 87.074L273.508 108.745C277.027 110.192 280.519 110.967 281.74 110.034C281.829 109.961 281.912 109.881 281.987 109.794C282.028 109.733 282.076 109.685 282.111 109.623L291.063 88.0207C289.952 90.6137 282.138 87.074 282.138 87.074Z" fill="#F28F8F"/>
<path d="M309.173 230.668L304.227 232.142L302.087 224.933L307.143 223.204L309.173 230.668Z" fill="#B16668"/>
<path d="M303.5 229.7L303.287 229.014C302.876 229.357 302.752 233.734 301.593 236.258C300.331 239.002 298.993 240.978 298.431 242.22C297.676 243.88 300.612 244.758 303.857 243.16C305.462 242.364 308.041 240.292 308.453 238.961C308.865 237.63 308.721 235.909 309.077 234.914C309.434 233.919 310.545 232.616 310.593 231.58C310.429 230.674 310.068 229.814 309.537 229.062C309.05 228.26 308.515 227.368 308.24 227.539C308.24 227.649 308.398 228.081 308.398 228.081C307.922 228.939 307.207 229.64 306.34 230.098C305.565 230.496 303.761 230.558 303.5 229.7Z" fill="#263238"/>
<path d="M296.915 148.45C299.899 152.278 300.434 156.23 299.782 167.418C299.13 178.607 298.931 187.998 299.096 188.595C299.261 189.192 302.773 193.72 303.898 197.815C305.023 201.91 308.103 225.111 308.103 225.111C307.429 225.944 306.569 226.609 305.592 227.052C304.616 227.495 303.549 227.704 302.478 227.663C302.478 227.663 290.027 193.761 289.19 191.236C288.353 188.712 283.016 162.205 283.016 162.205L283.826 147.236L296.915 148.45Z" fill="#37474F"/>
<path d="M283.935 115.488H288.051C290.641 115.488 293.125 114.46 294.956 112.629C296.788 110.799 297.818 108.316 297.82 105.726C297.82 102.588 296.573 99.578 294.354 97.3588C292.135 95.1396 289.125 93.8928 285.987 93.8928C282.848 93.8928 279.838 95.1396 277.619 97.3588C275.4 99.578 274.153 102.588 274.153 105.726C274.153 107.01 274.406 108.281 274.898 109.467C275.39 110.652 276.111 111.729 277.019 112.636C277.928 113.543 279.007 114.262 280.193 114.751C281.38 115.24 282.652 115.491 283.935 115.488Z" fill="#263238"/>
<path d="M277.726 221.201L272.568 221.133L272.468 228.651L277.626 228.719L277.726 221.201Z" fill="#B16668"/>
<path d="M274.126 161.32C274.585 156.154 275.69 147.202 275.69 147.202L288.902 146.427C291.042 149.761 290.109 155.345 289.526 160.325L281.98 189.905C282.131 191.325 283.435 194.33 281.98 201.945C280.354 210.451 277.94 222.641 277.94 222.641C277.94 222.641 274.174 224.535 272.315 222.47C272.315 222.47 271.32 194.824 272.02 187.484C272.767 179.499 273.817 164.86 274.126 161.32Z" fill="#37474F"/>
<path d="M272.52 226.085V225.344C272.026 225.55 270.6 229.693 268.747 231.758C266.724 234.015 264.858 235.49 263.945 236.505C262.738 237.877 265.276 239.579 268.843 239.016C270.62 238.742 273.7 237.521 274.482 236.382C275.264 235.243 275.649 233.542 276.286 232.705C276.924 231.868 278.344 230.942 278.722 229.961C278.839 229.038 278.75 228.101 278.461 227.217C278.235 226.305 277.988 225.296 277.679 225.378C277.679 225.488 277.679 225.941 277.679 225.941C276.963 226.617 276.068 227.072 275.1 227.251C274.263 227.423 272.514 226.984 272.52 226.085Z" fill="#263238"/>
<path d="M277.261 136.85C276.931 139.869 274.983 152.978 274.983 152.978C284.944 158.288 297.299 154.768 299.185 152.58C297.477 146.941 295.632 143.731 294.225 142.235L296.352 133.948C296.352 133.948 291.55 128.831 295.824 120.77L290.542 120.338L282.79 120.112C280.938 120.215 279.614 120.393 279.614 120.393C278.197 122.744 276.983 125.211 275.985 127.768C275.216 129.771 274.4 132.7 277.261 136.85Z" fill="#F0F0F0"/>
<path d="M278.393 99.0447C277.144 99.7856 275.601 102.927 275.751 109.52C275.882 115.104 277.693 116.483 278.598 116.881C279.504 117.279 281.26 117.038 282.968 116.75V120.105C282.968 120.105 280.608 122.849 280.759 124.379C280.91 125.908 284.189 126.279 286.364 124.777C287.959 123.54 289.332 122.041 290.425 120.345L290.384 112.641C290.384 112.641 291.392 113.615 293.094 112.127C294.466 110.899 294.966 108.834 293.876 107.723C293.592 107.458 293.249 107.265 292.876 107.159C292.502 107.053 292.109 107.037 291.729 107.113C291.348 107.189 290.991 107.354 290.687 107.595C290.383 107.835 290.14 108.145 289.979 108.498C289.979 108.498 287.235 108.594 283.647 106.604C282.238 105.847 281.028 104.767 280.115 103.453C279.202 102.14 278.612 100.629 278.393 99.0447Z" fill="#B16668"/>
<path d="M281.987 108.114C281.977 108.21 281.986 108.307 282.016 108.399C282.046 108.491 282.095 108.576 282.159 108.648C282.224 108.72 282.303 108.778 282.392 108.817C282.481 108.856 282.576 108.876 282.673 108.875C282.817 108.883 282.96 108.848 283.084 108.775C283.208 108.701 283.307 108.593 283.369 108.463C283.432 108.333 283.454 108.188 283.433 108.045C283.413 107.903 283.35 107.769 283.254 107.662C283.157 107.555 283.031 107.479 282.892 107.444C282.752 107.409 282.605 107.416 282.469 107.464C282.334 107.512 282.215 107.6 282.13 107.716C282.044 107.831 281.994 107.97 281.987 108.114Z" fill="#263238"/>
<path d="M281.802 112.847L280.169 113.368C280.199 113.478 280.251 113.58 280.321 113.669C280.391 113.758 280.478 113.832 280.577 113.887C280.676 113.942 280.785 113.977 280.898 113.989C281.01 114.001 281.124 113.991 281.233 113.958C281.451 113.88 281.631 113.722 281.737 113.515C281.843 113.309 281.866 113.07 281.802 112.847Z" fill="#9A4A4D"/>
<path d="M276.232 105.96L277.652 104.972C277.592 104.876 277.513 104.794 277.421 104.73C277.328 104.665 277.224 104.621 277.113 104.598C277.003 104.576 276.889 104.576 276.779 104.599C276.668 104.622 276.564 104.667 276.472 104.732C276.283 104.867 276.153 105.07 276.108 105.298C276.063 105.526 276.108 105.763 276.232 105.96Z" fill="#263238"/>
<path d="M276.554 107.606C276.554 107.739 276.594 107.869 276.667 107.981C276.74 108.092 276.844 108.18 276.966 108.233C277.089 108.286 277.224 108.302 277.355 108.28C277.486 108.258 277.608 108.198 277.706 108.107C277.804 108.017 277.873 107.9 277.906 107.77C277.938 107.641 277.932 107.505 277.888 107.379C277.845 107.253 277.765 107.143 277.66 107.061C277.555 106.98 277.428 106.931 277.295 106.92C277.106 106.914 276.923 106.983 276.784 107.111C276.646 107.24 276.563 107.417 276.554 107.606Z" fill="#263238"/>
<path d="M279.867 107.208L279.758 111.434L277.535 110.748L279.867 107.208Z" fill="#9A4A4D"/>
<path d="M282.968 116.75C284.765 116.517 288.456 115.454 289.032 114.006C288.801 114.746 288.349 115.398 287.736 115.872C286.631 116.819 282.968 117.882 282.968 117.882V116.75Z" fill="#9A4A4D"/>
<path d="M297.724 107.565L300.242 105.719C300.129 105.549 299.983 105.403 299.812 105.29C299.641 105.178 299.449 105.101 299.248 105.064C299.047 105.028 298.84 105.032 298.641 105.078C298.441 105.123 298.253 105.208 298.088 105.328C297.752 105.584 297.528 105.958 297.46 106.374C297.392 106.79 297.487 107.216 297.724 107.565Z" fill="#263238"/>
<path d="M285.376 173.874L283.215 163.014C281.306 162.338 279.493 161.416 277.823 160.27C278.89 161.621 280.163 162.794 281.596 163.748L285.376 173.874Z" fill="#263238"/>
<path d="M296.352 115.536C294.061 114.377 294.376 112.209 295.536 109.911C296.695 107.613 298.245 106.069 300.543 107.222C301.605 107.801 302.401 108.77 302.761 109.924C303.121 111.079 303.018 112.328 302.474 113.408C301.929 114.488 300.986 115.314 299.843 115.711C298.701 116.109 297.449 116.046 296.352 115.536Z" fill="#263238"/>
<path d="M259.39 149.85C260.543 150.152 261.661 150.056 263.252 150.604C264.31 151.063 265.464 151.259 266.614 151.174C268.109 151.078 272.013 149.232 275.477 147.126C279.278 144.659 282.626 141.556 285.376 137.955C288.511 133.516 291.982 126.512 293.642 123.837C295.302 121.161 295.872 120.77 295.872 120.77C298.04 120.859 300.194 122.828 298.753 128.138C297.559 132.515 294.356 138.188 290.411 142.962C287.414 146.492 283.857 149.505 279.881 151.88C276.218 154.117 273.021 155.228 268.905 156.593C267.794 156.964 267.067 157.512 265.036 158.473C264.218 158.916 263.34 159.237 262.429 159.426C261.292 159.59 260.137 159.59 258.999 159.426C257.554 159.227 256.189 158.642 255.048 157.732C254.423 157.234 253.923 156.598 253.587 155.873C253.254 155.138 253.191 154.31 253.408 153.534C253.448 153.376 253.529 153.232 253.642 153.115C253.761 153.03 253.895 152.969 254.038 152.936C254.18 152.903 254.328 152.899 254.472 152.923C256.134 153.088 257.803 153.168 259.473 153.163C260.845 153.067 261.798 152.806 261.599 152.614C261.4 152.422 260.605 152.532 259.507 152.059C258.409 151.585 257.689 150.543 257.991 150.001C258.293 149.459 258.238 149.548 259.39 149.85Z" fill="#B16668"/>
<path d="M251.817 132.995C253.405 132.306 255.157 132.087 256.866 132.364C258.238 132.59 258.238 137.166 253.827 138.627C250.953 139.567 249.224 139.148 248.298 141.515C248.298 141.515 246.432 141.268 246.857 138.627C247.324 135.899 248.548 133.358 250.39 131.294C251.652 129.798 251.762 128.55 252.359 128.961C252.956 129.373 252.736 130.834 252.736 130.834L251.817 132.995Z" fill="#B16668"/>
<path d="M73.7244 136.336C76.784 139.992 82.3612 146.969 85.2286 150.57C86.7502 152.45 87.5722 154.799 87.5542 157.217C87.5542 159.008 87.0465 160.503 85.2904 159.742C84.0281 159.186 83.2324 158.535 81.3733 156.71C79.7132 155.07 73.8273 147.998 73.8273 147.998C73.8273 147.998 69.3134 136.123 66.8301 135.368C65.4754 134.922 64.0494 134.731 62.6249 134.806C65.6228 133.77 69.8417 131.712 73.7244 136.336Z" fill="#F28F8F"/>
<path d="M61.1432 132.432C64.2096 130.127 69.3752 130.724 72.2701 134.195C74.3761 136.74 79.3771 142.949 79.3771 142.949C78.7667 144.308 77.8781 145.525 76.7686 146.52C75.6591 147.515 74.3533 148.266 72.9355 148.725L61.1432 132.432Z" fill="#E0E0E0"/>
<path d="M119.831 214.341C119.831 214.341 111.214 183.107 99.0653 153.664C87.0123 124.502 68.4286 94.915 65.321 90.4491L65.2798 90.3942L65.2318 90.3256C64.9351 89.9316 64.522 89.6408 64.051 89.4943C63.58 89.3478 63.0749 89.353 62.607 89.5092C62.1391 89.6654 61.7322 89.9647 61.4437 90.3648C61.1551 90.7649 60.9997 91.2455 60.9992 91.7388C60.9986 91.9189 61.0193 92.0986 61.0609 92.2739C61.0609 92.2739 69.2929 132.666 81.1813 161.347C93.0697 190.029 109.307 218.731 109.307 218.731C109.571 219.108 109.918 219.42 110.321 219.643C110.724 219.865 111.173 219.992 111.633 220.014C113.04 220.12 114.452 219.895 115.756 219.355C117.059 218.815 118.218 217.976 119.138 216.906C119.441 216.56 119.662 216.149 119.782 215.704C119.902 215.259 119.918 214.793 119.831 214.341Z" fill="#0096C7"/>
<path opacity="0.1" d="M60.9923 91.7664C60.9917 91.9466 61.0124 92.1262 61.054 92.3015C61.054 92.3015 69.286 132.693 81.1744 161.375C89.1526 180.672 99.1064 199.969 104.773 210.54L110.988 206.603C110.988 206.603 61.5068 90.2984 63.3521 89.4135C63.0425 89.4126 62.7358 89.4728 62.4495 89.5906C62.1633 89.7084 61.9031 89.8816 61.6839 90.1002C61.4646 90.3188 61.2907 90.5785 61.172 90.8644C61.0533 91.1503 60.9923 91.4569 60.9923 91.7664Z" fill="black"/>
<path d="M109.273 218.759C108.271 223.801 106.529 230.276 109.698 238.687C113.272 248.236 124.104 250.87 129.304 250.877C136.555 250.877 141.144 248.188 141.144 248.188C141.144 248.188 137.392 246.747 135.842 241.328C135.534 240.147 135.345 238.938 135.279 237.72C134.943 233.329 134.799 228.548 130.964 223.245C128.184 219.27 124.322 216.175 119.837 214.327L109.273 218.759Z" fill="#EBEBEB"/>
<path d="M135.828 241.328C135.52 240.147 135.332 238.938 135.265 237.72C135.265 237.754 133.955 243.441 130.752 243.105C127.548 242.769 126.636 239.359 122.376 239.359C117.196 239.359 115.413 243.708 110.974 241.362C115.42 248.833 124.578 250.87 129.29 250.877C136.541 250.877 141.131 248.188 141.131 248.188C141.131 248.188 137.392 246.747 135.828 241.328Z" fill="#0096C7"/>
<path opacity="0.1" d="M122.3 243.16C113.917 237.349 115.495 221.894 115.742 219.376L109.273 218.759C108.271 223.801 106.529 230.276 109.698 238.687C113.272 248.236 124.104 250.87 129.304 250.877C136.555 250.877 141.144 248.188 141.144 248.188C141.144 248.188 132.117 249.972 122.3 243.16Z" fill="black"/>
<path d="M109.273 218.759C109.537 219.136 109.883 219.448 110.287 219.67C110.69 219.893 111.139 220.02 111.598 220.041C113.005 220.148 114.418 219.922 115.721 219.382C117.025 218.843 118.184 218.004 119.103 216.934C119.418 216.588 119.648 216.173 119.775 215.723C119.902 215.274 119.924 214.8 119.837 214.341C118.616 210.005 117.21 205.306 115.68 200.367C115.982 201.327 115.68 202.507 114.782 203.715C113.622 205.068 112.16 206.128 110.514 206.81C108.868 207.492 107.084 207.776 105.308 207.638C103.757 207.44 102.715 206.767 102.269 205.848C104.958 210.876 107.469 215.576 109.273 218.759Z" fill="#455A64"/>
<path d="M110.988 206.603C109.225 207.46 107.26 207.819 105.308 207.638C103.757 207.44 102.715 206.767 102.269 205.848C104.944 210.876 107.469 215.576 109.273 218.759C109.537 219.136 109.883 219.448 110.287 219.67C110.69 219.893 111.139 220.02 111.598 220.041C113.006 220.164 114.422 219.928 115.714 219.355L115.79 219.225L110.988 206.582V206.603Z" fill="#37474F"/>
<path d="M67.1813 121.545C71.1821 120.6 73.6599 116.592 72.7156 112.591C71.7713 108.59 67.7626 106.112 63.7618 107.056C59.761 108.001 57.2832 112.01 58.2275 116.01C59.1718 120.011 63.1805 122.489 67.1813 121.545Z" fill="#263238"/>
<path d="M47.6633 249.169H52.9043V240.196H47.6633V249.169Z" fill="#FFA8A7"/>
<path d="M65.8286 239.716L71.0696 239.894L71.3303 230.4L66.0961 230.222L65.8286 239.716Z" fill="#FFA8A7"/>
<path d="M48.02 169.072C48.02 174.079 47.334 204.407 47.334 204.407C47.2105 205.848 45.866 208.523 46.1541 214.011C46.552 221.523 47.2037 241.06 47.2037 241.06C47.2037 241.06 49.6595 243.496 53.1307 241.06C53.1307 241.06 57.8778 214.039 58.8108 206.589C59.682 200.113 61.054 182.476 61.054 182.476L65.9109 203.255C65.9109 203.255 65.0534 208.139 64.8682 211.583C64.6829 215.027 65.7531 233.082 65.7531 233.082C66.6029 233.613 67.5771 233.912 68.5785 233.95C69.5799 233.987 70.5736 233.761 71.4606 233.295C71.4606 233.295 75.6658 206.068 76.2077 202.953C76.7497 199.839 72.5239 169.085 72.5239 169.085L48.02 169.072Z" fill="#37474F"/>
<path d="M53.0415 132.871C51.9245 133.066 50.8903 133.588 50.0698 134.371C49.2493 135.154 48.6792 136.162 48.4316 137.269C48.1468 138.576 48.0042 139.91 48.0063 141.247V169.072C51.6764 173.071 64.4703 174.93 72.5171 169.072C72.5171 169.072 72.3593 144.499 71.7556 140.459C70.7129 133.441 67.3583 130.944 63.9832 131.204L55.8953 132.398L53.0415 132.871Z" fill="#F0F0F0"/>
<path d="M52.6162 119.584C52.6162 119.584 53.8236 125.25 54.3038 126.183C54.6286 126.754 55.1582 127.181 55.7855 127.376L55.7032 123.391L52.6162 119.584Z" fill="#263238"/>
<path d="M54.1323 111.468C53.7102 111.42 53.2828 111.468 52.8822 111.61C52.4817 111.751 52.1186 111.982 51.8204 112.284C50.8257 113.3 51.3814 116.476 52.6162 119.584L54.8869 119.844L54.1323 111.468Z" fill="#263238"/>
<path d="M55.566 119.851C55.1132 120.119 54.4615 119.247 53.899 118.657C53.3365 118.067 51.5049 117.285 50.5925 119.192C49.6801 121.1 51.402 123.754 52.8426 124.207C55.3328 124.989 55.7032 123.391 55.7032 123.391L55.8953 132.398C56.4442 133.601 57.283 134.65 58.3365 135.45C59.39 136.249 60.6254 136.775 61.9321 136.98C66.3431 137.577 65.4375 133.941 63.9901 132.178V129.434C65.0989 129.612 66.2233 129.672 67.3446 129.613C69.1762 129.325 70.3287 127.884 70.8775 125.902C71.7693 122.725 72.1123 120.153 71.3509 113.903C70.5277 107.043 62.5495 106.975 58.2483 109.685C53.947 112.394 55.566 119.851 55.566 119.851Z" fill="#FFA8A7"/>
<path d="M55.566 120.613C55.3396 120.613 54.4684 119.172 53.899 118.657C53.117 117.971 54.1323 111.468 54.1323 111.468C53.9244 110.909 53.8851 110.301 54.0192 109.719C54.1533 109.137 54.455 108.608 54.8869 108.196C55.9639 107.016 57.7612 106.879 60.8345 106.399C62.4397 106.145 64.8819 105.713 66.494 105.397C68.4148 105.04 70.0063 104.663 71.3577 105.843C71.8873 106.305 72.2621 106.919 72.4315 107.601C72.6008 108.283 72.5564 109.001 72.3044 109.657C72.1636 109.955 71.9785 110.23 71.7556 110.473C71.3907 110.906 70.9171 111.232 70.3836 111.42C70.3836 111.42 69.5467 112.168 66.6312 112.518C63.941 112.72 61.2377 112.669 58.557 112.367C57.7132 112.25 57.5348 113.053 57.0752 115.31C56.6705 117.306 56.3343 120.599 55.566 120.613Z" fill="#263238"/>
<path d="M54.1323 111.976L51.3883 110.494C51.4765 110.312 51.6002 110.15 51.7521 110.016C51.904 109.883 52.081 109.782 52.2728 109.718C52.4645 109.654 52.6671 109.629 52.8687 109.644C53.0702 109.66 53.2666 109.715 53.4463 109.808C53.8174 110.012 54.0958 110.351 54.2236 110.754C54.3513 111.158 54.3186 111.596 54.1323 111.976Z" fill="#263238"/>
<path d="M63.9764 129.393C63.9764 129.393 59.8604 128.577 58.4884 127.816C57.6482 127.377 56.9597 126.696 56.5127 125.86C56.7242 126.696 57.1022 127.48 57.624 128.165C58.6667 129.503 63.9832 130.484 63.9832 130.484L63.9764 129.393Z" fill="#F28F8F"/>
<path d="M62.9954 118.829C62.9913 118.989 62.94 119.145 62.8479 119.277C62.7558 119.408 62.6269 119.51 62.4774 119.568C62.328 119.627 62.1645 119.64 62.0075 119.606C61.8506 119.573 61.707 119.493 61.5949 119.378C61.4828 119.263 61.4071 119.118 61.3772 118.96C61.3473 118.802 61.3647 118.639 61.427 118.491C61.4894 118.343 61.594 118.217 61.7277 118.128C61.8615 118.039 62.0185 117.992 62.179 117.992C62.2877 117.993 62.3952 118.015 62.4952 118.058C62.5951 118.101 62.6857 118.163 62.7616 118.24C62.8375 118.318 62.8972 118.41 62.9373 118.511C62.9775 118.612 62.9972 118.72 62.9954 118.829Z" fill="#263238"/>
<path d="M62.131 115.742L60.368 116.702C60.2495 116.465 60.2253 116.191 60.3004 115.937C60.3755 115.682 60.5443 115.465 60.7727 115.33C60.888 115.264 61.0156 115.222 61.1477 115.207C61.2798 115.192 61.4136 115.204 61.5408 115.243C61.6681 115.281 61.7861 115.345 61.8876 115.431C61.9891 115.517 62.0719 115.623 62.131 115.742Z" fill="#263238"/>
<path d="M63.6059 124.482L65.4787 125.168C65.4379 125.293 65.3723 125.408 65.2857 125.508C65.1992 125.607 65.0936 125.688 64.9752 125.746C64.8568 125.803 64.7279 125.836 64.5964 125.843C64.4649 125.85 64.3333 125.83 64.2096 125.785C63.9611 125.686 63.7599 125.496 63.6475 125.254C63.5352 125.011 63.5203 124.735 63.6059 124.482Z" fill="#F28F8F"/>
<path d="M70.2944 116.421L68.696 115.193C68.7709 115.087 68.8662 114.998 68.9763 114.93C69.0864 114.862 69.2091 114.816 69.3371 114.797C69.465 114.777 69.5956 114.783 69.7212 114.814C69.8468 114.846 69.9647 114.902 70.068 114.98C70.2837 115.145 70.4275 115.387 70.4697 115.655C70.5118 115.924 70.4491 116.198 70.2944 116.421Z" fill="#263238"/>
<path d="M69.8005 118.596C69.7938 118.756 69.7402 118.91 69.6466 119.039C69.5529 119.169 69.4232 119.268 69.2735 119.325C69.1239 119.382 68.9609 119.393 68.8049 119.358C68.6489 119.322 68.5067 119.242 68.3959 119.127C68.2851 119.011 68.2107 118.866 68.1819 118.708C68.1531 118.551 68.1711 118.389 68.2338 118.242C68.2965 118.094 68.401 117.969 68.5344 117.881C68.6678 117.792 68.8242 117.745 68.9842 117.745C69.094 117.746 69.2026 117.769 69.3035 117.812C69.4044 117.856 69.4956 117.919 69.5717 117.998C69.6478 118.077 69.7072 118.171 69.7465 118.274C69.7858 118.376 69.8042 118.486 69.8005 118.596Z" fill="#263238"/>
<path d="M65.6365 117.82L65.904 122.739L68.4697 121.868L65.6365 117.82Z" fill="#F28F8F"/>
<path d="M52.8975 246.576V245.828C53.4051 246.048 54.5644 250.493 56.6499 252.386C58.3031 253.895 60.5532 255.638 61.1295 257.319C61.7057 258.999 57.9876 260.063 56.4441 259.761C54.6468 259.438 51.5392 258.176 50.7571 257.017C49.9751 255.857 49.6115 254.122 48.9804 253.264C48.3493 252.407 46.8812 251.446 46.5382 250.452C46.3462 249.903 46.5382 248.709 46.8401 247.708C47.1419 246.706 47.3409 245.759 47.6564 245.849C47.6564 245.958 47.6564 246.418 47.6564 246.418C48.4017 247.006 49.3275 247.319 50.2769 247.303C51.0453 247.317 52.9043 247.159 52.8975 246.576Z" fill="#263238"/>
<path d="M71.1245 238.275C71.3989 238.275 71.6184 238.673 72.2152 239.318C73.1135 240.225 74.1568 240.976 75.3022 241.541C77.2642 242.522 81.0783 244.031 82.8071 244.813C83.8841 245.293 83.8361 246.596 82.7179 247.344C81.5997 248.092 78.9106 248.613 75.6795 247.893C73.9165 247.502 71.6253 245.876 70.1915 245.958C68.7578 246.041 66.0206 246.027 64.9505 245.272C63.8803 244.518 64.3056 242.954 64.6143 241.602C64.9436 240.121 65.417 237.857 65.904 237.96V238.426C66.5351 239.38 69.7388 239.798 71.1245 239.064V238.275Z" fill="#263238"/>
<path d="M61.054 182.476C63.7632 181.63 66.2545 180.202 68.353 178.291C68.353 178.291 66.9399 180.926 62.7553 183.382L64.3262 196.779L61.054 182.476Z" fill="#263238"/>
<path d="M90.3805 162.911C89.228 163.206 88.1167 163.11 86.5252 163.659C85.4658 164.121 84.3093 164.317 83.1569 164.228C81.6683 164.139 77.7581 162.287 74.2938 160.188C70.504 157.714 67.1653 154.609 64.4223 151.009C61.2872 146.571 57.8161 139.574 56.1903 136.898C54.5644 134.223 52.9592 133.935 51.1139 134.017C48.9461 134.106 47.5604 136.075 49.4675 140.191C52.1905 145.804 55.5314 151.097 59.4282 155.969C62.4226 159.499 65.9779 162.512 69.9514 164.887C73.6147 167.13 76.8114 168.235 80.9274 169.6C82.0387 169.97 82.7728 170.519 84.8033 171.479C85.6184 171.925 86.4944 172.248 87.4033 172.44C88.5405 172.607 89.6961 172.607 90.8333 172.44C92.2783 172.243 93.6434 171.66 94.7846 170.752C95.4133 170.254 95.9161 169.615 96.2527 168.886C96.5829 168.151 96.6437 167.323 96.4242 166.547C96.385 166.391 96.3071 166.247 96.1978 166.129C95.9558 165.961 95.6588 165.892 95.3677 165.937C93.7038 166.104 92.0323 166.187 90.3599 166.183C88.9879 166.081 88.0412 165.827 88.2333 165.635C88.4254 165.443 89.2349 165.552 90.3325 165.079C91.4301 164.606 92.1435 163.556 91.8485 163.021C91.5536 162.486 91.533 162.616 90.3805 162.911Z" fill="#FFA8A7"/>
<path d="M51.7861 133.249C50.1192 133.331 47.9651 134.346 48.0063 137.193C48.0474 140.04 52.4173 148.306 55.7855 153.026C55.7855 153.026 61.0471 152.69 63.8049 148.725C63.8049 148.725 58.8931 140.911 57.5623 138.435C56.3618 136.178 54.194 133.125 51.7861 133.249Z" fill="#E0E0E0"/>
<path d="M95.354 145.075C93.8389 144.436 92.1707 144.25 90.552 144.54C89.18 144.767 89.18 149.342 93.591 150.803C96.4653 151.743 98.1941 151.332 99.1202 153.691C99.1202 153.691 100.979 153.444 100.561 150.803C100.099 148.08 98.8851 145.54 97.0553 143.47C95.7862 141.975 95.6833 140.726 95.0796 141.144C94.4759 141.563 94.4828 143.1 94.4828 143.1L95.354 145.075Z" fill="#FFA8A7"/>
<path d="M215.816 164.077L190.639 163.734L190.42 184.314C190.42 186.174 191.607 188.046 194.049 189.494C198.94 192.389 206.911 192.471 211.885 189.686C214.382 188.28 215.63 186.414 215.624 184.534L215.816 164.077Z" fill="#37474F"/>
<path d="M194.385 158.637C189.439 161.43 189.391 166.033 194.275 168.927C199.16 171.822 207.131 171.905 212.077 169.12C217.023 166.334 217.078 161.731 212.194 158.83C207.309 155.928 199.331 155.852 194.385 158.637Z" fill="#455A64"/>
<path d="M214.718 163.995C214.712 164.332 214.652 164.665 214.54 164.983C214.162 166.163 213.133 167.254 211.528 168.159C208.922 169.435 206.053 170.084 203.151 170.053C200.25 170.022 197.396 169.312 194.817 167.981C193.267 167.062 192.252 165.923 191.895 164.805C191.775 164.465 191.714 164.108 191.716 163.748C191.716 162.218 192.869 160.737 194.913 159.632C197.521 158.361 200.389 157.715 203.29 157.746C206.191 157.777 209.044 158.484 211.624 159.811C213.655 160.97 214.718 162.459 214.718 163.995Z" fill="#263238"/>
<path d="M214.553 164.983C214.176 166.163 213.147 167.254 211.542 168.159C208.936 169.435 206.067 170.084 203.165 170.053C200.263 170.022 197.409 169.312 194.831 167.981C193.281 167.062 192.265 165.923 191.909 164.805C192.481 163.409 193.559 162.279 194.927 161.642C197.531 160.358 200.4 159.704 203.304 159.735C206.207 159.766 209.062 160.481 211.638 161.821C212.962 162.485 213.999 163.609 214.553 164.983Z" fill="#0096C7"/>
<path d="M208.592 171.781C209.148 171.473 209.587 171.733 209.58 172.364C209.558 172.709 209.455 173.044 209.28 173.342C209.105 173.64 208.862 173.892 208.571 174.079C208.016 174.388 207.577 174.127 207.584 173.496C207.606 173.151 207.709 172.817 207.884 172.519C208.059 172.221 208.302 171.968 208.592 171.781Z" fill="#263238"/>
<path d="M190.598 167.384C189.226 170.128 186.482 176.604 190.036 179.252C190.187 179.362 190.324 179.458 190.475 179.554V180.864C190.118 180.651 189.748 180.404 189.391 180.144C184.047 176.179 190.077 166.019 190.338 165.594C190.404 165.48 190.512 165.396 190.639 165.36L190.598 167.384Z" fill="#E0E0E0"/>
<path d="M209.065 173.188C208.914 173.503 205.025 180.939 198.624 182.435C197.901 182.609 197.16 182.697 196.416 182.696C194.293 182.656 192.227 182.008 190.461 180.83V179.519C193.102 181.351 195.764 181.982 198.364 181.378C204.27 180.006 208.05 172.749 208.078 172.68C208.111 172.616 208.156 172.559 208.212 172.513C208.267 172.466 208.331 172.431 208.4 172.41C208.468 172.388 208.541 172.38 208.613 172.386C208.685 172.393 208.754 172.413 208.818 172.447C208.885 172.477 208.944 172.521 208.993 172.576C209.042 172.63 209.079 172.694 209.102 172.764C209.126 172.833 209.134 172.907 209.128 172.979C209.121 173.052 209.1 173.123 209.065 173.188Z" fill="#E0E0E0"/>
<path d="M176.487 123.151H118.863L125.305 176.165C125.6 179.238 127.747 182.256 131.808 184.603C140.568 189.658 154.762 189.658 163.515 184.603C167.576 182.256 169.73 179.238 170.025 176.165L176.487 123.151Z" fill="#37474F"/>
<path d="M127.329 111.379C138.586 104.883 156.827 104.883 168.091 111.379C179.355 117.875 179.348 128.419 168.091 134.916C156.833 141.412 138.593 141.412 127.329 134.916C116.065 128.419 116.071 117.882 127.329 111.379Z" fill="#455A64"/>
<path d="M147.71 136.445C140.589 136.445 133.942 134.874 129.002 132.021C124.632 129.496 122.231 126.347 122.231 123.144C122.231 119.94 124.632 116.798 129.002 114.274C133.942 111.42 140.589 109.849 147.71 109.849C154.83 109.849 161.478 111.42 166.417 114.274C170.787 116.798 173.188 119.947 173.188 123.144C173.188 126.341 170.787 129.496 166.417 132.014C161.478 134.874 154.83 136.445 147.71 136.445Z" fill="#263238"/>
<mask id="mask0_2_914" style="mask-type:luminance" maskUnits="userSpaceOnUse" x="111" y="20" width="78" height="117">
<path d="M147.325 136.445C140.205 136.445 133.557 134.874 128.618 132.021C124.248 129.496 121.847 126.347 121.847 123.144C121.847 119.94 111.091 42.0792 111.091 42.0792L136.878 20.875L188.087 39.4656C188.087 39.4656 173.188 119.947 173.188 123.158C173.188 126.368 170.492 129.681 166.129 132.199C161.21 135.039 154.446 136.445 147.325 136.445Z" fill="white"/>
</mask>
<g mask="url(#mask0_2_914)">
<path d="M162.856 68.7852L162.534 70.8432L162.122 73.3608L147.833 164.043C149.29 166.165 151.495 167.658 154.007 168.221C157.78 169.216 161.903 168.564 163.611 166.671L177.839 76.6948L178.6 71.8928C177.935 74.9661 162.232 71.8997 162.856 68.7852Z" fill="#0096C7"/>
<path d="M161.58 76.736L160.853 81.4076C160.599 82.7796 163.343 84.0762 166.629 84.8994C170.979 85.997 176.275 86.2233 176.618 84.4397L177.159 81.0097L177.331 79.7749C176.988 81.5585 171.692 81.339 167.343 80.2414C164.194 79.4457 161.532 78.1834 161.567 76.9006C161.552 76.8458 161.557 76.7875 161.58 76.736Z" fill="#EBEBEB"/>
<path d="M161.409 77.909C160.805 81.0303 176.563 84.083 177.187 80.9343L177.928 76.2626C177.331 79.3839 161.574 76.3587 162.15 73.2374L161.409 77.909Z" fill="#0096C7"/>
<path d="M162.856 68.7852L162.122 73.402C161.512 76.4684 176.693 79.576 177.839 76.7017C177.865 76.6474 177.884 76.5897 177.894 76.5302L178.58 71.8791C177.935 74.9661 162.232 71.8997 162.856 68.7852Z" fill="#EBEBEB"/>
<path opacity="0.1" d="M177.839 76.6948L178.6 71.8928C178.298 73.2648 174.923 73.4294 171.377 72.8738L157.005 168.667L153.033 186.914L163.666 166.677L177.839 76.6948Z" fill="black"/>
<path d="M165.964 49.2136L162.856 68.7852C162.589 70.1161 165.305 71.44 168.557 72.2701C172.906 73.3883 178.223 73.6421 178.6 71.8722L181.584 53.0484C182.641 48.7129 174.635 45.5024 169.648 46.401C167.789 46.7029 166.362 47.5947 165.964 49.2136Z" fill="#FFA8A7"/>
<path d="M129.338 162.239L129.05 160.14L128.687 157.615L115.968 66.7272C117.148 67.9414 120.201 68.5863 123.514 68.2295C127.39 67.8111 130.964 66.2196 131.815 64.3742L144.437 154.59L145.123 159.426C144.52 156.319 128.769 159.111 129.338 162.239Z" fill="#0096C7"/>
<path d="M122.465 48.8501C120.16 49.4469 119.343 48.9667 119.343 48.9667L115.975 66.7272C117.814 69.3683 122.293 69.9171 126.087 68.7852L125.97 67.914L122.465 48.8501Z" fill="#FFA8A7"/>
<path d="M123.569 47.9377L121.566 43.952L123.569 47.9377Z" fill="#E0E0E0"/>
<path d="M120.263 44.1372L119.343 48.9392C119.343 48.9392 120.125 49.4949 122.465 48.8226L121.566 43.9246C121.527 43.8434 121.471 43.7708 121.404 43.711C121.336 43.6511 121.257 43.6052 121.172 43.5759C121.087 43.5466 120.996 43.5344 120.906 43.5401C120.816 43.5458 120.728 43.5692 120.647 43.609C120.544 43.6582 120.455 43.7322 120.388 43.8245C120.321 43.9167 120.278 44.0242 120.263 44.1372Z" fill="#455A64"/>
<path opacity="0.1" d="M144.458 154.59L131.835 64.3948C130.944 66.542 128.673 68.0649 126.087 68.8126L137.927 158.315C141.487 157.821 144.856 158.02 145.13 159.426L144.458 154.59Z" fill="black"/>
<path d="M131.835 64.3948L123.562 47.9308C123.313 48.355 122.922 48.678 122.458 48.8432L125.97 67.914L126.087 68.7989C128.673 68.0649 130.944 66.542 131.835 64.3948Z" fill="#F28F8F"/>
<path d="M122.465 48.8501C122.706 48.7915 122.931 48.6789 123.122 48.5209C123.313 48.3628 123.466 48.1634 123.569 47.9377L121.566 43.952L122.465 48.8501Z" fill="#37474F"/>
<path d="M142.592 58.5227C142.592 58.5227 139.526 83.1226 139.498 107.482C139.498 131.63 143.937 157.993 144.828 162.061C144.828 162.061 144.828 162.061 144.828 162.109C144.832 162.131 144.832 162.155 144.828 162.177C144.919 162.549 145.125 162.883 145.418 163.13C145.71 163.377 146.074 163.524 146.456 163.551C146.837 163.578 147.218 163.482 147.542 163.279C147.866 163.075 148.117 162.773 148.258 162.417C148.312 162.29 148.348 162.156 148.368 162.019C148.368 162.019 154.35 131.026 154.398 107.29C154.446 83.5548 151.352 58.4952 151.352 58.4952C151.27 58.1573 151.114 57.842 150.894 57.5725C150.675 57.303 150.398 57.0862 150.083 56.938C149.12 56.4488 148.055 56.1938 146.975 56.1938C145.895 56.1938 144.831 56.4488 143.868 56.938C143.547 57.0851 143.265 57.3049 143.043 57.5799C142.822 57.8549 142.667 58.1777 142.592 58.5227Z" fill="#0096C7"/>
<path opacity="0.1" d="M148.265 162.417C148.318 162.29 148.355 162.156 148.375 162.019C148.375 162.019 154.35 131.026 154.398 107.29C154.398 91.3134 153.026 74.7534 152.12 65.6228L146.578 66.5832C146.578 66.5832 147.469 163.309 145.892 163.391C146.111 163.485 146.347 163.533 146.586 163.535C146.824 163.536 147.061 163.49 147.282 163.4C147.502 163.309 147.703 163.176 147.872 163.007C148.041 162.838 148.174 162.638 148.265 162.417Z" fill="black"/>
<path d="M146.962 56.1628C147.73 54.7222 151.922 46.943 150.57 40.6043C149.727 40.5814 148.894 40.4047 148.114 40.083C145.103 38.8345 145.459 36.1591 143.312 34.9791C141.165 33.7992 138.565 37.435 138.545 37.4693C137.495 40.6661 136.192 44.0892 137.351 48.9667C138.157 52.587 139.983 55.9007 142.613 58.5158H151.373L146.962 56.1628Z" fill="#F0F0F0"/>
<path opacity="0.1" d="M156.765 42.0038C154.899 39.7605 152.985 40.6866 150.591 40.6318C151.963 46.9704 147.751 54.7497 146.982 56.1903L151.373 58.5158C151.922 57.6995 152.525 56.8282 153.122 55.8816C153.273 55.6483 153.424 55.4014 153.575 55.1544C153.877 54.6605 154.172 54.1391 154.453 53.5972C154.903 52.7432 155.297 51.861 155.633 50.9561C155.859 50.325 156.072 49.6664 156.25 48.9667C156.652 47.4445 156.882 45.8821 156.936 44.3087C156.947 43.5368 156.89 42.7655 156.765 42.0038Z" fill="black"/>
<path d="M156.758 41.9695C156.696 41.5785 156.621 41.2012 156.531 40.8239V40.7141C156.456 40.4328 156.374 40.1516 156.285 39.884L156.182 39.5685C156.182 39.4862 156.113 39.4038 156.086 39.3215L155.914 38.8893C155.839 38.711 155.763 38.5395 155.681 38.3748C155.488 37.9874 155.273 37.6118 155.036 37.2498C154.823 36.8862 154.597 36.5638 154.35 36.1934C154.103 35.8229 153.863 35.5074 153.602 35.2124C151.98 33.2726 149.998 31.6653 147.764 30.479L147.277 30.232L147.14 30.1634L146.578 29.9165C145.415 29.429 144.212 29.0434 142.983 28.764C142.434 28.6405 141.913 28.5513 141.426 28.4759C140.939 28.4004 140.486 28.3592 140.054 28.3318L139.464 28.2906H138.942H138.106C137.646 28.2906 137.42 28.3455 137.42 28.3455C137.42 28.3455 139.656 30.4653 139.162 34.7459C139.026 35.6813 138.796 36.6007 138.476 37.4899C138.476 37.4899 141.083 33.8267 143.244 34.9997C145.405 36.1728 145.055 38.855 148.046 40.1036C148.826 40.4253 149.658 40.602 150.502 40.6249C152.916 40.7072 154.83 39.7811 156.676 41.9969L156.758 41.9695Z" fill="#0096C7"/>
<path opacity="0.1" d="M137.44 28.3455C137.44 28.3455 144.348 29.7175 149.294 37.4213C149.91 38.3957 150.342 39.4744 150.57 40.6043C152.985 40.6867 154.899 39.7606 156.744 41.9763C156.682 41.5853 156.607 41.208 156.518 40.8307V40.721C156.442 40.4397 156.36 40.1584 156.271 39.8909L156.168 39.5753C156.168 39.493 156.099 39.4107 156.072 39.3284L155.9 38.8962C155.825 38.7178 155.749 38.5463 155.667 38.3817C155.476 37.9938 155.266 37.616 155.036 37.2498C154.823 36.8862 154.597 36.5638 154.35 36.1934C154.103 35.8229 153.863 35.5074 153.602 35.2124C151.98 33.2726 149.998 31.6653 147.764 30.479L147.277 30.232L147.14 30.1634L146.578 29.9165C145.415 29.429 144.212 29.0434 142.983 28.764C142.434 28.6405 141.913 28.5513 141.426 28.4759C140.939 28.4004 140.486 28.3592 140.054 28.3318L139.464 28.2906H138.942H138.106C137.646 28.2906 137.42 28.3455 137.42 28.3455H137.44Z" fill="black"/>
<path d="M151.352 58.4884C151.269 58.1519 151.112 57.8381 150.893 57.57C150.673 57.3018 150.397 57.0859 150.083 56.938C149.12 56.4488 148.056 56.1938 146.975 56.1938C145.895 56.1938 144.831 56.4488 143.868 56.938C143.543 57.0869 143.258 57.3106 143.036 57.5908C142.815 57.871 142.662 58.1997 142.592 58.5501C142.18 61.9801 141.796 65.7119 141.426 69.6496C141.506 69.194 141.695 68.7645 141.977 68.3978C142.259 68.0311 142.625 67.738 143.045 67.5436C144.261 66.9265 145.605 66.6049 146.969 66.6049C148.332 66.6049 149.677 66.9265 150.893 67.5436C151.322 67.7386 151.695 68.0378 151.979 68.414C152.263 68.7902 152.448 69.2315 152.518 69.6976C152.1 65.3346 151.695 61.2735 151.352 58.4884Z" fill="#455A64"/>
<path d="M146.578 66.5832C148.083 66.4879 149.586 66.8108 150.92 67.5161C151.349 67.7111 151.723 68.0103 152.007 68.3865C152.291 68.7628 152.476 69.204 152.546 69.6702C152.127 65.3346 151.723 61.2735 151.38 58.4884C151.294 58.1492 151.132 57.8338 150.908 57.5654C150.684 57.2971 150.402 57.0826 150.083 56.938C149.123 56.4286 148.048 56.1736 146.962 56.1971L146.866 56.2657L146.578 66.6175V66.5832Z" fill="#37474F"/>
</g>
<path d="M178.6 71.8722L181.584 53.0484C181.631 52.8573 181.659 52.6619 181.667 52.4653C180.418 55.6826 174.244 54.0362 174.244 54.0362L171.356 72.8463C174.93 73.402 178.298 73.2716 178.6 71.8722Z" fill="#F28F8F"/>
</svg>
